<?xml version="1.0" encoding="UTF-8"?>
<svg data-bbox="-0.694 25.692 513.114 460.866" height="512" width="512" xmlns="http://www.w3.org/2000/svg" data-type="shape">
    <g>
        <path d="m118.133 348.797 2.868-.021c39.61-.229 39.61-.229 56 3.224l3.05.634c7.376 1.576 14.671 3.388 21.95 5.366.785.21 1.572.419 2.382.634 23.433 6.42 46.818 19.428 67.66 31.733 35.743 21.055 82.758 24.834 122.738 15.22l2.22-.587c-1.284-3.6-2.99-6.681-5.024-9.91-3.425-5.523-5.873-10.26-5.746-16.906 1.206-3.424 2.93-4.93 5.77-7.184 3.032-.695 5.975-.606 9.073-.523l2.728.013c2.963.02 5.923.077 8.886.135q3.102.034 6.205.063c6.37.068 12.738.187 19.107.312l5.876.104q15.793.287 31.581.764 4.351.13 8.703.23c3.552.08 7.102.175 10.653.277l2.999.057c4.827.164 8.318.36 12.188 3.568 2.715 4.072 2.577 7.22 2 12-.862 2.71-2.116 5.075-3.515 7.543l-1.112 2.067a617 617 0 0 1-3.623 6.578 2385 2385 0 0 0-2.499 4.601c-2.036 3.75-4.093 7.49-6.156 11.225a1345 1345 0 0 0-4.47 8.193q-2.83 5.216-5.687 10.418c-2.813 5.13-5.58 10.285-8.346 15.442-9.264 17.267-9.264 17.267-13.28 24.433l-1.761 3.156c-1.55 2.344-1.55 2.344-4.55 4.344-2.305.371-2.305.371-4.876.438l-2.555.12c-4.484-.974-6.567-4.013-8.994-7.75a285 285 0 0 1-4.388-7.62l-1.522-2.678q-1.843-3.25-3.666-6.51l-2.16.671c-24.125 7.443-24.125 7.443-35.59 9.704l-2.188.433c-2.35.436-4.702.82-7.062 1.192l-3.156.533c-11.121 1.707-22.114 1.823-33.344 1.78l-2.951-.006c-14.353-.045-28.447-.38-42.549-3.307l-2.553-.52c-20.037-4.23-38.279-12.002-56.447-21.292q-2.519-1.272-5.039-2.541a1324 1324 0 0 1-27.575-14.324c-46.016-24.461-101.01-23.538-149.948-9.135-14.927 4.585-29.405 10.716-42.885 18.606C13.53 445.694 9.288 446.31 5 445c-2.484-1.653-3.558-2.47-5-5-.768-4.326-.7-8.615-.664-13l-.014-3.844q-.007-4.019.026-8.039c.029-3.427.012-6.852-.018-10.278-.022-3.28-.006-6.56.006-9.839l-.03-3.719c.116-8.484.116-8.484 3.011-12.475 4.15-2.793 4.15-2.793 6.273-3.693l2.078-.889 2.27-.911 2.458-1.006C42.362 361.545 70.181 353.756 99 350c.998-.13.998-.13 2.015-.265 5.719-.695 11.36-.91 17.118-.938M20 394v24l11.063-4.562c25.924-10.44 53.477-18.494 81.633-18.641l2.733-.021q4.348-.025 8.696-.026l2.997-.002c14.473.016 28.655.301 42.878 3.252l2.553.52c17.659 3.728 34.165 9.937 50.13 18.283 3.652 1.887 7.34 3.703 11.022 5.53 7.713 3.828 15.397 7.69 22.982 11.766 48.036 25.793 102.883 26.9 154.489 11.721 5.898-1.797 11.725-3.803 17.437-6.13 4.498-1.74 7.726-1.96 12.387-.69 1.856 1.602 1.856 1.602 3.188 3.625l1.457 2.164c1.861 3.037 3.658 6.078 5.355 9.211 3.092-2.648 4.749-5.963 6.59-9.52l1.033-1.96c1.11-2.109 2.212-4.22 3.315-6.332q2.291-4.36 4.59-8.72l1.151-2.189c3.856-7.32 7.822-14.577 11.829-21.815l1.367-2.483 1.18-2.129c1.075-1.993 1.075-1.993 1.945-4.852-3.28-1.64-6.928-1.244-10.539-1.316l-2.623-.063q-4.231-.097-8.463-.183l-5.763-.129c-13.539-.293-27.07-.435-40.612-.309 1.38 3.711 3.108 6.974 5.125 10.375 2.423 4.418 3.9 7.501 2.875 12.625-3.237 5.555-7.447 6.544-13.312 8.125l-2.695.765c-13.757 3.82-27.4 6.239-41.688 6.313l-2.734.022q-4.348.024-8.696.025l-2.995.002c-40.284-.044-71.244-10.565-106.328-29.899C176.262 362.256 91.772 358.114 20 394"/>
        <path d="m118.133 25.797 2.868-.021c39.61-.229 39.61-.229 56 3.224l3.05.634c7.376 1.576 14.671 3.388 21.95 5.366.785.21 1.572.419 2.382.634 23.433 6.42 46.818 19.428 67.66 31.733 35.743 21.055 82.758 24.834 122.738 15.22l2.22-.587c-1.284-3.6-2.99-6.681-5.024-9.91-3.425-5.523-5.873-10.26-5.746-16.906 1.206-3.424 2.93-4.93 5.77-7.184 3.032-.695 5.975-.606 9.073-.523l2.728.013c2.963.02 5.923.077 8.886.135q3.102.034 6.205.063c6.37.068 12.738.187 19.107.312l5.876.104q15.793.287 31.581.764 4.351.13 8.703.23 5.327.122 10.653.277l2.999.057c4.827.164 8.318.36 12.188 3.568 2.715 4.072 2.577 7.22 2 12-.862 2.71-2.116 5.075-3.515 7.543l-1.112 2.067a617 617 0 0 1-3.623 6.578 2385 2385 0 0 0-2.499 4.601c-2.036 3.75-4.093 7.49-6.156 11.225a1345 1345 0 0 0-4.47 8.193q-2.83 5.216-5.687 10.418c-2.813 5.13-5.58 10.285-8.346 15.442-9.264 17.267-9.264 17.267-13.28 24.433l-1.761 3.156c-1.55 2.344-1.55 2.344-4.55 4.344-2.305.371-2.305.371-4.876.438l-2.555.12c-4.484-.974-6.567-4.013-8.994-7.75a285 285 0 0 1-4.388-7.62l-1.522-2.678q-1.843-3.25-3.666-6.51l-2.16.671c-24.125 7.443-24.125 7.443-35.59 9.704l-2.188.433c-2.35.436-4.702.82-7.062 1.192l-3.156.533c-11.121 1.707-22.114 1.823-33.344 1.78l-2.951-.006c-14.353-.045-28.447-.38-42.549-3.307l-2.553-.52c-20.037-4.23-38.279-12.002-56.447-21.292q-2.519-1.272-5.039-2.541a1324 1324 0 0 1-27.575-14.324c-46.016-24.461-101.01-23.538-149.948-9.135-14.927 4.585-29.405 10.716-42.885 18.606C13.53 122.694 9.288 123.31 5 122c-2.484-1.653-3.558-2.47-5-5-.768-4.326-.7-8.615-.664-13l-.014-3.844q-.007-4.019.026-8.039c.029-3.427.012-6.852-.018-10.278-.022-3.28-.006-6.56.006-9.839l-.03-3.719c.116-8.484.116-8.484 3.011-12.475 4.15-2.793 4.15-2.793 6.273-3.693l2.078-.889 2.27-.911 2.458-1.006C42.362 38.545 70.181 30.756 99 27c.998-.13.998-.13 2.015-.265 5.719-.695 11.36-.91 17.118-.938M20 71v24l11.063-4.562c25.924-10.44 53.477-18.494 81.633-18.641l2.733-.021q4.348-.025 8.696-.026l2.997-.002c14.473.016 28.655.301 42.878 3.252l2.553.52c17.659 3.728 34.165 9.937 50.13 18.283 3.652 1.887 7.34 3.703 11.022 5.53 7.713 3.828 15.397 7.69 22.982 11.766 48.036 25.793 102.883 26.9 154.489 11.721 5.898-1.797 11.725-3.803 17.437-6.13 4.498-1.74 7.726-1.96 12.387-.69 1.856 1.602 1.856 1.602 3.188 3.625l1.457 2.164c1.861 3.037 3.658 6.078 5.355 9.211 3.092-2.648 4.749-5.963 6.59-9.52l1.033-1.96c1.11-2.109 2.212-4.22 3.315-6.332q2.291-4.36 4.59-8.72l1.151-2.189c3.856-7.32 7.822-14.577 11.829-21.815l1.367-2.483 1.18-2.129C483.13 73.86 483.13 73.86 484 71c-3.28-1.64-6.928-1.244-10.539-1.316l-2.623-.063q-4.231-.097-8.463-.183l-5.763-.129c-13.539-.293-27.07-.435-40.612-.309 1.38 3.711 3.108 6.974 5.125 10.375 2.423 4.418 3.9 7.501 2.875 12.625-3.237 5.555-7.447 6.544-13.312 8.125l-2.695.765c-13.757 3.82-27.4 6.239-41.688 6.313l-2.734.022q-4.348.024-8.696.025l-2.995.002c-40.284-.044-71.244-10.565-106.328-29.899C176.262 39.256 91.772 35.114 20 71"/>
        <path d="M129.988 187.406h3.542l3.782.094 3.927.058c46.356 1.051 87.425 17.045 127.167 39.973C306.499 249.423 354.371 255.257 397 244c-1.283-3.6-2.99-6.682-5.023-9.91-3.426-5.524-5.874-10.261-5.747-16.907 1.207-3.424 2.93-4.93 5.77-7.183 3.032-.696 5.975-.606 9.074-.524l2.727.013c2.963.021 5.924.078 8.886.136q3.103.034 6.206.062c6.37.069 12.738.188 19.107.313l5.876.104q15.793.287 31.58.763 4.352.131 8.704.23c3.551.08 7.102.176 10.652.278l3 .056c4.827.164 8.317.36 12.188 3.569 2.742 4.114 2.74 7.167 2 12-1.397 3.766-3.286 7.19-5.25 10.687l-1.645 3.036c-1.685 3.102-3.394 6.19-5.105 9.277q-1.492 2.737-2.977 5.476a2467 2467 0 0 1-5.894 10.797c-2.797 5.103-5.55 10.23-8.296 15.36-5.245 9.789-10.54 19.548-15.958 29.242l-1.613 2.917-1.52 2.7-1.317 2.355c-2.113 3.19-4.016 5.82-7.828 6.72l-2.535-.005-2.527.067c-4.422-1.097-6.541-4.1-8.96-7.82a287 287 0 0 1-4.388-7.622l-1.521-2.677q-1.844-3.25-3.666-6.51l-2.066.655c-22.858 7.18-46.093 13.32-70.184 13.72l-2.64.113c-4.563.063-6.46.023-10.157-2.887-2.86-3.809-3.413-5.818-2.953-10.601 1.739-3.478 2.893-5.502 6.484-7.117 4.7-1.18 9.317-1.442 14.14-1.758 22.201-1.724 44.124-7.037 64.785-15.385 4.578-1.75 7.846-1.995 12.59-.74 1.821 1.347 1.821 1.347 3.126 3.062l1.32 1.66c2.293 3.359 4.422 6.816 6.555 10.278l1.462-2.772a16811 16811 0 0 1 8.02-15.188c5.61-10.622 11.268-21.21 17.163-31.677l1.363-2.453 1.176-2.09c1.02-1.944 1.02-1.944.816-4.82l-66-2 9 16c0 8.214 0 8.214-3.306 11.71-3.308 2.519-7.097 3.435-11.07 4.477l-2.68.751c-13.747 3.767-27.374 6.19-41.64 6.265l-2.733.021q-4.349.025-8.696.026l-2.996.002c-41.684-.045-74.177-11.295-110.254-32.002C209.599 219.968 175.663 211.263 139 209v24h9c12.871 1.105 25.828 3.326 38.25 6.875l2.335.666c14.048 4.27 27.114 10.587 40.165 17.209l4.788 2.413c8.262 4.168 16.512 8.36 24.712 12.65l2.12 1.106c12.748 6.759 12.748 6.759 15.63 11.08.837 4.706.669 8.027-2.063 12-3.62 2.466-5.55 2.874-9.937 3-3.358-1.016-6.385-2.588-9.5-4.187l-2.922-1.44c-6.71-3.336-13.346-6.81-19.988-10.279-31.394-16.37-60.516-28.542-96.426-29.664-5.357-.21-9.99-.662-14.301-4.166-2.288-2.78-2.374-4.125-2.397-7.687l-.048-3.287.015-3.535-.018-3.647q-.011-3.816.008-7.633a874 874 0 0 0-.058-11.68q-.002-3.707.006-7.415l-.04-3.53c.092-7.987.092-7.987 2.834-12.086 3.258-2.027 5.008-2.383 8.823-2.357"/>
        <path d="M148.031 299.758c12.516 5.836 25.256 6.686 38.395 2.027 3.586-1.481 7.103-3.05 10.574-4.785 4.963-.615 8.773-.736 13.125 1.875 2.253 3.756 2.472 6.321 2.539 10.625-.967 3.64-2.792 5.116-5.664 7.5-4.497 2.436-9.216 4.217-14 6l-2.774 1.047c-22.623 7.032-43.926-.126-64.257-9.805-12.516-5.836-25.257-6.686-38.395-2.027-3.586 1.482-7.104 3.05-10.574 4.785-4.964.615-8.774.736-13.125-1.875-2.254-3.756-2.472-6.32-2.54-10.625.967-3.639 2.793-5.116 5.665-7.5 4.496-2.436 9.215-4.217 14-6l2.773-1.047c22.623-7.032 43.927.126 64.258 9.805"/>
        <path d="M133.031 136.758c12.516 5.836 25.256 6.686 38.395 2.027 3.586-1.481 7.103-3.05 10.574-4.785 4.963-.615 8.773-.736 13.125 1.875 2.253 3.756 2.472 6.321 2.539 10.625-.967 3.64-2.792 5.116-5.664 7.5-4.497 2.436-9.216 4.217-14 6l-2.774 1.047c-22.623 7.032-43.926-.126-64.257-9.805-12.516-5.836-25.257-6.686-38.395-2.027-3.586 1.482-7.104 3.05-10.574 4.785-4.964.615-8.774.736-13.125-1.875-2.254-3.756-2.472-6.32-2.54-10.625.967-3.639 2.793-5.116 5.665-7.5 4.496-2.436 9.215-4.217 14-6l2.773-1.047c22.623-7.032 43.927.126 64.258 9.805"/>
        <path d="M314 292c2.837 1.707 3.347 2.915 5 6 1.092 4.588.346 7.353-1.875 11.5-2.48 2.586-4.593 2.992-8.125 3.188-3.663-.24-4.923-.636-8.062-2.75C298.604 306.4 298 304.236 298 300c3.012-7.981 8.001-9.427 16-8"/>
    </g>
</svg>
