<?xml version="1.0" encoding="UTF-8"?>
<svg data-bbox="0.05 0 511.9 512" viewBox="0 0 512 512" height="682.667" width="682.667" xmlns="http://www.w3.org/2000/svg" data-type="shape">
    <g>
        <path d="M47.5 1.2c-1.1.6-2.6 1.8-3.2 2.6-1 1.3-1.3 52-1.3 246.4V495H5.8l-2.9 2.9c-3.8 3.8-3.8 7.4 0 11.2l2.9 2.9h500.4l2.9-2.9c3.8-3.8 3.8-7.4 0-11.2l-2.9-2.9H469V209.9l-2.5-2.4-2.4-2.5H316l-.2-100.1-.3-100.1-2.8-2.4-2.8-2.4H179.7C87.4.1 48.9.4 47.5 1.2M299 256v239H60V17h239zm153 102.5V495H316V222h136z"/>
        <path d="M99.4 52c-5.2 2.1-5.4 3.3-5.4 33.8v28.3l2.5 2.4 2.4 2.5h58.2l2.4-2.5 2.5-2.4v-57l-2.4-2.8-2.4-2.8-27.9-.2c-15.3-.1-28.8.2-29.9.7M145 85v17h-34V68h34z"/>
        <path d="M200.9 52.5c-1.5.8-3.2 2.9-3.8 4.6-1.4 4.2-1.5 52.7-.1 56.5 2.1 5.3 2.3 5.3 33.6 5.4h29.1l2.4-2.6c2.4-2.6 2.4-2.6 2.7-28.4.4-29.1-.2-33.1-4.8-35.5-4.2-2.2-55.2-2.1-59.1 0M247 85v17h-34V85.7c0-9 .3-16.7.7-17 .3-.4 8-.7 17-.7H247z"/>
        <path d="m96.5 156.5-2.5 2.4v57l2.4 2.8 2.4 2.8h58.4l2.4-2.8 2.4-2.8v-57l-2.5-2.4-2.4-2.5H98.9zM145 188v17h-34v-34h34z"/>
        <path d="m198.9 156.6-2.4 2.6-.3 26.8c-.3 29.6.2 33.1 5.3 35 1.5.6 14 1 29.1 1 30.4 0 31.6-.2 33.4-7.1.7-2.6 1-13.3.8-29.9-.3-25.8-.3-25.8-2.7-28.4l-2.4-2.6h-58.4zM247 188v17h-34v-34h34z"/>
        <path d="M98.5 257.2c-4.4 2.5-4.4 3.1-4.5 32.9v28.6l2.5 2.7 2.4 2.6h58.2l2.4-2.6 2.5-2.7v-28.6c-.1-30-.1-30.5-4.7-32.9-3-1.6-56-1.6-58.8 0M145 290v17h-34v-34h34z"/>
        <path d="m199.3 258.4-2.8 2.4v58l2.4 2.6 2.4 2.6h57.6l2.8-2.4 2.8-2.4.3-25.9c.2-14.2 0-27.3-.3-29.2-.3-1.8-1.7-4.4-3-5.7l-2.4-2.4h-57zM247 290v17h-34v-34h34z"/>
        <path d="M100.3 358.7c-1.3.2-3.2 1.6-4.3 3-1.9 2.4-2 4-2 30.9v28.3l2.4 2.8 2.4 2.8h58.4l2.4-2.8 2.4-2.8v-56.8l-2.4-2.8-2.4-2.8-27.4-.1c-15-.1-28.3 0-29.5.3m44.7 33.8V410h-34v-35h34z"/>
        <path d="M201.4 359.4c-4.9 2.2-5.4 5.1-5.4 33.3 0 28.6.5 31.2 6 33.2 4.3 1.4 52.5 1.5 56.7.1 5.5-2 5.8-3.6 5.8-34.1V364l-2.8-2.7-2.7-2.8-27.3-.2c-21.4-.2-27.9 0-30.3 1.1m45.6 33.1V410l-16.7-.2-16.8-.3-.3-16c-.1-8.7 0-16.5.2-17.2.4-1 4.5-1.3 17.1-1.3H247z"/>
        <path d="M354.5 257.2c-4.4 2.5-4.4 3.1-4.5 32.9v28.6l2.5 2.7 2.4 2.6h58.2l2.4-2.6 2.5-2.7v-28.6c-.1-30-.1-30.5-4.7-32.9-3-1.6-56-1.6-58.8 0M401 290v17h-34v-34h34z"/>
        <path d="M356.3 358.7c-1.3.2-3.2 1.6-4.3 3-1.9 2.4-2 4-2 30.9v28.3l2.4 2.8 2.4 2.8h58.4l2.4-2.8 2.4-2.8v-56.8l-2.4-2.8-2.4-2.8-27.4-.1c-15-.1-28.3 0-29.5.3m44.7 33.8V410h-34v-35h34z"/>
    </g>
</svg>
