<?xml version="1.0" encoding="UTF-8"?>
<svg data-bbox="19 21.245 474 470.031" height="512" width="512" xmlns="http://www.w3.org/2000/svg" data-type="shape">
    <g>
        <path d="M328 23c.955 1.932 1.599 3.864 2.25 5.918.753 2.355.753 2.355 2.813 5.145 3.936 5.968 4.226 11.992 4.164 18.902v2.633c0 2.852-.016 5.703-.032 8.554l-.008 5.957a5816 5816 0 0 1-.05 15.629c-.02 5.322-.03 10.645-.04 15.967-.02 10.432-.055 20.863-.097 31.295l1.8-.083c15.856-.72 31.706-1.193 47.575-1.48l3.356-.06q9.727-.175 19.456-.33 3.797-.064 7.594-.138c3.698-.072 7.396-.12 11.094-.159l3.033-.065c4.866-.024 8.278-.024 12.092 3.315 2.235 2.519 4.25 5.168 6.25 7.875l1.714 2.281c15.107 20.233 15.107 20.233 15.326 27.669l.115 3.78.11 4.194.125 4.436c.516 18.941.786 37.888 1.067 56.835l.144 9.586q.257 16.935.506 33.872.203 13.734.416 27.469c.86 55.338 1.477 110.658 1.227 166.003l1.68-.063c2.524-.084 5.046-.136 7.57-.187l2.645-.102c6.449-.098 6.449-.098 9.714 2.141C493 482 493 482 493 485.625c-1 3.375-1 3.375-2.58 4.57-3.377 1.123-6.629 1.08-10.147 1.057l-2.385.008c-2.652.008-5.305 0-7.957-.006q-2.873.003-5.744.01c-5.273.008-10.547.004-15.82-.003-5.683-.004-11.365.003-17.048.008-11.137.01-22.273.007-33.41.002q-13.573-.007-27.145-.003h-3.897l-7.837.003q-35.726.007-71.451-.011-32.627-.014-65.255 0a106224 106224 0 0 1-81.088.008l-3.881-.001q-13.561-.003-27.123.006-16.52.009-33.039-.007-8.434-.009-16.868 0-7.713.007-15.425-.009-2.797-.002-5.596.004-3.788.007-7.577-.01l-2.22.015c-6.577-.05-6.577-.05-9.507-2.266-1-3.375-1-3.375-1-7 1.422-2.21 1.422-2.21 4-4 3.099-.485 6.123-.377 9.25-.25l2.547.055c2.068.047 4.136.118 6.203.195l-.003-1.76a98787 98787 0 0 1-.162-115.568l-.002-2.49a37999 37999 0 0 0-.064-39.947q-.042-20.484-.051-40.969-.005-12.647-.042-25.293-.023-8.665-.017-17.33.004-5.003-.017-10.007a1779 1779 0 0 1-.003-10.835l-.026-3.216.018-2.921-.004-2.528c.461-2.643 1.299-3.49 3.373-5.136 3.31-1.655 6.991-1.1 10.625-1.062l2.43.013q2.972.02 5.945.049l-.048-2.247c-.062-3.355-.101-6.71-.14-10.065l-.076-3.538-.029-3.388-.048-3.127C63 174 63 174 64.227 172.158c2.293-1.498 3.714-1.503 6.441-1.451l2.705.03c.929.024 1.858.05 2.814.076l2.85.04q3.482.054 6.963.147l-.048-2.156c-.062-3.218-.101-6.437-.14-9.656l-.076-3.393-.029-3.252-.048-3C86 147 86 147 87.331 145.178c2.594-1.83 4.59-1.562 7.669-1.177 1.67 1.177 1.67 1.177 3 3 .34 2.544.34 2.544.293 5.543l-.023 2.93-.082 3.714L98 171h29l-.105-11.234q-.034-5.382-.06-10.763-.022-3.743-.061-7.484c-.037-3.585-.054-7.169-.067-10.753-.015-1.117-.03-2.234-.047-3.385v-3.153l-.02-2.773c.436-2.975 1.25-4.331 3.36-6.455 3.5-.562 3.5-.562 7 0 4.326 4.598 3.377 10.749 3.293 16.645l-.013 3.408a1802 1802 0 0 1-.093 10.76 6416 6416 0 0 0-.04 7.302A3529 3529 0 0 1 140 171l2.064-.048c3.083-.062 6.165-.101 9.249-.14l3.248-.076 3.115-.029 2.872-.048c2.452.341 2.452.341 4.263 1.7 1.74 2.401 1.529 4.249 1.482 7.184l-.03 3.252c-.024 1.12-.05 2.239-.076 3.393l-.04 3.427c-.036 2.795-.09 5.59-.147 8.385h13l-.058-3.763q-.268-17.546-.489-35.093c-.076-6.014-.157-12.028-.252-18.042a4008 4008 0 0 1-.233-17.41q-.042-3.322-.1-6.644c-.053-3.1-.087-6.2-.117-9.3l-.06-2.78c-.025-4.814.111-8.091 3.309-11.968 2.656-1.763 2.656-1.763 5.93-3.398l1.832-.931a740 740 0 0 1 6.113-3.046q2.198-1.107 4.395-2.218 4.79-2.42 9.588-4.822a2160 2160 0 0 0 15.9-8.077c.915-.469 1.83-.938 2.774-1.42l5.625-2.882q7.165-3.667 14.335-7.327a51078 51078 0 0 0 36.126-18.465l7.14-3.652 2.288-1.171a913 913 0 0 0 12.21-6.382l2.623-1.393q2.49-1.327 4.975-2.666l2.263-1.205 1.984-1.067c4.175-1.93 6.878-2.456 10.899.122m-18.867 18.367-2.127 1.062a4750 4750 0 0 0-6.881 3.446l-2.361 1.182c-9.447 4.73-18.863 9.505-28.185 14.476-6.736 3.582-13.562 6.973-20.395 10.365-6.665 3.319-13.26 6.753-19.833 10.249-7.655 4.052-15.404 7.908-23.169 11.743l-2.916 1.446-2.57 1.267a168 168 0 0 0-6.365 3.484L191 102c-.133 84.99.002 169.977.39 254.965q.056 12.442.107 24.883.064 15.31.14 30.62.04 7.895.072 15.79.03 7.295.071 14.59.014 2.64.023 5.281.014 3.619.039 7.238l.003 2.038c.057 6.92.658 13.642 1.155 20.595h126c.026-32.615.026-32.615.027-65.231l-.002-3.407c-.024-45.504-.221-91.008-.406-136.512q-.061-15.304-.116-30.608C318.256 174.158 317.843 106.08 317 38c-2.577 0-5.551 2.206-7.867 3.367M337 145l1 333h94l-.184-20.758q-.129-15.184-.253-30.367l-.017-2.036c-.508-61.946-.816-123.892-1.108-185.839l-.017-3.564Q430.205 189.718 430 144q-10.657-.036-21.316-.052-4.956-.007-9.912-.023c-20.623-.068-41.14.468-61.772 1.075M75 183v15h79v-15zm15.063 27.372c-3.875.069-7.75.127-11.626.185q-3.77.062-7.539.127l-3.442.05-3.162.06-2.747.048c-2.978.127-2.978.127-7.547 1.158l-1 266h123c.03-21.547.03-21.547.031-43.094l-.001-2.386c-.02-23.132-.135-46.263-.249-69.395l-.016-3.373q-.103-20.61-.21-41.22-.093-17.805-.182-35.611Q175.19 246.46 175 210c-42.47-.09-42.47-.09-84.937.372"/>
        <path d="m230.725 204.482 2.022-.021c2.2-.018 4.398-.006 6.597.007q2.298-.003 4.595-.011 4.812-.008 9.623.021c4.11.023 8.218.01 12.328-.014 3.162-.015 6.324-.01 9.486 0q2.272.005 4.545-.01c2.119-.01 4.236.006 6.355.028l3.65.01c3.697.61 4.894 1.499 7.074 4.508.47 1.941.47 1.941.426 3.986l-.022 2.336-.091 2.494-.056 2.584q-.066 2.7-.162 5.4a482 482 0 0 0-.192 8.268q-.073 2.625-.153 5.248l-.041 2.5c-.24 5.636-.24 5.636-2.438 8.206-2.642 1.138-4.469 1.336-7.345 1.306l-3.154-.013-3.46-.065-3.616-.038q-5.16-.066-10.321-.169a2035 2035 0 0 0-7.659-.123 2926 2926 0 0 1-13.992-.242q-2.784-.054-5.57-.1c-2.626-.044-5.25-.103-7.876-.164l-2.402-.035c-3.795-.103-5.644-.225-8.876-2.38a76 76 0 0 1-.433-8.585l-.016-2.586q-.01-2.712.003-5.422c.009-2.764-.02-5.526-.052-8.29q-.001-2.632.002-5.265c-.01-.826-.022-1.652-.034-2.503l.029-2.346v-2.054c1.517-5.896 5.827-6.452 11.226-6.466M232 218v20l51 1 1-22a977 977 0 0 0-52 1"/>
        <path d="M121.852 396.907c3.3-.044 6.598-.07 9.898-.094l3.615-.04 3.307-.003 2.846-.013c2.645.259 4.255.813 6.482 2.243 1.655 3.31 1.061 6.989.984 10.621l-.05 2.593q-.056 2.718-.121 5.435a1049 1049 0 0 0-.145 8.322l-.121 5.275-.03 2.52c-.169 5.7-.169 5.7-1.639 7.953-2.786 1.9-5.031 1.662-8.381 1.67l-1.987.015a587 587 0 0 1-6.502-.006q-2.263.004-4.525.01-4.744.005-9.487-.017a1446 1446 0 0 0-12.143.01c-3.115.012-6.231.008-9.347 0q-2.238-.004-4.476.008a539 539 0 0 1-6.268-.02l-3.6-.008c-3.514-.423-5.416-1.16-8.162-3.381-.492-3.012-.655-5.454-.594-8.465v-2.514q.008-2.632.052-5.263c.042-2.682.041-5.362.034-8.045q.016-2.558.04-5.115v-2.428c.066-3.124.302-5.766 1.496-8.67 3.074-2.338 6.284-2.103 9.995-2.11l2.443-.05c2.636-.05 5.272-.07 7.909-.09q2.717-.04 5.434-.083c4.542-.068 9.083-.11 13.625-.145 3.14-.027 6.279-.07 9.418-.115M85 410c-1.047 4.187-1.112 7.979-1.063 12.25l.014 2.258q.02 2.745.049 5.492c17.347.965 34.63 1.11 52 1v-21z"/>
        <path d="M270.184 274.934q4.815-.079 9.628-.121l2.664-.04c4.54-.006 8.32.29 12.524 2.227 2.585 3.878 2.209 7.018 2.082 11.5l-.054 2.522a893 893 0 0 1-.14 5.275 760 760 0 0 0-.171 8.078q-.065 2.563-.135 5.125l-.038 2.444c-.193 5.518-.193 5.518-1.66 7.768-2.814 1.924-5.11 1.67-8.495 1.677l-2.021.016c-2.205.013-4.41.004-6.614-.006l-4.6.009q-4.82.005-9.64-.016c-4.118-.018-8.234-.008-12.352.01-3.166.011-6.332.008-9.499 0q-2.277-.003-4.553.007a564 564 0 0 1-6.37-.02l-3.66-.008c-3.357-.415-4.777-.924-7.08-3.38a59 59 0 0 1-.496-8.72l-.005-2.588q.004-2.709.034-5.417c.03-2.765.021-5.53.008-8.295q.01-2.631.025-5.262l-.009-2.51c.095-5.742.095-5.742 1.723-7.924 3.063-2.288 6.924-1.769 10.61-1.796l2.694-.055c2.889-.055 5.777-.089 8.666-.121q2.956-.047 5.913-.097c4.772-.077 9.544-.135 14.317-.186q3.353-.04 6.704-.096M232 288v20c11.16.957 22.183 1.12 33.375 1.063l5.156-.014c4.156-.01 8.313-.03 12.469-.049l1-21z"/>
        <path d="m231.832 129.385 2.056-.017c2.237-.012 4.472.013 6.71.038q2.334.003 4.669 0 4.89.004 9.777.052c4.179.04 8.357.044 12.536.037a1536 1536 0 0 1 9.638.026q2.312.01 4.623.01c2.152.001 4.304.022 6.456.05l3.711.025C295 130 295 130 296.9 131.279c2.028 3.172 1.422 7.016 1.316 10.659l-.052 2.656q-.06 2.779-.144 5.558a598 598 0 0 0-.166 8.512q-.066 2.7-.138 5.399l-.033 2.576c-.212 5.722-.212 5.722-2.186 8.407-3.701 1.415-7.252 1.275-11.149 1.161l-2.643-.04q-2.85-.044-5.698-.107a754 754 0 0 0-9.186-.117 1921 1921 0 0 1-16.1-.205q-3.328-.051-6.658-.084a1379 1379 0 0 1-9.754-.142l-3.01-.02-2.777-.06-2.435-.033c-2.627-.502-3.519-1.252-5.086-3.399a70 70 0 0 1-.434-8.21l-.016-2.44q-.01-2.556.004-5.11c.008-2.599-.02-5.196-.052-7.794q-.003-2.485.002-4.97l-.034-2.345c.044-3.484.345-5.819 2.134-8.837 3.176-3.04 4.876-2.916 9.228-2.909M234 143c-1.282 6.888-1 12.667-1 20h52v-21c-17.032-.098-33.996-.132-51 1"/>
        <path d="m82.832 310.482 2.056-.021c2.237-.018 4.473-.006 6.71.007q2.334-.003 4.669-.011 4.89-.008 9.777.021c4.179.023 8.357.01 12.536-.014 3.213-.015 6.425-.01 9.638 0q2.311.005 4.623-.01c2.153-.01 4.303.006 6.456.028l3.711.01C146 311 146 311 147.9 312.782c1.761 3.549 1.432 7.168 1.316 11.034l-.052 2.584q-.06 2.7-.144 5.4a562 562 0 0 0-.166 8.268q-.066 2.625-.138 5.248l-.033 2.5c-.125 3.263-.217 5.582-2.252 8.213-3.368 1.345-6.466 1.296-10.028 1.178l-2.355-.04q-2.6-.045-5.2-.107a674 674 0 0 0-9.05-.118c-5.594-.043-11.187-.117-16.78-.205q-3.495-.05-6.99-.084a1447 1447 0 0 1-10.21-.142c-1.044-.006-2.088-.012-3.163-.02l-2.918-.059-2.56-.034c-2.693-.493-3.587-1.19-5.176-3.398a75 75 0 0 1-.434-8.465l-.016-2.515q-.01-2.631.004-5.262c.008-2.683-.02-5.363-.052-8.046q-.003-2.558.002-5.115l-.034-2.427c.041-3.353.134-5.625 2.134-8.381 3.208-2.396 5.244-2.297 9.228-2.307M85 324c-1.62 6.475-1 13.325-1 20h52v-21c-25.52-.215-25.52-.215-51 1"/>
        <path d="m83.719 235.612 2.056-.016a646 646 0 0 1 6.725.006l4.674-.009q4.898-.006 9.795.016c4.187.017 8.373.007 12.56-.01 3.217-.011 6.434-.008 9.65 0q2.316.004 4.632-.008c2.157-.007 4.313.004 6.47.021l3.721.007C147 236 147 236 148.894 237.29c1.97 3.045 1.574 6.624 1.575 10.14l.023 2.507q.016 2.625.01 5.25c-.002 2.672.04 5.341.084 8.012q.008 2.553.008 5.106l.05 2.412-.029 2.275.007 1.984c-1.028 3.347-2.917 4.882-5.622 7.024-3.156.59-3.156.59-6.746.54l-1.993-.008a362 362 0 0 1-6.483-.122 2086 2086 0 0 0-4.524-.06q-4.733-.067-9.464-.18c-4.04-.095-8.08-.15-12.122-.191-3.112-.036-6.223-.091-9.335-.152q-2.235-.042-4.47-.066a402 402 0 0 1-6.246-.136l-3.588-.072c-3.611-.66-4.82-1.673-7.029-4.553-.47-2.327-.47-2.327-.426-4.894l.023-2.876.09-3.042.054-3.109c.062-3.027.156-6.052.26-9.079.021-.823.044-1.647.067-2.495.338-11.623.338-11.623 2.044-14.153 2.831-2.027 5.154-1.733 8.607-1.74M86 249l-1 20h52v-21q-7.52-.036-15.039-.055-2.549-.008-5.096-.02c-10.355-.052-20.54.19-30.865 1.075"/>
        <path d="M295.731 344.51c1.853 3.636 1.587 7.111 1.449 11.088l-.059 2.517a614 614 0 0 1-.157 5.258 608 608 0 0 0-.198 8.051q-.072 2.556-.149 5.112l-.048 2.433c-.216 5.49-.216 5.49-1.686 7.743-2.813 1.925-5.11 1.67-8.494 1.677l-2.021.016c-2.205.013-4.41.004-6.614-.006l-4.6.009q-4.82.006-9.64-.016c-4.118-.017-8.234-.008-12.351.01-3.167.011-6.333.008-9.5 0q-2.276-.003-4.553.007a564 564 0 0 1-6.37-.02l-3.66-.008c-3.356-.415-4.777-.924-7.08-3.38a59 59 0 0 1-.496-8.72l-.004-2.588q.002-2.708.033-5.417c.03-2.765.021-5.53.008-8.295q.01-2.631.025-5.262l-.008-2.51c.094-5.725.094-5.725 1.678-7.924 2.262-1.647 3.61-1.68 6.396-1.717l2.845-.06 3.078-.02 3.19-.054c3.376-.054 6.753-.088 10.13-.121q3.355-.05 6.711-.104c38.829-.59 38.829-.59 42.145 2.301M232 355v21h51l1-21z"/>
        <path d="m229.81 409.596 2.085-.02c2.275-.02 4.549-.015 6.823-.01l4.741-.015q4.968-.014 9.936.003c4.248.012 8.494-.009 12.742-.038 3.263-.018 6.526-.018 9.79-.012q2.349 0 4.698-.019a448 448 0 0 1 6.564.013h3.774c3.036.502 3.036.502 4.945 2.29 1.724 3.494 1.383 7.01 1.236 10.81l-.066 2.517q-.074 2.63-.17 5.257a708 708 0 0 0-.23 8.052q-.078 2.555-.159 5.111l-.064 2.434c-.15 3.818-.291 5.785-2.456 9.031-3.403 1.135-5.946 1.102-9.535 1.07l-1.996-.015-11.07-.12q-4.757-.056-9.513-.122c-4.065-.055-8.13-.092-12.196-.124-3.125-.027-6.249-.068-9.373-.113q-2.25-.03-4.498-.043a567 567 0 0 1-6.283-.085l-3.613-.042c-2.923-.406-2.923-.406-4.807-1.692-2.023-3.107-1.54-6.84-1.514-10.433l-.009-2.588q-.002-2.71.016-5.417c.016-2.766 0-5.53-.019-8.295q.003-2.631.012-5.262l-.018-2.51c.07-5.666.07-5.666 1.515-7.926 2.871-1.938 5.274-1.672 8.712-1.687M232 422v21h51l1-21z"/>
        <path d="M366 173c2.77 4.155 2.368 7.554 2.375 12.438l.074 2.603c.03 6.26.03 6.26-2.238 9.572C364 199 364 199 360.25 198.75L357 198c-2.06-4.252-2.269-7.803-2.25-12.5l-.016-3.906c.25-3.37.693-5.626 2.266-8.594 3.149-1.574 5.645-.719 9 0"/>
        <path d="M366 343c2.773 4.16 2.33 7.551 2.313 12.438l.048 2.603c.003 3.643-.002 6.247-1.658 9.533C365 369 365 369 361.438 369.375 358 369 358 369 356 367c-1.357-3.696-1.204-7.541-1.25-11.437l-.078-3.934c.343-3.794 1.026-5.64 3.328-8.629 2.932-1.466 4.883-.78 8 0"/>
        <path d="M361.5 229.438c3.5.563 3.5.563 5.188 2.004 2.018 3.934 1.825 7.7 1.812 12.058l.086 2.59c.02 6.248.02 6.248-2.953 9.5C363 257 363 257 360.375 257.063c-3.244-1.451-3.87-2.853-5.375-6.062-.289-2.765-.42-5.247-.375-8l-.035-2.118c.033-5.859.61-10.433 6.91-11.445"/>
        <path d="M406.5 402.438c3.5.563 3.5.563 5.191 2.035 1.963 3.791 1.783 7.32 1.747 11.527l.06 2.446c-.003 3.84-.048 5.914-2.299 9.117-2.199 1.438-2.199 1.438-5.824 1.438-3.375-1-3.375-1-4.566-2.567-1.144-3.442-1.138-6.784-1.122-10.371l-.048-2.13c-.006-5.884.518-10.476 6.861-11.495"/>
        <path d="M406.5 286.438c3.5.563 3.5.563 5.191 2.035 1.963 3.791 1.783 7.32 1.747 11.527l.06 2.446c-.003 3.84-.048 5.914-2.299 9.117-2.199 1.438-2.199 1.438-5.824 1.438-3.375-1-3.375-1-4.566-2.567-1.144-3.442-1.138-6.784-1.122-10.371l-.048-2.13c-.006-5.884.518-10.476 6.861-11.495"/>
        <path d="M367 288c2.931 2.931 2.292 5.484 2.322 9.494l-.01 2.943.05 2.932.001 2.815.01 2.58c-.455 2.73-1.16 3.612-3.373 5.236-5.13.641-5.13.641-7.66-1.225-2.633-3.488-1.808-8.071-1.777-12.275l-.061-2.918.002-2.8-.006-2.561C357 290 357 290 358.836 288.189c3.052-1.677 4.882-1.117 8.164-.189"/>
        <path d="M364.125 403.125C367 404 367 404 369 407c.428 3.32.324 6.656.313 10l.048 2.773.002 2.664.01 2.434c-.465 2.655-1.229 3.534-3.373 5.129-5.13.641-5.13.641-7.66-1.225-2.633-3.488-1.808-8.071-1.777-12.275l-.061-2.918.002-2.8-.006-2.561C357 406 357 406 358.836 404.193 361 403 361 403 364.125 403.125"/>
        <path d="M406.125 171.125C409 172 409 172 411 174c.477 3.458.37 6.95.375 10.438l.074 2.931.012 2.815.025 2.58C411 195 411 195 409.166 196.808 407 198 407 198 403.876 197.875 401 197 401 197 399 194c-.45-3.13-.37-6.278-.375-9.437l-.074-2.604c-.03-6.277-.03-6.277 2.277-9.564C403 171 403 171 406.125 171.125"/>
        <path d="M405 228.563c3.335.486 4.027.817 6 3.438.372 2.236.372 2.236.363 4.816l-.002 2.814-.048 2.932.01 2.943c-.056 7.227-.056 7.227-2.323 9.494-6.23.567-6.23.567-8.698-1.25-1.618-2.174-1.688-3.367-1.7-6.058l-.012-2.514.035-2.615-.035-2.604c.017-3.659.04-6.248 1.746-9.529C402 229 402 229 405 228.563"/>
        <path d="M409 342c2.931 2.931 2.292 5.484 2.322 9.494l-.01 2.943.05 2.932.001 2.815.01 2.58C411 365 411 365 409.7 366.808 408 368 408 368 404.438 367.875 401 367 401 367 399 364c-.425-3.153-.324-6.322-.312-9.5l-.05-2.629-.001-2.527-.01-2.307c1.048-5.731 5.386-5.49 10.373-5.037"/>
    </g>
</svg>
