<?xml version="1.0" encoding="UTF-8"?>
<svg data-bbox="32.609 -1.089 446.895 513.78" height="512" width="512" xmlns="http://www.w3.org/2000/svg" data-type="shape">
    <g>
        <path d="m291 4 2.398.748C325.856 15.172 352.402 37.7 368 68c14.175 29.18 17.177 63.58 7.159 94.605-4.427 12.569-9.9 27.46-20.159 36.395-4.468.798-6.248.517-10-2.062-2-2.938-2-2.938-1.887-6.184.988-4.18 2.738-7.23 5.075-10.754 14.812-23.639 19.06-52.278 13.285-79.482C357.236 82.704 349.316 66.58 337 53l-1.555-2.016c-16.025-20.426-43.792-31.35-68.785-34.39-27.335-2.567-55.439 5.377-77.035 22.469A902 902 0 0 0 185 43l-1.969 1.496c-19.829 15.644-31.53 43.133-34.469 67.629C146.49 133.583 150.458 153.758 160 173l1.504 3.09c3.417 6.639 7.641 12.258 12.496 17.91l2.055 2.496c17.805 20.903 43.992 32.496 71.008 35.254q2.466.154 4.937.25l2.102.121c21.37.68 46.592-5.977 63.398-19.559 3.85-3.093 6.53-3.806 11.5-3.562 3.702 2.468 4.773 4.057 5.813 8.375-1.367 6.096-5.41 8.458-10.52 11.712C305.966 240.357 285.695 248 264 248v26l5.627-.027q26.264-.122 52.528-.18c9.001-.02 18.002-.049 27.004-.095q11.772-.06 23.545-.074c4.153-.006 8.306-.018 12.46-.047q5.873-.039 11.745-.03 2.146 0 4.293-.024c10.182-.104 18.709.742 26.673 7.54 8.086 9.042 7.769 20.722 7.875 32.125q.042 2.31.09 4.619c.073 3.73.123 7.461.16 11.193l2.237.759 2.962 1.034 2.925 1.009c9.626 4.01 16.62 11.87 20.688 21.26 4.315 10.627 4.53 21.889.118 32.516-2.876 6.042-6.2 10.692-10.93 15.422l1.723 1.25c12.915 9.66 20.944 21.658 23.277 37.75.286 4.16.328 8.305.336 12.473l.02 3.524q.015 3.668.015 7.334c.004 3.724.04 7.447.078 11.171q.009 3.579.012 7.158l.043 3.344c-.048 8.204-1.55 14.403-6.817 20.808-5.64 4.592-9.64 6.687-16.964 6.706l-2.092.02a494 494 0 0 1-6.783-.007l-4.756.012q-4.971.008-9.942-.022c-4.231-.022-8.462-.01-12.693.015-3.271.014-6.542.01-9.813 0q-2.34-.005-4.678.01c-17.202.08-17.202.08-23.99-6.51-.445-.652-.891-1.303-1.351-1.974l-1.398-1.964c-3.037-5.193-3.558-9.774-3.598-15.723-.01-.825-.018-1.649-.027-2.499a842 842 0 0 1-.028-5.214 549 549 0 0 0-.111-7.959q-.015-2.539-.022-5.078l-.059-2.393c.035-4.223.269-5.786 2.965-9.232 2.653-2 2.653-2 5.653-2.625 4.097.853 5.413 2.363 8 5.625.472 2.878.654 5.173.602 8.04l.024 2.31c.023 2.426.013 4.85-.001 7.275q-.008 3.648.02 7.296.02 2.265-.01 4.531c.005 3.975.005 3.975 1.698 7.471 3.368 2.176 6.36 2.212 10.252 2.238l3.47.03 3.75.012 3.852.017q4.038.015 8.075.02c3.442.006 6.884.03 10.326.058 3.29.023 6.581.025 9.872.03l3.737.038 3.489-.01 3.061.011c3.26-.43 5.141-1.44 7.783-3.367 1.188-2.376 1.145-3.867 1.177-6.519l.039-2.845.022-3.093.025-3.194q.02-3.36.032-6.72c.017-3.39.061-6.778.105-10.166.194-20.679.194-20.679-9.423-38.53-7.255-7.097-15.812-10.926-25.977-11.308-9.72.38-17.791 3.832-25 10.375a81 81 0 0 0-5.43 7.863c-1.723 2.345-2.837 3.2-5.57 4.137-3.352-.176-5.974-.437-8.937-2.062-1.866-3.402-1.995-6.275-1.063-9.938 4.1-7.385 10.291-15.146 18-19-1.333-2.882-2.864-5.177-4.875-7.625-7.142-9.342-8.903-19.87-8.125-31.375 1.8-10.36 7.547-20.63 16-27 5.497-3.231 10.714-5.843 17-7q-.066-6.458-.208-12.915-.042-2.193-.063-4.388c-.022-2.11-.068-4.22-.12-6.33l-.063-3.84c-.635-4.103-1.966-6.31-4.546-9.527-2.706-1.353-4.829-1.14-7.86-1.158l-3.781-.03-4.172-.017-4.375-.03q-5.95-.04-11.9-.068c-4.143-.022-8.286-.05-12.428-.076q-11.772-.074-23.545-.138-13.4-.076-26.8-.16-27.57-.17-55.139-.323l1 39 11 4c9.896 6.403 17.268 14.754 20.25 26.313 2.11 11.22.855 22.042-5.227 31.886-2.494 3.47-5 6.777-8.023 9.801l1.688 1.215C297.415 411.695 305.48 423.099 308 439c.285 4.211.304 8.41.3 12.629l.014 3.603q.008 3.753.002 7.506c-.003 3.816.02 7.632.045 11.448q.004 3.658.002 7.318l.028 3.435c-.044 7.617-1.022 13.142-5.016 19.748-8.203 7.988-16.899 8.032-27.793 7.907q-2.38-.003-4.761 0-4.966-.004-9.932-.052c-4.234-.04-8.466-.044-12.7-.037-3.27.004-6.542-.009-9.813-.026q-2.34-.01-4.683-.009a571 571 0 0 1-6.545-.05l-3.754-.026c-5.764-.67-10.225-3.445-14.394-7.394-3.686-5.294-5.114-9.846-5.161-16.22l-.03-3.159-.012-3.402-.017-3.529q-.014-3.702-.02-7.404c-.01-3.744-.04-7.487-.072-11.231q-.01-3.606-.016-7.211l-.038-3.354c.045-15.97 5.054-29.719 16.108-41.353 2.913-2.756 5.88-4.981 9.258-7.137l-1.355-1.398c-8.76-9.451-13.194-19.85-12.891-32.743.969-11.259 5.879-21.48 14.117-29.257C234.26 333.548 240.48 330.63 247 329l1-39c-19.21.018-38.42.056-57.631.132-8.92.035-17.84.06-26.76.064q-11.661.003-23.322.065c-4.116.02-8.233.033-12.35.025q-5.812-.01-11.624.042-2.133.012-4.265-.001c-1.943-.012-3.886.01-5.828.034l-3.293.008C99.035 291.208 97.523 293 95 296c-1.487 2.974-1.111 5.663-1.098 8.977l.005 2.076c.005 2.19.018 4.381.03 6.572q.009 2.226.014 4.453.017 5.46.049 10.922l2.257.778 2.977 1.05 2.945 1.028c10.61 4.301 17.42 13.336 21.876 23.53 3.918 10.833 2.44 22.202-2.055 32.614a83 83 0 0 1-5.414 7.879c-1.478 1.977-2.56 3.883-3.586 6.121l1.688 1.18c12.64 9.267 19.531 20.75 22.343 36.093-.039 3.403-1.035 5.016-3.031 7.727-2.585 1.961-3.788 2.013-7.062 1.813-3.213-.89-3.972-1.214-5.938-3.813a137 137 0 0 1-2.25-7.625c-2.89-9.908-7.405-16.688-16.367-22.156-8.856-4.53-17.814-5.595-27.445-3.094C65.719 415.245 59.035 420.696 54 429c-5.254 10.97-4.579 22.822-4.467 34.696.03 3.39.021 6.779.008 10.17q.01 3.24.025 6.482l-.008 3.061.038 2.845.016 2.492c.485 2.816 1.441 4.186 3.388 6.254 3.121 1.04 5.31 1.133 8.585 1.145l3.47.02 3.75.003 3.852.01q4.037.008 8.075.007c3.442 0 6.884.014 10.326.031 3.29.014 6.581.013 9.872.014l3.737.022 3.489-.01 3.061.005c2.973-.264 5.124-.904 7.783-2.247 1.855-3.71 1.29-8.49 1.342-12.615.144-3.866.429-6 2.451-9.393 2.331-2.104 3.13-2.657 6.207-2.555l2-.003c3.121.884 4.146 1.868 6 4.566.626 3.382.617 6.694.563 10.125l-.034 2.87c-.213 6.87-.875 12.638-5.529 18.005-5.66 5.308-10.002 7.11-17.791 7.209l-2.081.03c-2.273.03-4.546.05-6.82.07l-2.36.02q-6.194.048-12.387.076-5.104.028-10.21.103c-4.12.06-8.24.09-12.362.1q-2.344.013-4.69.057c-9.351.167-16.844-.274-24.299-6.665-6.133-7.36-6.308-14.766-6.3-23.941l-.014-3.513a1790 1790 0 0 1-.002-7.356c.003-3.715-.02-7.43-.045-11.145q-.004-3.587-.002-7.174l-.028-3.319c.096-16.463 4.845-29.365 16.133-41.38C51.644 405.38 54.61 403.165 58 401l-2.687-2.937c-7.561-8.813-11.72-18.865-11.524-30.512 1.095-13.238 6.598-23.087 16.613-31.637C65.235 332.353 70.22 330.416 76 329l.028-2.855q.069-5.32.18-10.64.041-2.287.063-4.576c.106-10.721.302-21.42 7.854-29.866 8.58-7.323 17.925-7.634 28.78-7.517q2.219.001 4.438-.002c3.987-.001 7.973.022 11.96.05 4.178.026 8.355.028 12.532.033 7.898.012 15.795.045 23.693.085 8.996.045 17.992.067 26.989.087 18.494.041 36.989.113 55.483.201v-26h-9c-32.308-4.428-62.135-21.613-81.937-47.5-20.614-27.692-29.232-60.164-24.844-94.523 4.669-31.776 21.64-61.817 47.468-81.246C193.222 14.913 207.869 7.478 224 3l3.371-.969C247.178-2.655 271.594-2.112 291 4M66.691 352.055c-5.043 5.8-7 12.276-6.691 19.945 1.401 7.133 4.51 13.306 10.375 17.75 6.276 4.127 12.229 4.983 19.625 4.25 6.983-1.58 11.891-5.247 16.25-10.937 3.868-6.77 4.922-12.989 3.168-20.583-2.336-6.943-6.288-11.505-12.418-15.48-10.983-4.776-21.595-3.36-30.309 5.055m170.227.566c-4.05 5.023-5.534 10.646-6.418 16.942 1.216 8.36 4.596 15.467 11.375 20.625 6.263 3.632 11.96 4.697 19.125 3.812 8.596-2.639 13.737-6.932 17.984-14.781 3.03-6.62 2.58-13.205.118-19.946-2.997-6.184-7.694-10.866-14.008-13.586-10.744-3.527-20.074-.852-28.176 6.934m171 .074c-4.561 5.481-6.67 11.959-6.305 19.078 1.177 6.777 4.582 12.422 9.387 17.227 6.65 4.673 13.009 5.844 21 5 8.243-2.392 13.638-7.396 17.984-14.7 2.539-5.75 2.676-11.969 1.016-17.988-2.517-6.354-6.893-11.43-12.875-14.75-11.197-4.823-21.541-2.241-30.207 6.133m-181.23 71.93c-7.975 12.069-7.313 25.581-7.21 39.498.022 3.463 0 6.924-.025 10.387q.004 3.31.016 6.619l-.025 3.128c-.008 5.537-.008 5.537 2.402 10.36 3.627 2.328 6.53 2.512 10.74 2.528l3.469.02 3.75.003 3.852.01q4.038.008 8.075.007c3.442 0 6.884.014 10.326.031 3.29.014 6.581.013 9.872.014l3.737.022 3.489-.01 3.061.005c3-.266 5.113-.862 7.783-2.247 2.156-3.234 2.255-4.13 2.275-7.864l.029-2.995-.003-3.239.013-3.345q.008-3.511.002-7.024c-.003-3.557.02-7.114.045-10.672q.004-3.417.002-6.834l.028-3.195c-.072-11.745-3.147-21.166-11.243-29.809-7.825-7.326-16.7-10.455-27.336-10.296-11.146 1.083-19.983 6.457-27.125 14.898"/>
        <path d="M266.02 45.267c3.376 1.726 6.685 3.55 9.98 5.42q1.83 1.015 3.664 2.026 3.781 2.087 7.553 4.194a580 580 0 0 0 11.112 5.991l3.527 1.869q3.306 1.749 6.617 3.488C326.248 77.742 326.248 77.742 329 86c.112 2.472.168 4.917.177 7.39l.02 2.272q.028 3.724.042 7.447l.012 2.573q.03 6.743.045 13.485c.01 4.635.045 9.269.085 13.904.026 3.57.034 7.14.038 10.711q.007 2.562.035 5.124c.024 2.396.023 4.79.016 7.187l.04 2.12c-.058 5.409-1.573 8.407-4.51 12.787-6.17 5.744-14.882 9.096-22.375 12.75q-3.744 1.843-7.484 3.695l-1.859.918c-5.357 2.655-10.637 5.44-15.907 8.262-17.97 9.497-17.97 9.497-28.375 7.375-3.306-1.202-6.344-2.768-9.437-4.438l-2.608-1.355A1006 1006 0 0 1 229 194q-2.389-1.252-4.78-2.5a1305 1305 0 0 1-9.317-4.918 520 520 0 0 0-10.586-5.445l-2.875-1.46a502 502 0 0 0-5.502-2.747c-6.12-3.125-10.67-6.124-12.94-12.93a179 179 0 0 1-.16-7.406l-.016-2.277q-.02-3.73-.027-7.462l-.017-5.19q-.014-5.443-.02-10.887c-.005-4.644-.03-9.287-.058-13.93q-.025-5.363-.025-10.725a868 868 0 0 0-.024-5.135 731 731 0 0 1-.009-7.194l-.028-2.13c.045-5.315 1.367-9.269 4.802-13.347 5.232-4.427 11.034-7.393 17.145-10.442q3.349-1.704 6.695-3.414l3.404-1.736c6.028-3.115 11.966-6.395 17.905-9.679 22.479-12.384 22.479-12.384 33.453-7.779m-19.46 18.46-2.192 1.167a1552 1552 0 0 0-6.93 3.73l-4.58 2.45A2658 2658 0 0 0 209 84v2l1.485.739q7.668 3.818 15.33 7.641l5.718 2.849q4.116 2.05 8.23 4.103l2.572 1.279 2.426 1.212 2.263 1.128C249 106 249 106 251.703 107.854c3.205 1.599 4.888 1.12 8.297.146a102 102 0 0 0 6.438-3.133l1.824-.954c1.917-1.005 3.828-2.021 5.738-3.038a4357 4357 0 0 1 5.63-2.962l3.73-1.964c6.495-3.42 13.061-6.694 19.64-9.95v-2l-2.946-1.556a37034 37034 0 0 1-15.697-8.3l-4.587-2.425q-2.25-1.191-4.503-2.379a445 445 0 0 1-15.091-8.356c-5.252-2.373-9.038.25-13.617 2.743M199 99v61c21.79 13.952 21.79 13.952 49 24v-61l-26-13c-12.083-6.389-12.083-6.389-17.214-9.175-2.091-1.034-2.091-1.034-5.786-1.825m108.098 1.836-2.42 1.212-2.615 1.327-2.689 1.354a1171 1171 0 0 0-20.928 10.87l-2.211 1.174-1.9 1.014c-3.423 1.779-6.883 3.487-10.335 5.213v61c3.755-1.252 6.863-2.306 10.306-4.031l2.396-1.194 2.529-1.275 2.643-1.322q2.754-1.379 5.504-2.764c2.809-1.414 5.62-2.82 8.433-4.227q2.68-1.342 5.357-2.687l2.548-1.275 2.367-1.194 2.079-1.045c2.079-1.077 2.079-1.077 4.838-2.986.44-2.666.44-2.666.341-5.827v-3.7l-.048-4.012q-.008-2.048-.012-4.094c-.012-3.594-.041-7.188-.075-10.782-.03-3.666-.044-7.333-.059-11Q313.097 109.794 313 99c-2.462 0-3.703.73-5.902 1.836"/>
    </g>
</svg>
