<?xml version="1.0" encoding="UTF-8"?>
<svg data-bbox="37.962 98.899 435.91 301.963" viewBox="0 0 512 512" height="682.667" width="682.667" xmlns="http://www.w3.org/2000/svg" data-type="shape">
    <g>
        <path d="M70 100.6c-15.7 4.2-27.9 17.6-30.9 33.8-1.5 8-1.5 223-.1 230.7 3.4 18 18.1 32.2 36 35 4.2.6 70.3.9 185.5.7l179-.3 5.6-2.3c12.2-4.9 21.1-13.8 26.2-26.2l2.2-5.5.3-112.5c.2-77.5 0-114.5-.8-118.8-1.5-9-5.6-16.8-12-23.3-6.3-6.3-11.2-9.2-19.7-11.4-8.6-2.2-362.9-2.1-371.3.1m367.9 15.9c.7.7-28.6 27.1-89.6 81-49.9 44-91.2 80.1-91.9 80.3-1.2.3-181.6-158.2-182.5-160.3-.2-.5 1-1.3 2.6-1.6 5.2-1.1 360.3-.5 361.4.6m-317.1 64.9c29.8 26.4 54.1 48.5 54 49.1-.2.6-26.8 31.4-59.3 68.3-38.9 44.4-59.2 66.7-59.7 65.9-.4-.6-.8-52.5-.8-115.2 0-111.5.1-114.1 2-118.4l2-4.3 3.8 3.3c2 1.9 28.1 25 58 51.3M456 134c1.3 4.6 1.4 229.7.1 230.4-1 .7-118.6-132.7-118.6-134.4 0-.6 25.9-23.9 57.5-51.9 62.5-55.3 58.7-52.5 61-44.1M223.3 271.9c15.3 13.5 28.9 25 30.3 25.5 1.5.6 3.3.6 4.9 0 1.4-.5 16.5-13.3 33.6-28.4 17.2-15.1 31.6-27.5 32-27.5.5 0 28.1 31 61.3 68.9 65.9 75.1 61.9 69.7 53.7 72.4-4.8 1.7-361.3 1.7-366.2.1-7.7-2.6-10.8 1.6 54.6-72.8l60.6-69.2 3.7 3.2c2 1.8 16.2 14.3 31.5 27.8"/>
    </g>
</svg>
