<?xml version="1.0" encoding="UTF-8"?>
<svg data-bbox="52.743 -0.525 406.52 512.922" height="512" width="512" xmlns="http://www.w3.org/2000/svg" data-type="shape">
    <g>
        <path d="m116.533-.267 3.104-.014c3.413-.012 6.826-.01 10.239-.01q3.682-.008 7.364-.02 8.944-.022 17.887-.023 7.27-.001 14.539-.011A29707 29707 0 0 1 213.16-.37h2.245c12.024 0 24.047-.018 36.07-.046q18.534-.044 37.067-.041c6.933 0 13.866-.005 20.799-.027q9.772-.029 19.544-.005 3.588.004 7.176-.014c3.262-.016 6.524-.007 9.786.009l2.876-.031c6.802.071 10.197 1.466 15.077 6.314l1.512 1.836A342 342 0 0 0 373.5 17a829 829 0 0 1 9.688 10.938c2.845 3.238 5.74 6.43 8.629 9.629a537 537 0 0 1 5.62 6.37c2.811 3.229 5.679 6.4 8.563 9.563a643 643 0 0 1 10.223 11.473A652 652 0 0 0 422.5 72a829 829 0 0 1 9.688 10.938A718 718 0 0 0 438.5 90c20.623 22.891 20.623 22.891 20.629 31.615l.01 3.563-.005 3.934.007 4.165q.008 5.736.005 11.471.001 6.181.01 12.363.01 12.119.011 24.237 0 9.853.006 19.707.013 27.939.013 55.877v6.093q0 24.432.023 48.862.02 25.087.02 50.173-.002 14.084.013 28.167.014 11.998.005 23.995-.007 6.118.005 12.235.011 5.61-.002 11.221c-.003 1.98.005 3.96.013 5.94-.07 18.35-4.78 35.712-17.392 49.601-14.06 13.385-29.207 19.106-48.268 19.042l-3.712.012q-5.07.011-10.137.004c-3.653-.003-7.305.006-10.957.014q-10.722.016-21.442.012-8.717-.002-17.435.004l-2.51.002-5.048.003q-23.652.015-47.305.003c-14.412-.005-28.825.006-43.237.025q-22.22.03-44.441.024c-8.31-.002-16.621 0-24.932.015q-10.613.018-21.225.001c-3.606-.006-7.213-.007-10.82.005-3.916.013-7.833.002-11.75-.01l-3.422.022C98.78 512.285 82.757 505.617 71 494c-14.946-16.914-18.157-34.184-18.134-55.915l-.006-4.895q-.008-6.71-.005-13.421c0-4.83-.006-9.658-.01-14.487q-.012-14.187-.012-28.372 0-11.533-.006-23.065-.013-32.71-.012-65.417V281.3q-.002-28.6-.023-57.203-.023-29.378-.02-58.757.001-16.49-.014-32.979-.014-14.04-.004-28.079.006-7.16-.006-14.32-.011-6.56.003-13.123.002-2.367-.006-4.732c-.066-19.79 3.646-38.197 17.384-53.326C83.414 6.135 98.355-.327 116.533-.267M92 29l-2.625 1.688c-9.716 9.46-14.087 21.194-14.468 34.573-.04 4.105-.045 8.208-.04 12.313l-.007 4.784q-.008 6.556-.005 13.113-.002 7.078-.01 14.156-.012 13.86-.012 27.722 0 11.268-.006 22.538-.013 31.961-.012 63.922v6.964q-.002 27.947-.023 55.893-.023 28.708-.02 57.415.001 16.112-.014 32.224a15786 15786 0 0 0-.004 27.437q.006 6.996-.006 13.991-.011 6.413.003 12.825.002 2.31-.006 4.623c-.056 16.503 1.434 31.524 13.279 44.073 9.809 8.666 20.38 11.203 33.146 11.134l3.638.016c3.31.012 6.62.01 9.931.003 3.579-.004 7.158.008 10.737.018 7.002.017 14.005.018 21.008.013q8.542-.006 17.083.003l2.46.002 4.946.005c15.45.013 30.902.008 46.352-.003 14.122-.01 28.243.003 42.364.026q21.774.037 43.546.028 12.216-.008 24.43.016 10.398.023 20.796-.002 5.3-.016 10.6.005c3.84.016 7.677.001 11.516-.016l3.35.029c9.748-.092 18.26-2.535 26.073-8.53l3-2.188c8.947-7.706 13.058-19.331 14-30.813.14-4.37.13-8.738.12-13.11l.003-3.98q.002-5.446-.007-10.892-.005-5.881-.002-11.762 0-10.182-.008-20.364-.01-14.72-.012-29.443-.004-23.885-.018-47.77-.015-23.2-.021-46.4v-2.89l-.005-14.354Q437.034 188.518 437 129l-3.218-.017q-15.03-.086-30.058-.218-7.727-.069-15.453-.111a3064 3064 0 0 1-14.92-.117q-2.841-.024-5.684-.034c-2.66-.01-5.318-.038-7.978-.07l-2.36.004c-5.137-.088-8.781-.987-13.329-3.437-2.05-3.075-2.252-3.722-2.278-7.195l-.034-2.587-.007-2.83-.03-2.986c-.031-3.263-.048-6.525-.065-9.788q-.028-3.39-.059-6.78a7457 7457 0 0 1-.128-17.86c-.04-6.072-.09-12.145-.141-18.218Q341.114 38.88 341 21a67634 67634 0 0 0-96.753-.164l-2.057-.003q-16.458-.02-32.916-.064-16.902-.042-33.805-.05c-6.325-.005-12.65-.014-18.975-.036a4273 4273 0 0 0-17.877-.022q-3.273 0-6.545-.018C117.5 20.57 104.591 20.763 92 29m271 11v67h59c-1.564-3.127-2.438-4.692-4.723-7.066l-1.616-1.703-1.723-1.793c-3.954-4.179-7.79-8.37-11.375-12.875-4.802-6-10.066-11.53-15.332-17.117a294 294 0 0 1-8.586-9.547 567 567 0 0 0-6.27-7.086l-2.164-2.418c-2.335-2.53-4.776-4.96-7.21-7.395"/>
        <path d="m135.4 280.372 3.17-.021c3.506-.018 7.01 0 10.516.018q3.77-.007 7.54-.022c6.117-.016 12.234-.01 18.352.008q7.458.021 14.916.015l2.146-.001 4.314-.004c12.715-.008 25.43.009 38.144.038q18.503.044 37.004.02a15802 15802 0 0 1 46.74.006q7.448.006 14.897-.005 10.027-.01 20.053.032 3.682.01 7.366 0c3.347-.009 6.694.007 10.042.03l2.953-.025c5.615.068 9.077.643 13.447 4.54 1.705 3.836 2.184 6.061 1.375 10.187-1.454 2.974-2.82 4.722-5.375 6.812-2.785.928-4.447 1.127-7.322 1.132l-2.69.011-2.958-.002-3.14.009q-5.234.01-10.468.011l-7.484.015q-10.183.02-20.367.024-6.358.005-12.715.012-17.598.019-35.196.026h-2.275l-2.281.001-4.576.001-2.293.001c-12.263.004-24.527.022-36.79.045q-18.881.035-37.762.037-10.603 0-21.206.025-9.97.024-19.94.01-3.664-.002-7.328.013c-3.328.013-6.656.007-9.985-.003l-2.945.024c-4.913-.036-8.307-.16-12.279-3.392-2.734-3.099-3.243-5.48-3.062-9.5.237-3.459 1.065-4.503 3.469-7.103 4.292-3.435 8.697-3.09 13.993-3.025"/>
        <path d="m136.204 228.619 3.143-.014c3.481-.012 6.961-.003 10.442.007q3.74-.006 7.48-.016c6.073-.012 12.146-.01 18.218-.002a7280 7280 0 0 0 16.937.003l4.282-.003c13.383-.008 26.767.001 40.15.018q17.224.018 34.446-.003a21110 21110 0 0 1 46.39-.01q7.393.004 14.787-.008 9.954-.013 19.908.015 3.656.006 7.312-.004c3.324-.008 6.647.002 9.97.017l2.932-.02c5.199.045 8.943.41 13.4 3.401 2.216 3.325 2.77 5.037 3 9-1.121 3.673-2.024 6.168-4.975 8.682-4.43 1.93-8.522 1.738-13.305 1.712l-3.168.019c-3.509.016-7.017.012-10.525.007q-3.77.01-7.54.026-9.18.028-18.362.023a8500 8500 0 0 0-19.225.017l-2.161.003c-13.49.019-26.98.018-40.469.01-12.34-.005-24.68.016-37.02.05q-19.01.05-38.017.043c-7.114-.002-14.228.003-21.342.028-6.689.024-13.377.02-20.066 0q-3.684-.005-7.37.016c-3.35.018-6.699.006-10.05-.015l-2.954.038c-4.45-.058-7.498-.218-11.04-3.073-2.854-3.06-3.348-3.745-3.662-7.899.27-3.965.782-5.623 3.25-8.687 4.699-3.845 9.423-3.42 15.204-3.381"/>
        <path d="m129.492 332.743 2.728-.02 2.984.01 3.18-.014c3.528-.013 7.055-.01 10.583-.01q3.786-.008 7.573-.02a7701 7701 0 0 1 18.456-.023q7.5-.001 15-.011a31530 31530 0 0 1 47.152-.025q18.603-.002 37.207-.047 19.098-.042 38.196-.04c7.15 0 14.298-.005 21.447-.027q10.082-.029 20.165-.005 3.705.004 7.41-.014a1062 1062 0 0 1 10.096.009l2.978-.031c4.25.043 6.698.135 10.409 2.345 2.637 2.958 3.339 5.279 3.944 9.18-.882 4.497-2.41 7.149-6 10-2.846.916-5.433 1.127-8.41 1.132l-2.674.011-2.923-.002-3.116.009q-5.184.01-10.369.011l-7.42.015q-10.092.02-20.182.024l-12.602.012q-17.445.019-34.892.026h-2.255l-2.26.001-4.535.002h-2.272c-12.153.004-24.306.022-36.458.045q-18.717.036-37.434.037-10.507 0-21.016.025-9.882.025-19.763.01-3.63-.001-7.259.013c-3.3.013-6.599.007-9.898-.003l-2.91.024c-5.203-.038-8.862-.458-13.352-3.392-2.443-2.932-2.966-4.688-3.375-8.5.402-3.748 1.035-5.574 3.375-8.5 2.914-1.786 5.097-2.25 8.492-2.257"/>
        <path d="m129.492 176.743 2.728-.02 2.984.01 3.18-.014c3.528-.013 7.055-.01 10.583-.01q3.786-.008 7.573-.02a7701 7701 0 0 1 18.456-.023q7.5-.001 15-.011a31530 31530 0 0 1 47.152-.025q18.603-.002 37.207-.047 19.098-.042 38.196-.04c7.15 0 14.298-.005 21.447-.027q10.082-.029 20.165-.005 3.705.004 7.41-.014a1062 1062 0 0 1 10.096.009l2.978-.031c4.25.043 6.698.135 10.409 2.345 2.637 2.958 3.339 5.279 3.944 9.18-.882 4.497-2.41 7.149-6 10-2.846.916-5.433 1.127-8.41 1.132l-2.674.011-2.923-.002-3.116.009q-5.184.01-10.369.011l-7.42.015q-10.092.02-20.182.024l-12.602.012q-17.445.019-34.892.026h-2.255l-2.26.001-4.535.002h-2.272c-12.153.004-24.306.022-36.458.045q-18.717.036-37.434.037-10.507 0-21.016.025-9.882.025-19.763.01-3.63-.001-7.259.013c-3.3.013-6.599.007-9.898-.003l-2.91.024c-5.203-.038-8.862-.458-13.352-3.392-2.443-2.932-2.966-4.688-3.375-8.5.402-3.748 1.035-5.574 3.375-8.5 2.914-1.786 5.097-2.25 8.492-2.257"/>
        <path d="m137.994 105.855 2.717-.01q4.438-.013 8.875-.013l6.184-.01q6.478-.009 12.957-.007c5.527 0 11.054-.014 16.58-.03q6.385-.016 12.771-.013 3.056-.002 6.112-.014c2.853-.01 5.705-.007 8.558 0l2.535-.018c4.945.027 9.067.516 13.717 2.26 2.931 3.231 3.906 5.23 4.438 9.563-.48 3.774-.959 5.558-3.438 8.437-5.588 2.978-10.139 3.433-16.404 3.388l-2.777.016c-3.013.014-6.025.005-9.037-.005l-6.31.008q-6.601.006-13.204-.016a2715 2715 0 0 0-16.896.011c-4.341.011-8.682.007-13.023 0q-3.114-.003-6.229.007c-2.905.008-5.81-.004-8.715-.02l-2.583.018c-5.344-.057-9.083-.882-13.822-3.407-2.514-2.92-2.963-4.658-3.375-8.5.4-3.73 1.103-5.554 3.375-8.5 5.332-3.554 10.79-3.148 16.994-3.145"/>
        <path d="m137.404 382.612 2.777-.016c3.013-.013 6.025-.004 9.037.006q3.156-.003 6.31-.009 6.601-.005 13.204.016a2715 2715 0 0 0 16.896-.01c4.341-.012 8.682-.008 13.023 0q3.114.004 6.229-.008c2.905-.007 5.81.004 8.715.021l2.583-.018c5.344.056 9.083.881 13.822 3.406 2.514 2.92 2.963 4.659 3.375 8.5-.4 3.73-1.103 5.555-3.375 8.5-5.336 3.558-10.802 3.149-17.01 3.145l-2.722.01q-4.444.013-8.89.013l-6.19.01q-6.485.009-12.97.007c-5.536 0-11.072.014-16.607.031a4674 4674 0 0 1-12.784.013q-3.06.001-6.123.013c-2.855.01-5.71.007-8.565.001l-2.546.017c-5.66-.03-10.453-.409-14.906-4.26-3.08-3.651-3.008-6.264-2.687-11 1.42-3.674 2.54-4.755 6.033-6.616 4.438-1.799 8.635-1.806 13.371-1.772"/>
    </g>
</svg>
