<?xml version="1.0" encoding="UTF-8"?>
<svg data-bbox="-0.513 56.491 513.006 398.812" height="512" width="512" xmlns="http://www.w3.org/2000/svg" data-type="shape">
    <g>
        <path d="m29.622 56.853 3.47-.022 3.796-.008 4.007-.02c4.383-.02 8.766-.031 13.148-.041l4.535-.012q10.657-.03 21.313-.042 12.279-.015 24.558-.077 9.505-.044 19.01-.048c3.78-.002 7.56-.011 11.34-.036q5.34-.034 10.68-.018c1.917.001 3.835-.018 5.752-.038 7.177.043 12.517.927 18.77 4.51l3.437 1.937c9.043 6.89 15.288 18.492 21.578 27.803 4.248 6.263 8.698 12.345 13.29 18.36 3.61 4.73 3.61 4.73 4.694 6.9l3.002.004q36.183.054 72.364.18c11.665.039 23.33.071 34.994.086q15.254.019 30.507.084c5.383.022 10.765.038 16.148.037q7.607 0 15.213.05 2.784.012 5.57.004c12.603-.033 22.855.515 32.449 9.644 9.633 10.491 9.043 22.953 8.949 36.418l-.009 4.733c-.007 4.12-.027 8.239-.05 12.359-.02 4.217-.029 8.433-.039 12.65q-.033 12.375-.098 24.75l3.833-.063c4.75-.073 9.501-.119 14.252-.157q3.068-.03 6.136-.082c15.583-.259 29.115.026 41.78 10.302l1.894 1.52c7.094 6.352 11.67 15.672 12.379 25.133q.06 2.142.101 4.285l.114 2.072c.19 11.607-6.657 22.764-11.757 32.851l-1.84 3.677a3353 3353 0 0 1-3.936 7.839 6062 6062 0 0 0-6.261 12.472q-4.962 9.902-9.937 19.796c-5.91 11.758-11.81 23.52-17.708 35.284q-3.09 6.16-6.186 12.32c-6.549 13.024-13.049 26.066-19.283 39.245a589 589 0 0 1-8.456 17.131l-1.039 2.052c-2.828 5.36-5.43 9.4-11.304 11.443-6.559 1.499-13.331 1.156-20.02 1.134q-2.337.003-4.675.01c-4.27.008-8.54.004-12.811-.002-4.61-.005-9.22.002-13.83.008q-13.542.011-27.084 0-11.008-.006-22.017-.002h-3.166l-6.368.003q-29.856.006-59.712-.012-25.605-.013-51.21.002a70012 70012 0 0 1-65.832.007l-3.154-.001q-10.99-.002-21.98.006-13.401.009-26.802-.007-6.835-.009-13.669 0-6.262.007-12.526-.008a959 959 0 0 0-4.518.003c-13.513.04-27.17-.293-37.408-10.26-5.114-6.671-8.245-12.606-8.257-21.18l-.02-3.714.01-4.055q-.006-2.164-.014-4.327c-.012-3.96-.012-7.92-.01-11.88.001-4.271-.01-8.544-.02-12.816-.016-8.368-.021-16.736-.023-25.104q-.001-10.204-.011-20.407a58391 58391 0 0 1-.025-61.012v-3.155q-.002-25.306-.046-50.613-.045-25.987-.041-51.974c0-9.725-.005-19.451-.027-29.177q-.028-12.42-.009-24.842c.007-4.224.007-8.447-.01-12.671q-.023-5.805.004-11.609.005-2.096-.011-4.19C-.594 81.032 1.278 73.131 9 64.792c6.108-5.475 12.515-7.905 20.622-7.94M30 88v281c2.526-3.367 4.125-6.126 5.864-9.898l1.665-3.593 1.784-3.884 1.877-4.055q1.95-4.209 3.892-8.418a4415 4415 0 0 1 7.94-17.075l2.583-5.535q4.67-10.009 9.376-20.003l1.017-2.16q2.543-5.399 5.09-10.794a2130 2130 0 0 0 9.604-20.608l1.76-3.828q1.615-3.518 3.213-7.044C92.609 236.98 99.05 226.368 115 220c6.6-2.014 12.642-2.29 19.516-2.278l3.461-.018c3.817-.017 7.634-.02 11.451-.023l8.22-.03q8.842-.032 17.683-.047 12.782-.024 25.565-.069 20.742-.067 41.482-.113 20.145-.045 40.288-.104l2.51-.008 12.466-.037c34.453-.104 68.906-.191 103.358-.273v-69c-3.038-1.52-6.191-1.132-9.524-1.118l-2.38-.002c-2.647-.001-5.294.005-7.94.01h-5.677q-6.125-.002-12.251.003c-6.464.003-12.928-.006-19.392-.018l-3.305-.006-6.693-.013c-15.052-.028-30.104-.048-45.156-.03q-15.22.017-30.441-.033c-5.369-.017-10.737-.023-16.105-.004q-7.587.026-15.173-.022-2.775-.01-5.548.012c-11.503.087-21.262-.493-30.377-8.504-1.904-1.966-3.443-4.048-5.038-6.275l-1.247-1.73a870 870 0 0 1-7.487-10.606c-3.833-5.5-7.774-10.92-11.725-16.335a279 279 0 0 1-9.248-13.561c-1.186-1.905-1.186-1.905-3.293-2.768a82 82 0 0 0-4.82-.127l-3.085-.008-3.397.006-3.568-.006a4598 4598 0 0 0-9.7 0q-5.07.003-10.139 0-8.514-.003-17.028.005-9.852.007-19.703-.002-8.45-.007-16.9-.003-5.05.003-10.1-.001-5.63-.003-11.257.007l-3.397-.006-3.085.008-2.69.001c-2.184-.01-2.184-.01-4.13 1.126m90 164c-1.577 2.35-2.826 4.485-4.062 7l-1.133 2.221c-4.949 9.84-9.488 19.883-14.086 29.89-3.188 6.927-6.44 13.824-9.695 20.72a6468 6468 0 0 0-18.824 40.27 9828 9828 0 0 1-10.012 21.524l-.857 1.838a5466 5466 0 0 1-10.772 22.955l-1.123 2.38a8957 8957 0 0 1-5.458 11.55l-1.97 4.172-.925 1.949C39.62 421.123 39.62 421.123 39 424h361c7.811-14.782 7.811-14.782 15.403-29.672l1.358-2.712 2.79-5.585q2.071-4.15 4.15-8.296c4.068-8.132 8.099-16.275 11.986-24.494 4.985-10.538 10.168-20.966 15.434-31.365q1.899-3.751 3.794-7.505l2.56-5.066 1.291-2.556a4466 4466 0 0 1 6.603-13.013q3.256-6.392 6.477-12.801 1.219-2.415 2.453-4.823a783 783 0 0 0 3.388-6.706l1.024-1.967c2.125-4.308 2.76-7.66 2.29-12.439-2.194-3.525-4.164-5.485-8-7-2.789-.301-2.789-.301-5.895-.257l-3.676-.02-4.044.01-4.291-.014c-3.936-.012-7.871-.012-11.807-.01-4.243 0-8.486-.01-12.728-.02q-12.472-.023-24.943-.023-10.134-.001-20.27-.011a57543 57543 0 0 0-60.573-.025h-3.133c-16.76 0-33.52-.019-50.28-.047q-25.803-.042-51.604-.04c-9.66 0-19.321-.005-28.981-.027a6384 6384 0 0 0-24.673-.009c-4.198.007-8.395.007-12.592-.01q-5.762-.023-11.525.004-2.085.005-4.17-.012c-9.781-.28-9.781-.28-17.816 4.511"/>
    </g>
</svg>
