<?xml version="1.0" encoding="UTF-8"?>
<svg data-bbox="9.757 17.717 484.774 476.835" height="512" width="512" xmlns="http://www.w3.org/2000/svg" data-type="shape">
    <g>
        <path d="m99.836 18.714 2.444 1.02 2.85 1.16 3.014 1.286 3.23 1.33c3.486 1.44 6.962 2.903 10.438 4.365a6157 6157 0 0 0 7.327 3.035 5272 5272 0 0 1 14.837 6.166c8.883 3.704 17.792 7.342 26.705 10.975 4.412 1.8 8.822 3.608 13.233 5.414a34625 34625 0 0 0 46.368 18.931q2.85 1.164 5.7 2.332a823 823 0 0 0 13.11 5.267l2.388.945q2.181.862 4.374 1.694c3.845 1.532 6.1 2.743 8.146 6.366.089 2.715.089 2.715-.298 5.874l-.384 3.619-.424 3.937c-3.46 34.22-3.46 34.22 9.398 64.766 10.715 12.581 23.679 23.364 36.848 33.268C311 202 311 202 312 204c.108 2.796.155 5.568.158 8.365l.015 2.653q.021 4.426.032 8.854l.03 6.325q.04 8.61.068 17.219c.022 5.992.05 11.984.076 17.977q.074 17.032.138 34.063.076 19.385.16 38.77.17 39.888.323 79.774a406 406 0 0 0 4.44-4.195l2.498-2.36c3.327-3.945 3.122-7.484 2.874-12.445q0-2.782.035-5.563l.032-2.773c1.282-28.32 19.374-53.936 38.12-73.664l1.727-1.922C381.301 295.075 410.037 282.082 437 280c7.341-.23 15.012-.412 22 2.062 3.74 3.623 4.083 9.287 4.3 14.313q.03 2.312.012 4.625l-.017 2.505C462.684 335.063 446.178 361.714 425 384l-1.727 1.922c-16.286 17.539-41.154 29.931-64.523 34.015l-1.998.353c-3.506.52-6.664.716-10.22.463-7.052-.436-11.866-.294-17.774 3.829-11.858 10.533-11.858 10.533-16.87 25.045-.162 3.907-.117 7.79-.021 11.697q.004 2.439-.006 4.878c-.007 3.935.049 7.864.139 11.798l2.768-.011q33.325-.134 66.65-.196c10.743-.021 21.487-.05 32.23-.095q14.044-.061 28.088-.074c4.958-.006 9.917-.018 14.876-.047q6.997-.04 13.996-.03 2.571 0 5.142-.024a532 532 0 0 1 7.011-.004l3.967-.011c3.808.573 4.982 1.458 7.272 4.492.531 2 .531 2 .5 4l.031 2c-.798 3.003-2.081 4.096-4.531 6-2.732.392-5.06.538-7.79.503l-2.405.018c-2.676.015-5.35 0-8.026-.013q-2.897.006-5.793.019c-5.32.017-10.639.008-15.958-.004-5.732-.01-11.463.005-17.194.016-11.234.018-22.467.014-33.7.002q-13.69-.013-27.38-.006l-3.93.002-7.905.004c-24.022.011-48.045 0-72.067-.021q-32.91-.029-65.82.001a54033 54033 0 0 1-81.787.014l-3.915-.002q-13.68-.003-27.358.012-16.662.018-33.324-.013c-5.671-.01-11.342-.015-17.014-.001q-7.779.016-15.558-.016a751 751 0 0 0-5.645.007c-2.547.012-5.094 0-7.641-.019l-2.24.029c-3.256-.048-5.257-.338-7.994-2.153-2.04-3.12-2.13-5.233-2.244-8.954l-.078-2.007a528 528 0 0 1-.186-6.69 1898 1898 0 0 1-.538-18.153c-.101-3.808-.216-7.615-.33-11.423-1.082-36.357-1.665-72.727-2.136-109.097q-.093-7.132-.191-14.265l-.049-3.58c-.266-18.98-.792-37.942-1.421-56.912a2194 2194 0 0 1-1.132-58.723c-.075-10.963-.265-21.895-.775-32.847-1.802-39.969-2.361-74.53 25.552-105.722 11.196-12.154 23.402-23.37 36.026-34.02l2.244-1.901a318 318 0 0 1 6.365-5.161l1.852-1.534c5.514-4.215 10.698-4.343 17.321-2.676M101 39v439h31l.018-10.42a96084 96084 0 0 1 .25-109.398q.052-19.973.082-39.947.033-20.485.098-40.969.041-12.646.051-25.294.009-8.664.046-17.328.022-5.004.02-10.008c-.002-3.612.015-7.223.036-10.835l-.015-3.216.029-2.921.006-2.528c.474-2.676 1.25-3.489 3.379-5.136a150 150 0 0 1 7.96-3.484l2.44-1.007c2.655-1.094 5.315-2.176 7.975-3.26l5.58-2.291A5245 5245 0 0 1 177 183l2.558-1.04q10.44-4.247 20.891-8.471c15.883-6.418 31.716-12.953 47.55-19.49V98l-17.937-7.25c-28.561-11.554-57.082-23.209-85.597-34.878l-3.06-1.252q-7.186-2.94-14.374-5.884a9247 9247 0 0 0-12.04-4.922 2255 2255 0 0 1-5.351-2.196l-2.738-1.117-2.207-.906c-1.71-.704-1.71-.704-3.695-.594M51.817 72.495c-23.253 23.734-23.728 49.583-23.463 81.363.092 7.053.327 14.1.572 21.149.357 10.53.425 21.057.48 31.592.107 18.774.43 37.537.897 56.305a4051 4051 0 0 1 1.044 57.998q.096 8.493.187 16.985C32.039 384.6 32.914 431.298 34 478h50V47c-8.874 0-25.888 19.306-32.183 25.495m196.042 99.055-2.546 1.04-2.778 1.152-2.924 1.198q-4.777 1.962-9.549 3.935l-6.611 2.715q-6.827 2.802-13.65 5.612c-9.459 3.893-18.926 7.764-28.394 11.634l-8.366 3.425-2.646 1.084-4.805 1.968c-5.519 2.259-11.053 4.472-16.59 6.687v266h146c3.243-32.081 3.243-32.081-6.438-44.625-7.772-6.017-13.962-6.728-23.495-6.364-19.352-.1-38.979-14.745-52.372-27.261-15.734-16.054-26.383-37.215-26.945-59.938.322-10.528.322-10.528 2.25-13.812 10.722-5.917 24.404-3.522 35.765-.387 24.726 7.626 44.545 25.685 57.2 47.824 6.368 12.064 9.37 23.815 10.264 37.343.16 2.083.455 4.155.77 6.22l3 2a4137 4137 0 0 0 2.073-79.678c.205-12.343.484-24.674.945-37.01 5.504-58.677 5.504-58.677-14.635-111.046-7.961-8.395-17.637-16.66-28.382-21.266-3.01 0-4.412.427-7.14 1.55M380 323l-2.866 2.367C359.964 340.201 345.78 361.687 341 384c-.256 3.418-.256 3.418 0 6 5.782-4.798 11.078-9.964 16.363-15.3l2.646-2.658q4.863-4.887 9.719-9.78 4.783-4.817 9.573-9.625l2.553-2.58 2.358-2.367 2.076-2.092c2.315-2.161 3.392-2.57 6.587-2.848 3.498.28 4.75.7 7.125 3.25 1.058 2.873 1.172 4.43.286 7.365-1.512 3.097-3.29 5-5.736 7.425l-2.79 2.79-3.018 2.97q-1.545 1.536-3.085 3.073a2821 2821 0 0 1-8.118 8.044c-2.768 2.736-5.526 5.481-8.285 8.225A7942 7942 0 0 1 353 402c9.527 2.884 22.428-4.349 30.75-8.688 8.097-4.358 15.248-9.354 22.25-15.312l2.699-2.242c19.206-16.53 33.807-40.451 37.3-65.758.263-4.363.274-8.64 0-13-24.604-1.318-47.608 10.62-66 26m-178 16c.459 20.024 10.183 36.158 24 50l2.298 2.332C236.463 399.165 246.388 405.06 257 409l3-1-2.555-2.539q-4.68-4.654-9.353-9.314-2.025-2.018-4.054-4.033-2.91-2.895-5.816-5.794l-1.84-1.824c-5.276-5.276-5.276-5.276-5.632-9.371.25-3.125.25-3.125 1.25-5.5 2.531-2.057 4.618-2.373 7.85-2.19 2.577.677 3.771 1.63 5.732 3.424l2.097 1.92c4.51 4.316 8.926 8.724 13.32 13.158l2.927 2.94A5235 5235 0 0 1 271 396c1.217-3.653.375-4.94-1.248-8.293l-1.065-2.082-1.098-2.157c-10.497-19.935-28.02-35.667-49.703-42.44-5.403-1.448-10.295-2.41-15.886-2.028"/>
    </g>
</svg>
