<?xml version="1.0" encoding="UTF-8"?>
<svg data-bbox="44.541 -0.55 423.018 512.451" height="512" width="512" xmlns="http://www.w3.org/2000/svg" data-type="shape">
    <g>
        <path d="m169.591-.508 2.328-.019c2.577-.016 5.152-.003 7.73.01q2.768-.009 5.538-.022a2441 2441 0 0 1 15.05.002c5.245.01 10.49 0 15.737-.006q13.215-.009 26.43.021c10.19.022 20.381.015 30.572-.007q13.116-.026 26.232-.01c5.225.006 10.45.007 15.674-.006q7.367-.017 14.735.02 2.706.008 5.413-.006c2.46-.01 4.919.003 7.378.023l2.173-.027c3.298.052 5.15.344 7.863 2.278 1.77 2.569 2.05 3.788 2.037 6.876l.016 2.796-.043 3.045.002 3.223a1300 1300 0 0 1-.066 10.551q-.01 3.657-.017 7.315c-.015 6.418-.054 12.836-.099 19.254-.04 6.549-.059 13.097-.079 19.646A11796 11796 0 0 1 354 113c1.053-.006 2.107-.012 3.193-.02q14.898-.09 29.796-.135a4265 4265 0 0 0 15.318-.07c4.927-.033 9.855-.05 14.783-.059q2.82-.008 5.64-.032a904 904 0 0 1 7.9-.024l2.353-.032c4.511.025 7.493.475 11.017 3.373 1.874 3.033 2.255 5.347 2.278 8.885l.034 2.974.007 3.243.03 3.43c.03 3.745.048 7.49.065 11.234l.058 7.785q.069 9.2.117 18.401c.038 6.985.088 13.969.138 20.953q.154 21.547.273 43.095l2-1c7.03-.459 7.03-.459 10 2 2.754 6.3 4.013 12.55 5.125 19.312l.511 2.936c7.845 46.297-.238 95.514-22.636 136.752l-1.066 2.006C426.166 425.749 405.149 450.188 380 469l-1.699 1.293c-9.557 7.255-19.667 13.17-30.301 18.707l-2.025 1.07C299.838 514.177 247.422 518.06 198 503c-28.665-9.053-54.272-23.353-77-43l-2.828-2.434A282 282 0 0 1 111 451l-2.664-2.504C101.127 441.521 95 434.016 89 426l-1.261-1.65c-34.036-44.645-48.453-102.703-41.49-158.225C49.82 239.953 49.82 239.953 55 236c2.74-1.37 4.972-1.126 8-1l2 1c1.046-6 1.146-11.84 1.143-17.92l.01-3.265q.011-3.495.016-6.99.013-5.527.042-11.056c.052-10.476.1-20.952.116-31.428q.017-9.621.08-19.242.02-3.667.016-7.333c-.002-3.412.02-6.822.048-10.234l-.02-3.068c.091-6.82.091-6.82 2.395-10.06 4.26-2.776 8.309-2.54 13.206-2.518h2.484q4.067.002 8.133.016l5.637.005q7.42.006 14.84.024 7.57.014 15.142.02 14.856.016 29.713.049l-.011-1.691a11887 11887 0 0 1-.197-40.737q-.028-9.85-.094-19.7-.063-9.503-.078-19.005-.011-3.629-.043-7.258c-.03-3.383-.033-6.766-.031-10.15l-.044-3.044.017-2.796-.011-2.425c1.446-6.45 6.38-6.773 12.083-6.702M175 16v284c18.238 7.817 18.238 7.817 37 14l.01-1.91c.043-6.553.112-13.106.197-19.66q.042-3.669.064-7.339c.021-3.515.068-7.03.12-10.544l.003-3.318.06-3.093.027-2.719c.716-3.337 1.728-4.458 4.519-6.417a45 45 0 0 1 7.55-.518l2.288-.02c2.492-.018 4.982-.007 7.474.007q2.6-.004 5.2-.012 5.447-.008 10.895.021c4.654.023 9.307.01 13.962-.014 3.579-.014 7.158-.01 10.737 0q2.574.005 5.148-.01c2.399-.01 4.796.006 7.195.028l2.147-.024c3.269.056 5.14.357 7.841 2.253 1.851 2.712 2.076 4.163 2.109 7.425l.06 3.093.003 3.318.05 3.413c.049 3.597.07 7.193.09 10.79q.044 3.659.09 7.316c.075 5.978.124 11.956.16 17.934 12.51-4.17 24.727-9.178 37-14V16zM84 130c-.18 14.713-.18 14.713-.356 29.426a31520 31520 0 0 1-.217 18.11l-.036 2.926-.073 5.837c-.06 4.857-.108 9.712-.134 14.569-.05 8.488-.134 16.953-.573 25.431a629 629 0 0 0-.414 10.453 148 148 0 0 1-.282 4.833c-.78 8.5-.78 8.5 2.406 16.13C88.114 261.46 92.469 264.241 97 267q1.68 1.11 3.348 2.237C114.434 278.605 140.568 294 158 294V130zm270 0v164c22.722-6.817 46.1-15.293 65-30l2.448-1.546c5.392-3.65 5.392-3.65 8.462-9.196.32-3.283.328-6.435.225-9.733l.004-3.727a524 524 0 0 0-.125-10.052c-.063-3.51-.069-7.02-.08-10.53-.032-6.638-.114-13.274-.214-19.91-.123-8.303-.178-16.605-.232-24.908-.097-14.8-.298-29.598-.488-44.398zM64 263c-4.658 29.485-2.32 59.402 6 88l.569 1.992c6.72 23.055 18.354 45.344 33.43 64.008l2.278 2.89A165 165 0 0 0 121 436c5 5 5 5 6.492 6.547C138.928 454.277 152.658 463.233 167 471l1.962 1.073c15.251 8.246 31.262 14.263 48.1 18.364l3.06.749c6.94 1.598 13.773 2.4 20.878 2.814-9.906-22.002-25.865-41.154-42.486-58.423a356 356 0 0 1-3.69-3.913c-7.514-7.884-16.445-14.526-25.574-20.414-2.947-2.026-4.824-3.448-6-6.875-.272-3.663-.393-5.376 1.75-8.375 3.125-1.563 3.125-1.563 7-2 11.213 3.738 21.31 14.14 29.816 22.027a92 92 0 0 0 4.762 4.004c2.142 1.741 3.841 3.427 5.61 5.531 2.75 3.232 5.595 6.343 8.5 9.438 9.34 10.275 17.272 21.59 24.66 33.329 2.36 3.746 4.798 7.269 7.652 10.67 2.71-7.332 4.292-14.762 5.735-22.428.39-2.068.79-4.134 1.19-6.2 5.525-28.695 6.333-59.335-9.175-85.121-22.565-33.279-64.572-43.897-100.582-56.253-29.193-10.03-55.905-21.32-79.32-41.888-2.984-3.04-2.984-3.04-6.848-4.11m377.812 3.812c-25.414 23.197-56.666 34.179-88.673 45.172C304.768 326.7 304.768 326.7 267 358c.426 3.774 2.345 7.285 3.813 10.75 15.08 36.631 7.547 76.127-1.15 113.329-.973 4.29-1.832 8.6-2.662 12.92 46.96-5.524 88.992-23.991 122.562-57.562q2.354-2.356 4.762-4.656C400.968 426.367 406.63 419.48 412 412l1.25-1.738c24.221-34.07 36.961-74.652 36.937-116.387l.002-3.56c-.056-9.226-.75-18.207-2.19-27.315-3.03 0-4.023 1.743-6.187 3.812M229 275l-.75 23.5-.331 7.373c-.643 10.797-.643 10.797 3.577 20.237 3.088 2.017 6.112 3.458 9.504 4.89 2.88 2.199 5.373 4.778 7.968 7.305 2.528 2.417 4.776 4.359 8.032 5.695.536-.594 1.072-1.189 1.625-1.8 7.487-7.919 7.487-7.919 12.425-10.294 4.638-2.32 8.812-4.679 11.95-8.906 2.608-7.844 1.49-16.593 1-24.688L283 275z"/>
        <path d="m281.719 38.434 2.835-.019q2.96-.01 5.92.009c3.017.014 6.03-.02 9.046-.058q2.88-.002 5.762.005l2.724-.04c4.18.062 6.455.333 10.062 2.585 2.743 4.379 2.634 7.983 2.561 13.057l.007 2.91q0 3.036-.039 6.074c-.034 3.1-.02 6.196-.001 9.295q-.01 2.955-.03 5.909l.016 2.806c-.118 6.414-.118 6.414-2.492 9.586-4.246 2.94-8.06 2.626-13.078 2.65-1.343.01-1.343.01-2.713.018q-2.846.014-5.692.02c-2.897.01-5.794.04-8.69.072q-2.766.01-5.53.016l-2.62.037c-4.739-.018-7.933-.253-11.767-3.366-1.158-2.316-1.15-3.714-1.193-6.294l-.048-2.69c-.045-4.058-.086-8.115-.109-12.173a638 638 0 0 0-.082-6.425 714 714 0 0 1-.091-9.254l-.069-2.9c.02-6.492.02-6.492 2.518-9.863 4.319-1.967 8.094-1.993 12.793-1.967M284 56v20h19V56z"/>
        <path d="m206.719 38.371 2.835-.007q2.96 0 5.92.039c3.016.034 6.03.02 9.046.001q2.88.01 5.761.03l2.725-.016c3.856.073 6.527.368 10.065 1.986 2.99 4.024 2.607 7.801 2.523 12.69v2.98a549 549 0 0 1-.052 6.234 632 632 0 0 0-.034 9.54q-.015 3.03-.039 6.058v2.882l-.049 2.69-.025 2.36c-.502 2.75-1.498 4.13-3.395 6.162-2.684.895-4.268 1.134-7.025 1.161l-2.437.03-2.624.012-2.709.017q-2.835.015-5.674.02c-2.888.01-5.775.04-8.664.072q-2.757.01-5.515.016l-2.611.037c-4.73-.017-7.912-.26-11.74-3.365-1.146-2.29-1.15-3.64-1.194-6.187l-.048-2.62c-.045-3.956-.086-7.912-.109-11.868a604 604 0 0 0-.082-6.259 677 677 0 0 1-.091-9.023l-.069-2.82c.014-4.278.216-6.62 2.518-10.311 4.315-2.683 7.802-2.615 12.793-2.541M209 56v20h19V56z"/>
        <path d="m280.84 181.469 2.906-.012q3.04-.003 6.08.022c3.097.021 6.192 0 9.29-.026q2.955.004 5.911.016l2.8-.025c3.92.057 6.66.323 10.257 1.959 2.97 4.026 2.613 7.81 2.545 12.691l.007 2.98a541 541 0 0 1-.039 6.234c-.034 3.181-.02 6.36-.001 9.54q-.01 3.03-.03 6.058l.016 2.883c-.118 6.566-.118 6.566-2.43 9.78-4.366 2.904-8.713 2.608-13.765 2.634l-2.567.018q-2.69.014-5.38.02c-2.732.01-5.463.04-8.196.072q-2.616.01-5.232.015l-2.463.038c-4.914-.02-8.292-.633-12.549-3.366-1.16-2.32-1.144-3.71-1.177-6.294l-.039-2.69-.022-2.914-.025-2.99q-.02-3.135-.032-6.269c-.017-3.198-.061-6.395-.105-9.593q-.015-3.042-.026-6.086l-.053-2.9c.013-3.815.054-6.48 1.89-9.866 4.048-2.186 7.898-1.969 12.429-1.929M284 199v20h19v-20z"/>
        <path d="m206.973 181.371 2.91-.007q3.036 0 6.074.039c3.1.034 6.196.02 9.295.001q2.955.01 5.909.03l2.806-.016c3.723.069 6.315.191 9.615 1.986 2.245 4.11 1.989 8.08 1.95 12.69l.011 2.98q.005 3.117-.021 6.234c-.022 3.18 0 6.359.025 9.54q-.004 3.03-.015 6.058l.024 2.882c-.093 6.568-.093 6.568-2.401 9.78-4.385 2.914-8.734 2.593-13.803 2.6l-2.574.01q-2.697.007-5.392.007c-2.743.002-5.486.02-8.23.04l-5.242.005-2.478.022c-4.212-.017-7.675-.119-11.436-2.252-2.058-3.088-2.257-3.798-2.306-7.3l-.048-2.62-.017-2.822-.027-2.911q-.022-3.048-.027-6.098c-.012-3.106-.061-6.21-.112-9.315q-.014-2.964-.021-5.926l-.06-2.81c.03-4.256.252-6.606 2.53-10.284 4.383-2.716 7.995-2.616 13.061-2.543M209 199v20h19v-20z"/>
        <path d="m282.613 109.797 2.567-.017q2.69-.014 5.379-.02c2.733-.01 5.464-.04 8.197-.072q2.616-.01 5.232-.016l2.463-.037c4.914.019 8.292.633 12.549 3.365 1.145 2.29 1.15 3.64 1.193 6.187l.048 2.62c.045 3.956.086 7.912.109 11.868q.024 3.13.082 6.259c.055 3.008.076 6.015.091 9.023l.069 2.82c-.014 4.278-.216 6.62-2.518 10.312-4.315 2.682-7.802 2.614-12.793 2.54l-2.835.007a488 488 0 0 1-5.92-.039c-3.016-.034-6.03-.02-9.046-.001q-2.88-.01-5.762-.03l-2.724.016c-3.855-.073-6.526-.367-10.062-1.986-2.993-4.02-2.63-7.801-2.561-12.69l-.007-2.98q0-3.117.039-6.234c.034-3.18.02-6.359.001-9.54q.01-3.03.03-6.058l-.016-2.882c.117-6.567.117-6.567 2.43-9.78 4.366-2.905 8.713-2.609 13.765-2.635M284 127v20h19v-20z"/>
        <path d="m207.613 109.797 2.567-.017q2.69-.014 5.379-.02c2.733-.01 5.464-.04 8.197-.072q2.616-.01 5.232-.016l2.463-.037c4.914.019 8.292.633 12.549 3.365 1.158 2.317 1.15 3.714 1.193 6.295l.048 2.69c.045 4.057.086 8.115.109 12.172q.025 3.213.082 6.425c.055 3.085.076 6.169.091 9.254l.069 2.901c-.02 6.491-.02 6.491-2.518 9.863-4.319 1.967-8.094 1.992-12.793 1.967l-2.835.018q-2.96.01-5.92-.008c-3.017-.014-6.03.02-9.046.058q-2.88 0-5.762-.006l-2.724.04c-4.18-.062-6.455-.332-10.062-2.585-2.743-4.378-2.634-7.983-2.561-13.057l-.007-2.909q0-3.038.039-6.074c.034-3.1.02-6.196.001-9.296q.01-2.955.03-5.908l-.016-2.806c.117-6.392.117-6.392 2.43-9.586 4.356-2.93 8.71-2.625 13.765-2.651M209 127v20h19v-20z"/>
        <path d="m381.309 146.664 2.436-.02q2.546-.015 5.09-.015c2.59-.004 5.18-.04 7.769-.078q2.477-.009 4.955-.012l2.336-.044c3.748.032 5.886.364 9.07 2.409 3.67 3.78 3.196 7.233 3.203 12.244l.01 2.452q.008 2.57.008 5.14c.002 2.618.02 5.235.039 7.854l.006 4.992.022 2.37c-.03 7.168-.03 7.168-2.253 10.044-3.637 2.803-8.135 2.341-12.527 2.371-.826.01-1.652.018-2.503.027a846 846 0 0 1-5.232.027c-2.663.012-5.323.062-7.986.112q-2.545.015-5.091.022l-2.403.059c-3.992-.033-5.855-.351-9.264-2.612-2.672-4.028-2.669-6.935-2.552-11.666l.007-2.506q.015-2.613.064-5.227c.05-2.664.062-5.327.067-7.992q.021-2.544.05-5.088l.016-2.408c.156-7.266.156-7.266 2.354-10.12 3.605-2.758 7.967-2.322 12.309-2.335M384 164v15h15v-15z"/>
        <path d="M380.879 213.406h2.573q2.685.008 5.368.052c2.737.042 5.472.04 8.21.034q2.61.015 5.224.039h2.475c3.311.07 5.813.221 8.755 1.81 3.323 3.635 2.71 8.238 2.754 12.87l.025 2.44q.02 2.554.032 5.109c.017 2.598.061 5.196.105 7.794q.016 2.485.026 4.97l.053 2.345c-.015 3.677-.352 5.918-2.256 9.098-4.127 3.774-8.5 3.204-13.875 3.236l-2.234.017q-2.334.015-4.667.02c-2.373.01-4.745.04-7.117.072q-2.272.01-4.545.016l-2.137.037c-4.4-.02-7.162-.648-10.648-3.365-2.548-3.822-2.341-6.994-2.371-11.43l-.027-2.507q-.022-2.625-.027-5.25a554 554 0 0 0-.112-8.012q-.015-2.553-.022-5.106l-.059-2.412c.033-3.991.35-5.877 2.598-9.29 4.083-2.695 7.107-2.683 11.899-2.587M384 231v15h15v-15z"/>
        <path d="m109.844 213.336 2.566-.014q2.677-.006 5.355.026c2.727.027 5.45 0 8.177-.032q2.607.005 5.215.02l2.459-.03c4.024.082 5.969.418 9.398 2.697 2.654 4.004 2.694 6.916 2.615 11.622l.007 2.499a378 378 0 0 1-.039 5.214 398 398 0 0 0-.001 7.959q-.01 2.539-.03 5.078l.016 2.393c-.082 3.84-.349 5.844-2.367 9.209-4.083 3.73-8.337 3.182-13.648 3.191l-2.167.01q-2.263.008-4.526.007c-2.3.003-4.6.02-6.9.04l-4.407.006-2.071.021c-4.93-.023-8.54-.506-12.279-3.844-1.795-3.553-1.685-7.04-1.686-10.935l-.023-2.503q-.015-2.616-.009-5.232c.001-2.663-.04-5.323-.085-7.986q-.008-2.546-.008-5.092l-.05-2.402c.05-3.979.381-5.86 2.629-9.258 4.062-2.694 7.081-2.724 11.859-2.664M113 231v15h15v-15z"/>
        <path d="m110.113 146.762 2.444-.024q2.564-.021 5.127-.033c2.608-.017 5.214-.061 7.822-.105q2.49-.016 4.982-.025l2.355-.054c3.768.015 5.922.329 9.126 2.38 3.649 3.771 3.207 7.218 3.234 12.213l.017 2.444q.014 2.564.02 5.127c.01 2.607.04 5.214.072 7.821q.01 2.49.016 4.983l.037 2.355c-.018 4.564-.508 7.54-3.365 11.156-3.296 1.648-6.962 1.206-10.586 1.239l-2.586.024q-2.711.021-5.422.032c-2.764.018-5.526.062-8.29.106q-2.632.015-5.265.025l-2.503.053c-5.75-.022-5.75-.022-8.839-2.38-2.878-4.001-2.702-7.427-2.748-12.212l-.024-2.444q-.021-2.564-.032-5.127a757 757 0 0 0-.106-7.822q-.015-2.49-.025-4.982l-.053-2.355c.015-3.768.328-5.922 2.38-9.126 3.764-3.643 7.223-3.222 12.212-3.269M113 164v15h15v-15z"/>
    </g>
</svg>
