<?xml version="1.0" encoding="UTF-8"?>
<svg data-bbox="31.48 15.25 433.04 481.281" height="512" width="512" xmlns="http://www.w3.org/2000/svg" data-type="shape">
    <g>
        <path d="m207.482 207.596 2.695-.02c2.907-.019 5.814-.015 8.722-.01l6.126-.015q6.402-.013 12.804.003c5.443.011 10.884-.009 16.327-.038 4.214-.018 8.428-.018 12.642-.012q3.007 0 6.016-.019c10.707-.057 20.24-.008 30.186 4.515l3.332 1.492c14.608 8.144 23.445 19.71 28.71 35.666 1.014 4.066 1.281 7.854 1.294 12.014l.02 2.312q.015 2.41.015 4.82c.004 2.426.04 4.85.078 7.274.097 13.214-2.017 23.542-11.449 33.422-4.515 4.31-8.883 7.153-14.797 9.2l-2.964 1.037L305 320l-.004 2.675q-.055 32.197-.18 64.396c-.04 10.38-.072 20.76-.087 31.141q-.019 13.569-.084 27.138a2907 2907 0 0 0-.037 14.373q0 6.762-.05 13.524-.012 2.484-.004 4.968c.007 2.258-.01 4.516-.035 6.774l-.011 3.833c-.597 3.735-1.538 4.914-4.508 7.178-2 .531-2 .531-4 .5l-2 .031c-2.973-.79-4.098-2.13-6-4.53-.492-3.18-.492-3.18-.481-7.012l-.01-2.139c-.007-2.364.015-4.728.037-7.093q.001-2.542-.002-5.086c-.001-4.603.023-9.205.05-13.808.025-4.81.028-9.62.033-14.43.012-9.11.045-18.218.085-27.327.045-10.37.067-20.74.087-31.11.042-21.332.112-42.664.201-63.996l-2.25.027q-10.506.12-21.012.18c-3.6.021-7.2.05-10.801.095q-5.213.063-10.427.078c-1.97.01-3.94.042-5.909.073l-3.639.001-3.203.027c-3.449-.601-4.614-1.773-6.759-4.48-.531-2-.531-2-.5-4l-.031-2c.785-2.956 2.16-4.097 4.531-6 3.002-.506 3.002-.506 6.554-.515l1.967-.022c2.143-.019 4.285-.01 6.428-.003q2.247-.015 4.492-.036c3.944-.032 7.887-.042 11.831-.047a3059 3059 0 0 0 18.882-.092c2.187-.012 4.374-.012 6.561-.01 14.054.02 14.054.02 26.285-6.276 7.155-7.214 8.139-14.769 8.188-24.625-.06-14.01-2.343-25.98-12.168-36.555-9.87-8.895-21.48-10.925-34.363-10.965l-2.078-.01q-3.362-.013-6.723-.013l-4.73-.01q-4.943-.009-9.887-.007c-4.196 0-8.391-.014-12.587-.031q-4.88-.015-9.763-.013-2.317 0-4.636-.013c-12.802-.059-24.797-.05-35.253 8.242-9.66 9.863-10.18 21.786-10.187 34.875l-.038 3.145c-.016 8.896.404 16.865 6.225 23.98 5.979 5.93 12.341 7.392 20.356 9.121 2.644.88 2.644.88 4.644 3.88a86 86 0 0 1 .267 7.318l.014 2.276c.013 2.525.011 5.049.01 7.573q.008 2.71.02 5.42c.018 4.913.022 9.826.024 14.74q.003 6.147.016 12.294.023 14.499.02 28.998c-.002 9.98.02 19.96.051 29.94q.038 12.84.036 25.684c0 5.116.005 10.232.026 15.349q.029 7.215.005 14.432-.003 2.65.015 5.302c.015 2.41.006 4.817-.01 7.227l.032 2.128c-.048 3.38-.32 5.054-2.432 7.75-2.272 1.702-3.292 2.112-6.094 2.068l-2 .031c-2.972-.79-4.096-2.131-6-4.53-.508-3.18-.508-3.18-.519-7.012l-.023-2.139c-.02-2.364-.012-4.728-.004-7.093q-.014-2.542-.031-5.086c-.028-4.603-.031-9.205-.03-13.808-.004-4.81-.03-9.62-.052-14.43-.041-9.11-.061-18.218-.074-27.327-.016-10.37-.055-20.74-.095-31.11A29678 29678 0 0 1 191 320l-2.24-.763-2.963-1.038-2.927-1.013c-9.473-3.915-17.045-12.29-21.038-21.643-2.829-8.116-2.428-16.594-2.353-25.085.021-2.886 0-5.77-.026-8.655-.026-16.834 3.162-28.945 14.86-41.553 9.321-8.822 20.485-12.724 33.169-12.654"/>
        <path d="m362.598 223.467 1.983-.026c2.16-.023 4.32-.016 6.482-.007q2.268-.007 4.537-.019 4.762-.014 9.523.009a933 933 0 0 0 12.11-.041c3.128-.023 6.256-.02 9.384-.013q2.229.001 4.458-.02c14.5-.123 25.342 3.515 35.925 13.65 12.32 12.655 17.304 28.285 17.29 45.623.008 1.247.014 2.494.021 3.778q.023 5.098.024 10.196.003 3.191.01 6.382.03 11.15.026 22.3c-.001 6.912.02 13.824.051 20.736q.039 8.926.036 17.853c0 3.547.005 7.094.026 10.64.023 3.957.014 7.913.002 11.87l.034 3.53c-.06 7.85-1.166 13.265-6.484 19.335l-1.973 1.632-1.965 1.68c-4.74 3.266-8.703 3.677-14.41 3.57l-3.8-.054L433 416l-.01 2.858q-.056 13.33-.174 26.662-.062 6.854-.087 13.707c-.015 4.41-.05 8.818-.097 13.227a607 607 0 0 0-.024 5.048c-.002 2.356-.029 4.71-.062 7.067l.015 2.11c-.072 3.375-.358 5.063-2.47 7.752-2.27 1.703-3.29 2.112-6.09 2.068l-2 .032c-3.014-.8-4.096-2.065-6-4.532a51 51 0 0 1-.509-8.046l-.018-2.477c-.016-2.743-.004-5.484.009-8.227q-.009-2.947-.021-5.893c-.019-5.339-.012-10.677.001-16.016.01-5.582 0-11.165-.006-16.747-.007-9.375.003-18.75.022-28.125.022-10.845.015-21.69-.007-32.535a9077 9077 0 0 1-.01-27.913q.01-8.34-.007-16.68-.015-7.841.02-15.681.007-2.88-.005-5.761c-.011-2.618.002-5.234.022-7.852l-.027-2.314c.052-3.509.268-5.386 2.442-8.202 2.27-1.66 3.316-2.074 6.093-2.03l2-.032c3.079.818 4.089 1.962 6 4.531.606 3.18.543 6.327.515 9.555l.021 2.933c.02 3.2.011 6.401.003 9.602a3721 3721 0 0 0 .036 6.673c.033 5.86.043 11.718.047 17.577.009 9.375.044 18.75.092 28.124.013 3.275.012 6.55.01 9.826l.021 6.027-.013 2.76c.028 4.362.058 8.023 2.268 11.923 2.799 1.4 4.905 1.253 8 1 2.56-1.853 2.98-2.937 4-6 .093-1.508.13-3.02.134-4.532l.013-2.815-.001-3.084.01-3.253c.01-3.562.011-7.124.012-10.687l.01-7.434q.008-7.807.008-15.613c-.001-6.648.013-13.295.03-19.942q.016-7.688.013-15.373.002-3.675.013-7.348c.01-3.44.007-6.882.001-10.323l.017-3.028c-.064-14.606-2.894-28.26-13.197-39.193-7.261-6.558-14.492-8.484-24.188-8.516l-3.6-.022-3.845-.012-6.021-.054c-4.934-.045-9.868-.083-14.802-.096q-4.163-.013-8.327-.057a637 637 0 0 0-7.832-.038l-3.581-.05-3.148-.017c-3.402-.641-4.59-1.84-6.719-4.513-.53-2-.53-2-.5-4l-.03-2c1.536-5.787 5.775-6.505 11.128-6.533"/>
        <path d="m86.734 223.566 4.578-.016q4.775-.012 9.551.004c4.078.011 8.155-.01 12.233-.038 3.145-.019 6.29-.018 9.435-.013q2.256 0 4.512-.018a413 413 0 0 1 6.295.013h3.615c3.647.6 4.817 1.614 7.047 4.502.53 2 .53 2 .5 4l.03 2c-.777 2.929-2.202 4.094-4.53 6-2.699.505-2.699.505-5.82.514l-3.55.04-3.83-.015-5.982.054c-2.794.022-5.588.025-8.382.028q-7.302.014-14.605.075-3.883.03-7.766.027c-12.138.071-20.045 1.607-28.944 10.062-10.794 11.353-12.441 25.725-12.38 40.779l-.01 3.291c-.01 3.547-.004 7.094.003 10.64q-.002 3.724-.006 7.447-.003 7.77.01 15.54c.012 6.64.006 13.28-.006 19.92q-.009 7.672 0 15.346.002 3.675-.005 7.348c-.005 3.415.003 6.83.014 10.245l-.012 3.062c-.033 6.55-.033 6.55 2.27 12.597 2.8 1.399 4.906 1.252 8 1 2.56-1.854 2.98-2.938 4-6 .092-1.375.13-2.753.132-4.13l.012-2.545-.002-2.782.011-2.938q.011-3.16.016-6.32.012-4.998.042-9.997c.052-9.476.1-18.951.116-28.427q.017-8.69.08-17.38.02-3.315.016-6.63c-.002-3.09.02-6.177.048-9.265l-.02-2.776c.091-6.194.091-6.194 2.458-9.376 2.261-1.55 3.376-1.977 6.092-1.934l2-.032c3.013.8 4.095 2.065 6 4.532.392 2.813.54 5.234.508 8.046l.018 2.477c.016 2.743.004 5.484-.009 8.227q.009 2.947.021 5.893c.019 5.339.012 10.677-.001 16.016-.01 5.582 0 11.165.005 16.747.008 9.375-.002 18.75-.02 28.125-.023 10.845-.016 21.69.006 32.535q.028 13.956.01 27.913-.01 8.34.007 16.68.015 7.841-.02 15.681-.008 2.88.005 5.762a665 665 0 0 1-.022 7.85l.027 2.315c-.053 3.509-.268 5.386-2.442 8.202-2.27 1.66-3.316 2.074-6.093 2.03l-2 .032c-2.989-.794-4.096-2.106-6-4.531a44 44 0 0 1-.546-7.431c-.01-.742-.02-1.484-.032-2.248-.029-2.446-.03-4.891-.032-7.337q-.022-2.547-.05-5.095c-.044-4.465-.064-8.93-.079-13.395-.02-4.558-.061-9.116-.101-13.674-.076-8.94-.126-17.88-.16-26.82l-2.907.052-3.816.041-3.782.053c-6.947-.291-10.759-3.095-15.37-8.084-3.84-4.491-5.371-8.564-5.393-14.474l-.026-3.253.003-3.539-.02-3.751q-.023-5.087-.024-10.173a3497 3497 0 0 0-.01-6.372q-.03-11.139-.026-22.278a4457 4457 0 0 0-.051-20.683q-.039-8.907-.036-17.814c0-3.538-.005-7.076-.026-10.613-.024-3.958-.014-7.916-.002-11.874l-.034-3.49c.125-16.377 6.772-31.697 18.063-43.526 11.446-10.354 22.267-12.695 37.191-12.656"/>
        <path d="M403.313 119.313c10.24 7.733 18.727 17.597 20.688 30.687 1.429 17.446-1.183 30.354-12.657 43.965-8.006 8.63-18.292 13.703-30 14.352-16.686.56-28.674-3.106-41.094-14.629-9.992-10.559-12.764-22.106-12.67-36.218.412-14.122 6.258-25.198 16.483-34.876 16.657-13.702 41.2-15.26 59.25-3.281M351.001 140c-5.96 8.778-6.799 16.461-6 27 1.843 8.129 6.408 14.883 13.312 19.57 8.612 4.959 17.785 6.06 27.582 3.747 9.884-3.659 15.501-9.953 20.106-19.317 2.753-8.075 1.905-18.12-1.68-25.753-4.522-7.694-10.622-13.047-19.176-15.856-13.242-2.412-25.155.382-34.144 10.61"/>
        <path d="M147.313 119.313c10.24 7.733 18.727 17.597 20.688 30.687 1.429 17.446-1.183 30.354-12.657 43.965-8.006 8.63-18.292 13.703-30 14.352-16.686.56-28.674-3.106-41.094-14.629-9.992-10.559-12.764-22.106-12.67-36.218.412-14.122 6.258-25.198 16.483-34.876 16.657-13.702 41.2-15.26 59.25-3.281M95.001 140c-5.96 8.778-6.799 16.461-6 27 1.843 8.129 6.408 14.883 13.312 19.57 8.612 4.959 17.785 6.06 27.582 3.747 9.884-3.659 15.501-9.953 20.105-19.317 2.754-8.075 1.906-18.12-1.68-25.753-4.521-7.694-10.621-13.047-19.175-15.856-13.242-2.412-25.155.382-34.145 10.61"/>
        <path d="M275.313 103.313c10.24 7.733 18.727 17.597 20.688 30.687 1.429 17.446-1.183 30.354-12.657 43.965-8.006 8.63-18.292 13.703-30 14.352-16.686.56-28.674-3.106-41.094-14.629-9.992-10.559-12.764-22.106-12.67-36.218.412-14.122 6.258-25.198 16.483-34.876 16.657-13.702 41.2-15.26 59.25-3.281m-52.312 20.688c-5.96 8.777-6.799 16.46-6 27 1.843 8.128 6.408 14.882 13.312 19.57 8.612 4.958 17.785 6.06 27.582 3.746 9.884-3.659 15.501-9.953 20.106-19.317 2.753-8.075 1.905-18.12-1.68-25.753-4.522-7.694-10.622-13.047-19.176-15.856-13.242-2.412-25.155.382-34.144 10.61"/>
        <path d="M334.418 21.508C343.221 27.848 349.837 36.234 352 47c1.338 12.417.275 23.39-7.187 33.75-6.813 8.085-15.118 14.313-25.884 15.473-12.911.896-23.68-.67-33.863-9.25-8.518-8.132-13.068-16.78-13.537-28.608C271.374 45.85 274.192 36.227 283 27c13.78-13.155 35.105-15.665 51.418-5.492m-42.191 21.648C288.294 49.067 288.3 55.121 289 62c1.773 6.645 6.447 11.174 12 15 5.999 2.94 12.883 3.099 19.313 1.383 6.128-2.705 10.927-7.791 13.859-13.773 1.906-6.007 1.892-13.113-.672-18.922-3.48-5.933-8.936-10.62-15.5-12.688-11.724-1.426-18.307 1.314-25.773 10.156"/>
        <path d="M206.418 21.508C215.221 27.848 221.837 36.234 224 47c1.338 12.417.275 23.39-7.187 33.75-6.813 8.085-15.118 14.313-25.884 15.473-12.911.896-23.68-.67-33.863-9.25-8.518-8.132-13.068-16.78-13.537-28.608C143.374 45.85 146.192 36.227 155 27c13.78-13.155 35.105-15.665 51.418-5.492m-42.191 21.648C160.294 49.067 160.3 55.121 161 62c1.773 6.645 6.447 11.174 12 15 5.999 2.94 12.883 3.099 19.313 1.383 6.128-2.705 10.927-7.791 13.859-13.773 1.906-6.007 1.892-13.113-.672-18.922-3.48-5.933-8.936-10.62-15.5-12.688-11.724-1.426-18.307 1.314-25.773 10.156"/>
        <path d="M204 253c3.585 2.228 4.28 4.741 5.375 8.625l.523 2.352c.984 2.299.984 2.299 3.788 3.194 3.6.9 5.803.769 9.436.122l3.602-.617 3.854-.703q2.002-.346 4.005-.689c4.226-.724 8.446-1.471 12.667-2.221 4.882-.867 9.765-1.723 14.652-2.558 1.941-.337 3.88-.69 5.819-1.042 9.511-1.637 18.206-2.767 26.459 3.014 4.543 3.802 8.054 7.8 9.82 13.523a93 93 0 0 1 .375 8.063l.074 2.142c.02 3.444-.19 5.434-2.222 8.26-2.344 1.615-3.42 2.079-6.227 2.035l-2 .031c-2.961-.786-4.136-2.127-6-4.531-.758-2.91-.758-2.91-1.125-6.062-.576-4.756-.576-4.756-2.875-8.938-3.882-1.276-7.047-.876-11.024-.18l-3.612.617-3.88.688q-2.007.344-4.016.684c-5.67.963-11.336 1.95-17.002 2.939q-5.21.908-10.424 1.786c-1.952.334-3.9.681-5.85 1.029-8.948 1.512-17.028 2.321-25.27-2.196-5.116-3.639-9.008-8.373-10.922-14.367-.59-4.835-.912-9.367 1.5-13.687 3.567-1.873 6.558-2.085 10.5-1.313"/>
        <path d="m248 375.5 2-.031c3.13.831 4.08 1.88 6 4.531.617 3.55.546 7.077.518 10.672l.02 3.292c.018 3.596.007 7.19-.007 10.786q.005 3.744.012 7.487.009 7.848-.022 15.697c-.021 6.046-.014 12.092.008 18.138.02 5.82.018 11.64.006 17.46q-.004 3.713.01 7.425c.01 3.458-.005 6.914-.027 10.371l.024 3.111c-.083 6.927-.083 6.927-2.45 10.195-2.256 1.473-3.42 1.908-6.092 1.866l-2 .031c-3.13-.831-4.08-1.88-6-4.531-.617-3.55-.546-7.077-.518-10.672l-.02-3.292c-.018-3.596-.007-7.19.007-10.786q-.005-3.744-.012-7.487-.008-7.848.022-15.697c.021-6.046.014-12.092-.008-18.138-.02-5.82-.018-11.64-.006-17.46q.004-3.713-.01-7.425c-.01-3.458.005-6.914.027-10.371l-.024-3.111c.083-6.927.083-6.927 2.45-10.195 2.256-1.473 3.42-1.908 6.092-1.866"/>
        <path d="m376 415.5 2-.031c2.972.79 4.097 2.132 6 4.531.508 3.188.508 3.188.518 7l.02 2.11a509 509 0 0 1-.007 6.89l.012 4.797q.008 5.024-.022 10.047c-.022 4.29-.01 8.58.015 12.872.014 3.301.01 6.602 0 9.903q-.005 2.373.01 4.746c.01 2.212-.006 4.423-.028 6.635l-.01 3.813c-.596 3.742-1.533 4.919-4.508 7.187-2 .531-2 .531-4 .5l-2 .031c-2.972-.79-4.097-2.132-6-4.531-.508-3.187-.508-3.187-.518-7l-.02-2.11a509 509 0 0 1 .007-6.89l-.012-4.797q-.008-5.024.022-10.047c.022-4.29.01-8.58-.015-12.872-.014-3.301-.01-6.602 0-9.903q.005-2.373-.01-4.746c-.01-2.212.006-4.423.028-6.635l.01-3.812c.784-4.92 3.41-7.768 8.508-7.688"/>
        <path d="m120 415.5 2-.031c2.972.79 4.097 2.132 6 4.531.508 3.188.508 3.188.518 7l.02 2.11a509 509 0 0 1-.007 6.89l.012 4.797q.008 5.024-.022 10.047c-.022 4.29-.01 8.58.015 12.872.014 3.301.01 6.602 0 9.903q-.005 2.373.01 4.746c.01 2.212-.006 4.423-.028 6.635l-.01 3.813c-.596 3.742-1.533 4.919-4.508 7.187-2 .531-2 .531-4 .5l-2 .031c-2.972-.79-4.097-2.132-6-4.531-.508-3.187-.508-3.187-.518-7l-.02-2.11a509 509 0 0 1 .007-6.89l-.012-4.797q-.008-5.024.022-10.047c.022-4.29.01-8.58-.015-12.872-.014-3.301-.01-6.602 0-9.903q.005-2.373-.01-4.746c-.01-2.212.006-4.423.028-6.635l.01-3.812c.784-4.92 3.41-7.768 8.508-7.688"/>
    </g>
</svg>
