<?xml version="1.0" encoding="UTF-8"?>
<svg data-bbox="30.52 8.277 450.912 495.307" height="512" width="512" xmlns="http://www.w3.org/2000/svg" data-type="shape">
    <g>
        <path d="M143.928 225.643a546 546 0 0 0 6.463 4.154A953 953 0 0 1 163 238l3.12 2.043c6.572 4.424 11.418 7.959 13.254 16.02.675 3.617.504 6.364-.375 9.937 13.478-.035 25.955-2.512 39.043-5.625 10.859-2.567 22.569-4.63 32.957.625a61 61 0 0 1 3.188 2.813L257 266c3.932-.974 7.577-2.63 11.302-4.208 14.758-6.193 26.495-7.277 41.565-1.131q2.92 1.247 5.829 2.523c5.8 2.482 10.996 3.548 17.304 3.816l-.687-2.437c-.426-4.856.466-8.249 2.687-12.563 5.244-5.766 12.053-9.809 18.625-13.875l5.84-3.66 2.855-1.781c4.739-2.976 9.416-6.046 14.098-9.11 5.553-3.385 11.257-3.133 17.582-2.574 10.187 2.808 15.508 15.304 20.537 23.658 3.48 5.774 7.083 11.452 10.776 17.092 4.546 6.95 9.049 13.926 13.5 20.938A7006 7006 0 0 0 454 306.5l4.02 6.282a9466 9466 0 0 0 5.97 9.32q2.852 4.447 5.698 8.898l1.709 2.659A534 534 0 0 1 476 341l1.483 2.406c3.753 6.37 4.591 11.211 3.517 18.594-3.144 10.986-17.357 16.775-26.394 22.207-5.342 3.218-10.566 6.604-15.785 10.016-4.694 2.958-7.245 4.028-12.883 3.902l-3.16-.054L420 398h-3l.48 1.75c2.068 8.953-.393 17.716-4.8 25.617-5.207 7.54-12.035 10.96-20.781 13.14-4.645.789-9.206.737-13.899.492l-.187 2.5c-1.766 7.605-6.499 13.082-12.813 17.5-6.051 3.1-12.351 3.115-19 3l-.937 3.875c-2.527 7.509-8.19 14-15.188 17.75-6.98 2.632-16.786 2.572-23.875.375l-.687 2.063c-3.388 7.581-8.29 12.878-16.028 16.05-15.256 4.119-29.003-.963-42.211-8.382-4.298-2.598-4.298-2.598-9.074-3.73-1.945 1.086-1.945 1.086-3.75 2.75-7.086 5.642-13.474 7.012-22.437 6.003-6.16-1.037-11.195-3.526-15.813-7.754a99 99 0 0 1-2.75-4.875c-1.298-2.393-1.298-2.393-3.25-4.125-3.332-.537-6.32-.37-9.683-.14-7.428.315-13.826-2.43-19.606-6.977-2.016-2.219-2.818-4.284-3.898-7.07-1.045-2.658-1.045-2.658-2.813-4.813-3.25-1.263-6.34-1.817-9.777-2.382-7.225-1.384-12.137-5.887-16.746-11.422-2.608-3.878-4.477-8.47-4.477-13.196l-2.273.176c-7.712.34-13.426-.523-19.727-5.176-6.26-6.325-8.327-13.248-9.047-21.964.081-5.224 1.514-10.07 3.047-15.036l-1.71.477c-9.781 2.237-16.442-.953-24.727-5.945a392 392 0 0 1-7.25-4.72l-2.604-1.72q-2.61-1.727-5.219-3.458a342 342 0 0 0-6.943-4.423C32.846 365.612 32.846 365.612 31 359c-1.62-9.288.981-15.34 6-23q1.18-1.847 2.356-3.696a959 959 0 0 1 5.539-8.543c3.31-5.059 6.554-10.158 9.793-15.262q7.633-12.014 15.312-24a9482 9482 0 0 0 15.125-23.687l1.711-2.684q4.483-7.034 8.903-14.109l1.876-2.99a1034 1034 0 0 0 3.505-5.624c9.965-15.84 9.965-15.84 17.74-18.05 10.035-1.667 16.978 2.986 25.068 8.287m-22.725 7.846c-2.918 3.327-5.14 6.935-7.453 10.699l-3.21 5.148-1.73 2.777c-3.19 5.09-6.44 10.144-9.685 15.2a8313 8313 0 0 0-15.25 23.875l-1.73 2.72a57380 57380 0 0 0-13.726 21.597 1111 1111 0 0 1-8.693 13.505c-1.49 2.272-2.97 4.55-4.452 6.827a862 862 0 0 1-3.209 4.866l-1.96 3.016-1.745 2.654c-1.502 2.903-1.99 5.397-2.36 8.627 7.21 5.543 14.702 10.375 22.495 15.046 4.726 2.837 9.293 5.778 13.681 9.126 2.654 1.205 4.117.8 6.824-.172 1.707-1.618 1.707-1.618 3.063-3.875l1.82-2.77L96 369l2.555-4.011a2159 2159 0 0 0 6.012-9.535c3.734-5.945 7.52-11.856 11.308-17.766a8000 8000 0 0 0 16.83-26.37 4218 4218 0 0 1 11.413-17.842 4009 4009 0 0 0 8.008-12.541c1.788-2.8 3.594-5.588 5.402-8.376q1.55-2.435 3.097-4.871l1.454-2.208c1.439-2.21 1.439-2.21 2.921-5.48-1.09-3.357-2.726-4.79-5.683-6.593l-2.286-1.417-2.468-1.49-5.149-3.171-2.69-1.647a569 569 0 0 1-8.138-5.135l-2.615-1.674q-2.503-1.603-5.002-3.214l-2.285-1.455-2.014-1.292c-2.519-1.375-3.245-1.263-5.467.577m261.067 4.531-2.16 1.334-2.297 1.459-2.381 1.484A1134 1134 0 0 0 348 260c.274 6.947 3.394 11.386 7.188 17.063l3.863 5.922 1.999 3.037c2.99 4.566 5.905 9.18 8.825 13.79a9183 9183 0 0 0 17.162 26.867q5.672 8.856 11.306 17.736a2909 2909 0 0 0 16.907 26.335l1.954 3.017 1.812 2.78 1.602 2.464c1.366 2.091 1.366 2.091 3.382 3.99 5.627-.15 9.326-2.816 13.813-5.876l4.492-2.988 2.327-1.56c4.628-3.08 9.325-6.055 14.01-9.047 3.886-2.5 3.886-2.5 7.358-5.53-.17-5.532-2.672-9.092-5.687-13.5l-3.024-4.55-1.624-2.432c-2.886-4.364-5.677-8.786-8.477-13.205l-3.59-5.649-1.808-2.846a11402 11402 0 0 0-25.806-40.463 2727 2727 0 0 1-9.898-15.546l-1.894-2.996q-1.755-2.777-3.5-5.559c-2.536-4.01-5.118-7.988-7.84-11.875l-1.373-1.978c-3.058-2.896-6.142-1.299-9.21.619M244 296l-1.9 1.776c-12.964 12.18-27.148 27.004-30.225 45.287-.164 3.85-.164 3.85 1.5 6.562 4.102 2.149 7.226 1.493 11.625.375 19.668-6.422 36.272-19.456 51.985-32.476 5.748-4.345 10.992-4.145 18.015-3.524 22.434 3.908 42.655 20.326 61 33l2.876 1.985c5.733 3.97 11.434 7.984 17.124 12.015l7.281 5.14 4.43 3.131 1.98 1.401 1.726 1.222c3.437 2.53 3.437 2.53 7.583 3.106-.654-3.521-2.088-6.026-3.992-9.043l-1.87-2.977-2.013-3.167-2.066-3.277a1978 1978 0 0 0-14.262-22.22c-3.236-4.98-6.423-9.99-9.61-15.003l-1.76-2.77q-4.668-7.344-9.325-14.695l-1.923-3.03a4546 4546 0 0 1-3.649-5.762l-1.666-2.626-1.46-2.305L344 286l-1.413-2.247c-1.433-1.912-1.433-1.912-3.573-2.235l-2.26.014-2.52-.035-2.671.003c-10.617-.261-18.672-2.636-28.25-7.187-21.211-9.73-44.358 7.452-59.313 21.687m-19.48-21.468-4.25.959-2.208.502c-15.75 3.55-30.95 6.086-47.062 3.007-4.97 6.808-9.487 13.863-13.966 20.998a2533 2533 0 0 1-12.909 20.315 7465 7465 0 0 0-20.492 32.128 700 700 0 0 1-3.59 5.564l-1.945 3.003-1.793 2.747c-1.472 2.1-1.472 2.1-1.305 4.245 2.593-1.244 5.08-2.616 7.563-4.062 6.803-3.835 14.118-3.835 21.754-2.547 6 1.891 10.262 6.3 14.683 10.61l2.282-1.094c9.657-4.22 19.139-5.891 29.523-3.172A36 36 0 0 1 197 371l1.73 1.098c5.35 3.896 7.856 9.614 9.27 15.902l3.403.446C228.246 390.87 228.246 390.87 234 397c4.987 6.79 5.862 13.757 6 22l.047 2.317c.013 1.561-.011 3.123-.047 4.683l2.196 1.067c8.058 4.115 13.858 8.121 16.804 16.933 1.46 10.891-2.37 20.052-8.242 29.028-.948 1.944-.948 1.944-.36 3.969 2.436 3.046 5.655 4.474 9.102 6.128l2.192 1.062c7.004 3.292 13.283 5.885 21.058 3.938 5.016-1.95 7.533-5.639 10.25-10.125-4.202-4.523-8.912-7.997-13.937-11.562l-2.381-1.71c-3.356-2.4-6.717-4.768-10.186-7.005C264 456 264 456 263 454c-.258-4.051-.304-5.543 2-9 2.688-.937 2.688-.937 6-1 5.671 2.878 10.698 6.555 15.813 10.313q2.393 1.74 4.785 3.476 3.797 2.768 7.586 5.547c7.392 5.334 13.569 7.84 22.816 6.664 5.082-2.258 7.077-5.282 9.434-10.097.821-2.094.821-2.094-.434-4.903a96 96 0 0 0-6.375-4.062c-8.714-5.27-17.166-10.913-25.619-16.588l-3.508-2.354-4.705-3.161A187 187 0 0 0 283 424c.63-3.218 1.78-5.508 3.563-8.25l1.379-2.14L289 412c4.553 1.579 8.384 4.047 12.375 6.688l2.192 1.434q2.4 1.57 4.796 3.147c2.846 1.868 5.698 3.726 8.551 5.583q5.89 3.832 11.774 7.668l2.707 1.76a252 252 0 0 1 5.113 3.466l2.36 1.637 2.05 1.454c4.4 2.458 9.289 2.766 14.164 1.714 3.03-1.103 4.803-2.404 6.793-4.926 1.1-2.565 1.622-4.891 2.125-7.625q-2.371-1.754-4.75-3.5l-2.672-1.968c-3.946-2.835-8.006-5.498-12.054-8.185-6.16-4.094-12.28-8.248-18.406-12.392q-3.369-2.28-6.739-4.554l-6.513-4.404a527 527 0 0 1-14.076-9.867c-1.719-1.307-1.719-1.307-3.79-1.13-1.205-8.035-1.205-8.035 0-12 4.046-.962 7.95-1.083 11.715.906 1.914 1.256 3.764 2.573 5.61 3.926q2.136 1.518 4.274 3.033l2.207 1.58c3.47 2.46 6.997 4.83 10.526 7.204l4.203 2.84 6.507 4.39c14.488 9.778 14.488 9.778 21.243 14.465l2.671 1.85a823 823 0 0 1 4.665 3.265c6.157 4.277 10.988 5.222 18.38 4.541 5.023-1.22 9.413-3.209 13-7 3.132-5.473 3.467-9.932 2-16-4.262-8.351-12.678-13.682-20.376-18.625a399 399 0 0 1-18.062-12.5C332.075 346.185 332.075 346.185 297 329l-2.46-.863c-2.856-.662-4.669-.774-7.54-.137-3.146 2.052-5.857 4.444-8.613 6.977-15.8 14.465-38.52 29.25-60.406 30.156-5.912-.263-10.16-1.748-14.856-5.32-4.318-5.716-6.031-11.626-5.125-18.813 4.32-25.878 24.986-46.506 44-63l2-1-1-3c-6.226-2.075-12.227-.937-18.48.532M123 382l-1.808 1.895C110.936 394.946 110.936 394.946 107 409c.73 4.246 1.896 7.738 4.75 11 4.134 1.838 7.747 2.326 12.176 1.368 3.862-1.718 5.376-3.67 7.887-7.055l1.275-1.717c9.754-13.092 9.754-13.092 15.35-28.096-.644-3.68-2.664-5.113-5.438-7.5-3.53-2.353-5.45-2.604-9.597-2.503-4.588.962-7.307 4.166-10.403 7.503m40.344 5.844c-1.498 2.405-2.43 4.747-3.406 7.406-4.73 11.631-11.756 22.08-20.32 31.223-2.164 3.382-2.041 5.58-1.618 9.527 1.694 4.652 4.135 7.487 8.375 10 4.002 1.104 6.504 1.621 10.625 1 2.553-2.248 4.278-4.974 6.125-7.812l1.678-2.447a754 754 0 0 0 5.197-7.74q2.49-3.658 4.993-7.303a812 812 0 0 0 3.24-4.772c2.587-3.826 5.223-7.57 8.064-11.21l1.572-2.035q1.459-1.87 2.97-3.699c2.419-3.11 3.166-4.7 3.099-8.693-1.258-4.413-2.72-6.071-5.938-9.289-8.628-2.876-18.416-1.102-24.656 5.844M205 404a125 125 0 0 0-4.875 6.938q-1.479 2.205-2.965 4.406l-1.565 2.324c-2.605 3.81-5.318 7.538-8.032 11.27l-1.623 2.253a613 613 0 0 1-8.467 11.481l-3.348 4.516-1.607 2.068c-2.588 3.53-3.523 5.071-3.486 9.584 1.188 3.876 2.56 5.051 5.968 7.16 2.755.919 4.523 1.164 7.375 1.188l2.274.043c5.353-.525 8.036-2.586 11.498-6.673l1.478-1.808 1.574-1.88a529 529 0 0 0 11.846-14.814c2.131-2.758 4.284-5.47 6.572-8.099 5.704-6.605 8.861-11.167 8.258-20.144-.945-4.12-1.779-5.968-4.875-8.813-5.256-2.453-10.485-2.838-16-1m28 35c-5.496 5.924-10.87 11.866-15.832 18.25a225 225 0 0 1-5.18 6.313l-3.113 3.75-1.546 1.778c-1.603 1.877-1.603 1.877-3.329 4.91.687 3.366 1.748 4.724 4.063 7.25 4.01 2.388 7.27 3.283 11.937 2.75 11.72-4.648 18.41-17.05 23.785-27.739 1.266-3.397 1.623-5.673 1.215-9.262-3.38-4.404-6.946-6.117-12-8"/>
        <path d="M290.75 16.563c9.213 7.153 16.477 17.753 18.25 29.438.806 15.302-.906 27.233-11.004 39.417C292.704 91.071 286.963 94.682 280 98l2.605.079c14.434.692 25.84 3.634 35.77 14.422 2.426 2.96 3.71 5.748 4.625 9.5l2-1c1.586-.11 3.176-.16 4.766-.178l3.005-.038 3.264-.023 3.357-.024q3.527-.021 7.054-.033c3.578-.017 7.154-.06 10.732-.105q3.429-.016 6.857-.025l3.22-.053c9.775.028 16.857 2.901 24.018 9.549 6.211 6.941 6.883 14.778 6.93 23.703l.017 2.551q.014 2.666.02 5.33c.01 2.705.041 5.408.072 8.111q.01 2.598.016 5.195l.038 2.429c-.021 5.28-.876 8.928-3.366 13.61-4.377 4.057-6.924 5.121-12.804 5.206l-3.763.06-4.167.05-4.392.064q-6.038.084-12.074.153l-7.678.093c-44.373.541-88.747.576-133.122.374l-2.908-.012a6789 6789 0 0 1-36.05-.252q-5.068-.05-10.137-.081-5.86-.04-11.72-.118a589 589 0 0 0-4.256-.034 558 558 0 0 1-5.785-.07l-3.252-.034c-4.555-.628-7.11-2.53-10.142-5.899-3.225-4.606-2.926-9.029-2.953-14.445l-.017-2.68q-.014-2.811-.02-5.624c-.01-2.844-.04-5.688-.072-8.532q-.01-2.737-.016-5.476l-.038-2.549c.03-8.2 1.839-15.308 7.429-21.506l2.097-2.426c7.537-6.002 15.547-6.842 24.903-6.687l3.373.01q3.498.015 6.998.059c3.583.044 7.166.061 10.75.073a4873 4873 0 0 1 10.07.068l2.996.038 2.64.03c2.11.148 2.11.148 4.11 1.148l.563-2.5c3.264-7.948 9.887-13.629 17.437-17.5 7.762-3.03 15.74-3.62 24-4l-1.871-.813c-11.817-5.468-20.064-13.607-25.191-25.691-4.255-12.745-3.566-25.73 1.753-38.024 5.599-10.579 14.712-18.54 25.809-22.972 14.728-4.296 30.506-2.417 43.25 6.062m-49.5 15.688c-6.286 6.772-8.874 14.534-9.25 23.75.97 9.011 4.182 15.7 10.922 21.714 7.895 6.258 14.11 7.988 24.215 7.758 7.91-.968 14.363-4.49 19.863-10.222 6.429-8.316 8.24-16.856 7-27.25-2.009-8.429-6.495-15.156-13.84-19.793-13.374-7.1-27.475-6.615-38.91 4.043M222 121c-3.56 5.146-5.117 9.625-5.145 15.828l-.02 2.892-.003 3.1-.01 3.197q-.007 3.341-.007 6.682c-.002 3.42-.02 6.838-.04 10.258q-.005 3.243-.005 6.488l-.022 3.112.01 2.873-.005 2.534c.062 2.262.062 2.262 2.247 4.035 2.85.204 5.605.284 8.457.275l2.651.016c2.902.014 5.803.013 8.704.01l6.031.013q6.325.01 12.65.002c5.414-.006 10.828.011 16.243.035 4.152.014 8.304.015 12.456.012q2.995 0 5.99.016c2.787.012 5.574.005 8.361-.006l2.519.023c2.524.012 2.524.012 5.938-.395 2.086-3.13 2.254-3.859 2.275-7.42l.029-2.703-.003-2.917.013-3.016q.008-3.165.002-6.33c-.003-3.206.02-6.412.045-9.618q.004-3.08.002-6.16l.028-2.88c-.047-6.958-1.028-13.345-4.899-19.261l-1.617-1.57-1.57-1.618c-7.511-4.914-15.658-4.951-24.371-4.906l-3.738-.009q-3.894-.002-7.789.016c-3.96.016-7.92 0-11.882-.019q-3.795.003-7.591.012l-3.568-.018c-8.632.073-15.974 1.025-22.366 7.416m-74 19c-3.12 4.604-3.42 8.793-3.328 14.207l.006 2.32q.01 2.412.04 4.824c.032 2.47.042 4.941.048 7.412q.014 2.348.03 4.694l.014 2.247c-.256 3.438-.256 3.438 1.19 6.295 1.75.094 3.502.118 5.254.114h3.397l3.697-.016 3.762-.004q4.959-.008 9.918-.025 5.058-.014 10.115-.02 9.928-.015 19.857-.049.037-9.585.055-19.17.008-3.264.02-6.528c.013-3.12.018-6.24.023-9.36l.015-2.967v-2.73l.007-2.416c.08-1.848.08-1.848-1.12-2.829a65 65 0 0 0-4.333-.177l-2.792-.038-3.043-.023-3.114-.024a2375 2375 0 0 0-6.544-.033c-3.33-.017-6.659-.06-9.988-.105q-3.177-.016-6.354-.025l-3.012-.053c-5.74.018-9.436.377-13.82 4.478m178-3a64 64 0 0 0-.205 4.244l-.06 2.73-.051 2.967-.063 3.022q-.097 4.8-.183 9.599l-.131 6.49q-.162 7.974-.307 15.947 11.123.036 22.244.052 5.163.008 10.328.024 5.931.018 11.862.022l3.762.016h3.458l3.062.007c2.25.137 2.25.137 3.284-1.12.126-2.451.189-4.872.203-7.325l.017-2.24q.014-2.353.02-4.708c.01-2.388.04-4.775.072-7.163q.01-2.287.016-4.576l.038-2.15c-.026-5.842-1.565-9.757-5.366-14.151-3.074-2.594-5.674-2.813-9.547-2.817l-2.78-.01-2.993.007-3.074-.003q-3.216 0-6.43.005c-3.295.005-6.589 0-9.883-.006q-3.12 0-6.238.004l-3.005-.006-2.761.01c-.806 0-1.612 0-2.443.002-1.863-.075-1.863-.075-2.846 1.126"/>
        <path d="M374.313 57.188c8.019 7.691 11.535 16.222 12 27.25-.273 9.784-4.297 18.018-10.687 25.25-8.723 7.684-16.857 10.968-28.68 10.59-9.99-.94-18.303-5.077-25.024-12.606-6.754-9.025-9.213-18.456-7.922-29.671 2.425-10.258 8.154-19.132 17-25 14.638-7.39 30.648-6.549 43.313 4.187m-38.062 10.375c-4.168 4.515-7.462 10.25-7.813 16.5 1.086 7.601 3.684 13.081 9.848 17.785 5.022 3.375 9.78 3.923 15.714 3.153 6.266-1.79 10.378-4.46 14-10 3.12-5.763 3.505-10.65 2-17-1.976-5.815-5.864-9.768-11-13-8.517-3.187-15.063-1.805-22.75 2.562"/>
        <path d="M202.313 57.125c7.663 7.326 11.27 16.309 11.938 26.813-.316 9.508-3.337 17.514-9.563 24.75L202.001 111l-1.743 1.527c-8.406 6.904-17.565 8.48-28.258 7.473-9.896-1.63-17.944-6.805-23.937-14.812-5.426-8.485-7.239-17.172-6.062-27.188 2.728-10.732 8.078-18.462 17-25 14.404-7.663 30.783-6.365 43.312 4.125m-38.062 10.438c-4.168 4.515-7.462 10.25-7.813 16.5 1.086 7.6 3.684 13.08 9.848 17.785 5.022 3.375 9.78 3.923 15.714 3.152 6.266-1.79 10.378-4.46 14-10 3.12-5.763 3.505-10.649 2-17-1.976-5.815-5.864-9.768-11-13-8.517-3.186-15.063-1.805-22.75 2.563"/>
        <path d="M369 259c3.332 2.136 3.893 3.633 5 7.438 0 3.562 0 3.562-1.5 6.5-2.5 2.062-2.5 2.062-5.937 2.687C363 275 363 275 360.063 273c-2.83-4.116-2.698-6.078-2.063-11 2.116-4.232 6.827-3.74 11-3"/>
        <path d="M144.938 258.688c2.531.078 3.79.154 6 1.438 1.563 2.757 2 4.69 2.063 7.875-3.013 5.506-3.013 5.506-6 7-6.28.456-6.28.456-8.876-1.188-1.493-2.406-1.992-3.964-2.125-6.812 3.237-7.86 3.237-7.86 8.938-8.313"/>
    </g>
</svg>
