<?xml version="1.0" encoding="UTF-8"?>
<svg data-bbox="32.08 91.242 447.841 329.809" viewBox="0 0 512 512" height="682.667" width="682.667" xmlns="http://www.w3.org/2000/svg" data-type="shape">
    <g>
        <path d="M221.3 92.4c-14 4.5-23.7 16.3-25 30.5l-.6 5.9-8.6 3.2c-4.7 1.8-13.6 5.9-19.8 9-55 28.3-92.8 75.6-107.2 134-4.3 17.3-6.1 33.2-6.1 52.9v16.7l-5.5 2.3c-6.7 2.8-12.7 9.3-15 16.2-1.4 4-1.6 8.2-1.3 21.7.3 16.5.3 16.8 3.4 22.2 3.3 6 9.9 11.2 16.2 13 5.1 1.4 403.3 1.4 408.4 0 6.3-1.8 12.9-7 16.2-13 3.1-5.4 3.1-5.7 3.4-22.2.3-13.5.1-17.7-1.3-21.7-2.3-6.9-8.3-13.4-14.9-16.1l-5.4-2.3-.5-21.6c-.3-15.6-1-24.8-2.5-33.1-12-66.7-52.3-120.9-110.7-149-6.6-3.2-15.4-7-19.6-8.5l-7.6-2.7-.7-6.1c-1.3-12.7-9.1-23.8-20.4-29.4l-5.7-2.8-32.5-.2c-25-.2-33.5.1-36.7 1.1m68.2 16.5c5 2.2 9.1 7 10.5 12 .8 2.9-.5 20.5-5.8 79.7-7.5 83.6-7 80.6-14.2 84.9-3.1 1.8-5.6 2-21.1 2.3-22.6.5-28.4-1.1-32.3-8.7-1.8-3.4-15.2-152.2-14.2-157.5.9-4.6 5.9-10.4 11.1-12.7 3.6-1.7 7.1-1.9 33-1.9 26 0 29.4.2 33 1.9m-86.1 102.7c3.2 36.4 6.4 67.7 7.2 70.4 3 10.2 12.8 18.7 24.2 21.1 3.5.7 12.7 1 25.1.7 22.8-.5 26.4-1.5 34.4-9.6 8.6-8.7 8.2-6.7 14.8-80 3.2-36.2 5.9-66.2 5.9-66.9 0-1.6 8.6 1.4 21.7 7.6 9.5 4.6 10.3 5.2 10.3 7.8 0 1.6-3.4 31.4-7.5 66.2s-7.5 64.8-7.5 66.7c0 4.6 2.9 7.4 7.8 7.4 7.4 0 6.7 2.8 15.1-68 4.1-35.2 7.9-64 8.4-64 2.1 0 18 13.6 27.2 23.2 33.8 35.5 51.5 81.5 51.5 134.4V344H70v-15.3c0-8.4.5-19.1 1-23.7 5.7-47.1 25.4-87.4 57.4-117.7 8.5-8.1 25.3-21.1 26-20.2.1.2 3.5 29.8 7.4 65.6 3.9 35.9 7.6 66.1 8.1 67.1 1.7 3.2 6.4 4.6 9.8 3 5.7-2.7 5.8-.6-2.2-73.3-4.1-36.9-7.5-68.2-7.5-69.6 0-2.4.9-3.1 9.4-6.8 8.7-3.8 16.3-6.9 17.6-7 .3-.1 3.2 29.4 6.4 65.5m255.2 150.3c4.6 3.1 5.4 6 5.4 20.6 0 15.1-.9 18.4-6 21-2.6 1.3-26 1.5-202 1.5-219.3 0-203.2.5-206.6-6.1-1.2-2.5-1.5-5.8-1.2-17.4.3-13.7.4-14.5 2.8-17 1.4-1.5 3.4-3.1 4.5-3.6 1.1-.4 91.8-.7 201.5-.6 170.3.2 199.8.4 201.6 1.6"/>
    </g>
</svg>
