<?xml version="1.0" encoding="UTF-8"?>
<svg data-bbox="0 4 24 16" viewBox="0 0 24 24" height="24" width="24" xmlns="http://www.w3.org/2000/svg" data-type="shape">
    <g>
        <path d="M11 10H6V8h5a1 1 0 0 0 0-2 1 1 0 0 0-.905.587l-1.749-.956A2.99 2.99 0 0 1 11 4c3.971 0 3.969 6 0 6m7 7c0-1.656-1.344-3-3-3H8v2h7a1 1 0 0 1 0 2 1 1 0 0 1-.905-.587l-1.749.956A2.99 2.99 0 0 0 15 20c1.656 0 3-1.344 3-3m1.014-7.655A1.5 1.5 0 0 1 20.5 8c.827 0 1.5.673 1.5 1.5s-.673 1.5-1.5 1.5H12v2h8.5c1.932 0 3.5-1.568 3.5-3.5S22.432 6 20.5 6c-1.624 0-2.977 1.116-3.372 2.617zM10 11H2v2h8zm-4 3H0v2h6zM4 8H0v2h4z"/>
    </g>
</svg>
