<?xml version="1.0" encoding="UTF-8"?>
<svg data-bbox="7.469 8 497.057 496.634" height="512" width="512" xmlns="http://www.w3.org/2000/svg" data-type="shape">
    <g>
        <path d="M56 8h208c0 48.653 0 48.653-9.875 58.996l-2.055 1.937c-3.818 3.813-6.872 8.235-10.07 12.567a2213 2213 0 0 1-4.062 5.313c-4.277 5.612-8.454 11.295-12.623 16.988-5.296 7.215-10.717 14.332-16.163 21.435l-1.949 2.545-1.73 2.252c-1.21 1.617-2.352 3.286-3.473 4.967l94 1v-31c4.525-9.05 4.525-9.05 7.938-11.875l1.964-1.68c4.66-3.21 8.645-3.698 14.251-3.712l2.15-.014c2.37-.013 4.74-.011 7.11-.01l5.106-.02c4.62-.018 9.24-.022 13.86-.024q4.332-.001 8.664-.01 15.117-.028 30.236-.026c9.388.002 18.775-.02 28.163-.051q12.098-.038 24.197-.036c4.815 0 9.63-.005 14.444-.026q6.795-.029 13.59-.005 2.488.003 4.977-.015c17.078-.116 17.078-.116 24.592 6.469l1.633 1.972 1.68 1.965c2.697 3.915 3.695 7.43 3.702 12.157l.02 3.035-.01 3.311.014 3.535q.014 4.851.01 9.702c0 3.49.01 6.98.02 10.469q.023 10.252.023 20.506.002 8.335.012 16.67.026 23.634.025 47.27v5.15c-.001 13.781.018 27.562.046 41.343q.043 21.229.04 42.457c0 7.945.006 15.89.027 23.834q.029 10.147.009 20.293c-.006 3.45-.007 6.9.01 10.35.016 3.744.007 7.486-.009 11.23l.032 3.291c-.07 7.604-1.373 12.905-6.526 18.772l-2 1.66-2 1.715c-2.053 1.384-3.612 1.818-6 2.348q.03 9.208.153 18.414.034 3.13.043 6.26c.009 3.006.05 6.011.097 9.017l-.012 2.807c.145 6.48 1.573 9.532 5.719 14.502 3.533 8.093 3.433 19.268.375 27.563-4.111 8.567-10.367 14.015-19.137 17.55-8.234 2.255-18.696 2.287-26.285-1.855L447 500l-2.14-1.32C437.954 494 434.2 488 432 480c-.237-2.657-.381-5.16-.375-7.812l.003-2.134c.181-8.004 2.676-12.793 7.372-19.054l1-43H264c-3.133 38.6-3.133 38.6 6 50 3.533 8.093 3.433 19.268.375 27.563-4.111 8.567-10.367 14.015-19.137 17.55-8.234 2.255-18.696 2.287-26.285-1.855L223 500l-2.14-1.32C213.954 494 210.2 488 208 480c-.237-2.657-.381-5.16-.375-7.812l.003-2.134c.181-8.004 2.676-12.793 7.372-19.054l1-43H72c-3.133 38.6-3.133 38.6 6 50 3.533 8.093 3.433 19.268.375 27.563-4.111 8.567-10.367 14.015-19.137 17.55-8.234 2.255-18.696 2.287-26.285-1.855L31 500l-2.14-1.32C21.954 494 18.2 488 16 480c-.237-2.657-.381-5.16-.375-7.812l.003-2.134c.15-6.616 1.64-11.817 5.918-16.885 1.657-2.472 1.844-3.721 1.886-6.662l.06-2.669.02-2.854.054-2.942c.054-3.097.088-6.194.122-9.292q.05-3.152.103-6.305.125-7.722.209-15.445l-2.367-.907c-2.72-1.129-4.53-2.371-6.758-4.28l-2.008-1.668c-5.011-5.756-5.303-11.677-5.255-18.968l-.016-2.946c-.014-3.25-.007-6.498 0-9.746l-.02-6.999c-.019-6.33-.018-12.66-.012-18.991.004-5.955-.004-11.91-.011-17.865-.014-12.514-.009-25.028.003-37.542.01-11.44-.003-22.88-.027-34.32q-.037-17.634-.027-35.27.006-9.895-.017-19.79-.021-9.303.008-18.608.005-3.413-.01-6.825c-.013-3.109-.002-6.216.016-9.325l-.03-2.72c.082-6.956 1.88-12.205 6.496-17.472l1.973-1.633 1.964-1.68c5.265-3.627 10.014-3.748 16.203-3.764l2.75-.03c2.993-.031 5.985-.048 8.977-.065q3.117-.028 6.234-.059c5.463-.051 10.926-.09 16.389-.128 5.577-.04 11.154-.091 16.73-.141q16.408-.144 32.815-.258l-1.358-1.777-6.204-8.13-2.135-2.793A1118 1118 0 0 1 95 104.5a1208 1208 0 0 0-15-20 1432 1432 0 0 1-15.875-21.125l-1.785-2.424C49.067 42.871 56 47.018 56 8m16 16c-1.214 18.69-1.214 18.69 7.125 31.625q2.226 2.626 4.445 5.258l2.267 2.587c3.287 3.845 6.215 7.923 9.163 12.03 4.919 6.73 9.934 13.38 15 20a1544 1544 0 0 1 18.719 25.008l1.643 2.149C132 125 132 125 133.494 127.933c2.167 3.862 4.1 7.207 8.454 8.763 5.844 1.277 11.722 1.28 17.677 1.179l2.757-.012c12.26.036 12.26.036 22.798-5.398 3.153-3.864 5.296-8.185 7.394-12.69 2.51-4.884 6.01-9 9.426-13.275q2.038-2.65 4.063-5.312l2-2.626c3.596-4.756 7.112-9.57 10.635-14.38a982 982 0 0 1 11.572-15.424 958 958 0 0 0 4.156-5.485c5.457-7.24 5.457-7.24 8.363-10.304C251.174 43.606 248 38.817 248 24zm242 83c-2.78 4.424-2 7.361-2 13h176c.253-7.807.253-7.807-3-14-3.918-2.045-7.257-2.253-11.635-2.26-.654-.005-1.307-.008-1.98-.012-2.182-.01-4.363-.007-6.545-.003l-4.702-.015c-4.252-.014-8.504-.014-12.756-.012q-5.326 0-10.654-.008-12.567-.016-25.135-.006c-8.64.006-17.28-.006-25.921-.027q-11.133-.027-22.266-.02c-4.43.001-8.862-.001-13.293-.015q-6.25-.019-12.502.002-2.29.004-4.583-.009c-2.089-.01-4.177-.002-6.266.01h-3.539c-3.667.427-6.078 1.47-9.223 3.375m-2 29v256l83.625.188 26.413.082c7.807.01 7.807.01 15.615.016q5.22.005 10.44.03 6.657.03 13.316.023 2.443.001 4.887.019c2.202.015 4.403.011 6.605.003l3.737.008c3.82-.42 6.167-1.236 9.362-3.369 2.914-4.418 2.272-9.908 2.24-15.016l.006-3.082c.003-3.412-.008-6.823-.019-10.235v-7.332a7099 7099 0 0 0-.016-15.792c-.016-7.611-.021-15.222-.024-22.833q-.007-18.522-.036-37.044-.028-17.993-.041-35.984l-.002-2.263-.013-19.494c-.019-27.975-.059-55.95-.095-83.925zM26 155c-2.375 3.908-2.243 7.683-2.227 12.177v2.13c0 2.31.016 4.62.032 6.931l.008 4.822c.008 4.22.028 8.44.05 12.66.024 5.068.033 10.137.045 15.206.019 7.691.057 15.382.092 23.074h36l5-12c1.43-2.562 2.817-4.955 4.438-7.375l1.165-1.786c2.762-4.137 5.759-7.48 9.397-10.839v-2l1.79-.805c2.267-1.226 3.744-2.529 5.585-4.32 11.212-9.97 26.539-16.18 40.625-20.875v-20a13140 13140 0 0 0-37.24-.155 5433 5433 0 0 1-17.292-.071q-8.344-.048-16.69-.059-3.182-.008-6.365-.032c-2.973-.022-5.946-.025-8.92-.024l-2.654-.032c-4.975.025-8.64.402-12.839 3.373m118-3v17h32v-17zm48 0v20l6.938 2.438c13.651 5.02 27.567 11.58 37.695 22.289 1.3 1.5 1.3 1.5 3.367 1.273l.805 1.79c1.226 2.267 2.529 3.744 4.32 5.585 6.93 7.741 11.256 16.973 14.875 26.625h36v-80zm-48 34v46h32v-46c-7.196-3.598-24.98-3.51-32 0m48 4v42h50c-7.702-19.255-23.637-31.587-42.125-39.906-3.167-1.296-3.167-1.296-7.875-2.094M91.992 210.871C85.712 217.272 81.533 223.756 78 232h50v-42c-12.856 0-27.243 12.307-36.008 20.871M24 248v16h64v-16zm80 0v16h16v-16zm32 0v16h48v-16zm64 0v16h16v-16zm32 0v16h64v-16zM24 280c-.087 18.338-.087 18.338-.146 36.676-.018 7.48-.04 14.958-.08 22.438q-.048 9.045-.059 18.09-.008 3.45-.032 6.901c-.022 3.223-.025 6.445-.024 9.667l-.032 2.882c.024 5.137.261 9.027 3.373 13.346 13.94 5.576 29.985 2 45 2v-80h16v-32zm80 0v32h16v-32zm32 0v32h48v-32zm64 0v32h16v-32zm32 0v32h16v80h48V280zM88 328v64h144v-64zm-48 80v32h16v-32zm192 0v32h16v-32zm224 0v32h16v-32zM34.625 463.625c-2.204 4.578-2.422 8.38-1.625 13.375 2.33 4.839 5.161 7.67 10 10 4.994.797 8.797.58 13.375-1.625 3.584-3.243 6.22-5.84 7.008-10.773.256-5.684-.447-9.251-4.383-13.602-4.35-3.936-7.918-4.639-13.602-4.383-4.933.788-7.53 3.424-10.773 7.008m192 0c-2.204 4.578-2.422 8.38-1.625 13.375 2.33 4.839 5.161 7.67 10 10 4.994.797 8.797.58 13.375-1.625 3.584-3.243 6.22-5.84 7.008-10.773.256-5.684-.447-9.251-4.383-13.602-4.35-3.936-7.918-4.639-13.602-4.383-4.933.788-7.53 3.424-10.773 7.008m224 0c-2.204 4.578-2.422 8.38-1.625 13.375 2.33 4.839 5.161 7.67 10 10 4.994.797 8.797.58 13.375-1.625 3.584-3.243 6.22-5.84 7.008-10.773.256-5.684-.447-9.251-4.383-13.602-4.35-3.936-7.918-4.639-13.602-4.383-4.933.788-7.53 3.424-10.773 7.008"/>
        <path d="M328 152h144v112H328zm16 16v16h30l2 6a91 91 0 0 0 1.945 4.086l1.075 2.129 1.105 2.16 1.129 2.23q1.368 2.7 2.746 5.395c4.074-1.358 4.316-3.24 6.305-6.976 3.69-5.662 3.69-5.662 7.766-7.132 3.73-.376 7.306-.399 11.054-.283q2.034 0 4.069-.015c3.546-.014 7.087.045 10.633.118 3.626.063 7.253.057 10.88.058 7.1.01 14.195.102 21.293.23v-24zm0 32v48h112v-40a1259 1259 0 0 0-21.35-.604q-3.63-.082-7.257-.226c-13.351-1.099-13.351-1.099-25.561 2.954-2.112 2.87-3.455 5.597-4.832 8.876a180 180 0 0 1-3.555 5.414c-1.687 2.637-3.364 5.28-5.039 7.926l-1.648 2.574-1.465 2.311C384 239 384 239 382 240l-.755-2.499c-1.43-4.023-3.23-7.722-5.16-11.524-.56-1.12-.56-1.12-1.134-2.262a3267 3267 0 0 0-3.576-7.09l-2.43-4.832Q365.98 205.893 363 200z"/>
        <path d="M459.438 281.5c5.825 3.52 10.545 8.99 12.563 15.5.805 7.836 1.124 15.62-4 22-4.805 5.045-9.162 8.606-16.27 9.336-8.516.094-14.406-.218-20.695-6.207-6.382-6.904-7.516-12.33-7.34-21.684.695-7.862 4.352-11.995 10.207-17 7.064-4.867 17.691-5.421 25.535-1.945m-16.812 17.125c-2.113 3.087-2.237 4.703-1.625 8.375 1.5 2.5 1.5 2.5 4 4 3.671.612 5.288.487 8.375-1.625 2.112-3.087 2.236-4.703 1.625-8.375-1.5-2.5-1.5-2.5-4-4-3.672-.612-5.289-.487-8.375 1.625"/>
        <path d="M395.438 281.5c5.825 3.52 10.545 8.99 12.563 15.5.805 7.836 1.124 15.62-4 22-4.805 5.045-9.162 8.606-16.27 9.336-8.516.094-14.406-.218-20.695-6.207-6.382-6.904-7.516-12.33-7.34-21.684.695-7.862 4.352-11.995 10.207-17 7.064-4.867 17.691-5.421 25.535-1.945m-16.812 17.125c-2.113 3.087-2.237 4.703-1.625 8.375 1.5 2.5 1.5 2.5 4 4 3.671.612 5.288.487 8.375-1.625 2.112-3.087 2.236-4.703 1.625-8.375-1.5-2.5-1.5-2.5-4-4-3.672-.612-5.289-.487-8.375 1.625"/>
    </g>
</svg>
