<?xml version="1.0" encoding="UTF-8"?>
<svg data-bbox="-0.477 -0.78 513.257 513.263" height="512" width="512" xmlns="http://www.w3.org/2000/svg" data-type="shape">
    <g>
        <path d="M63 4c11.685 7.128 17.578 15.126 22 28 .813 3.688.813 3.688 1 7l.152 2.035c.58 13.13-5.153 23.922-13.601 33.531C71 76 71 76 69 76l1.68 3.437q3.112 6.365 6.218 12.731l2.683 5.49 3.872 7.932 1.197 2.444A421 421 0 0 1 92 124l1.826-.372q2.48-.501 4.963-.983a271 271 0 0 0 6.734-1.446c27.2-5.82 54.847-1.045 78.477 13.801 13.825 9.367 25.907 21.26 34 36v2a6518 6518 0 0 0 67.23-28.296l2.951-1.26q2.72-1.16 5.44-2.325A699 699 0 0 1 311 134l-.875-3.277c-4.548-18.306-5.12-37.437-.125-55.723l-2.169-.385C305 74 302.417 73.154 299.7 72.152l-2.959-1.084-3.053-1.13-3.11-1.143Q286.786 67.403 283 66l-.886 1.842c-4.613 8.939-13.51 13.544-22.739 16.596C254.09 85.89 249.447 86.629 244 86l-2.352-.25c-10.856-1.654-21.392-7.145-28.261-15.777-7.639-10.786-10.49-21.818-8.824-34.973 2.18-11.288 8.01-20.873 17.289-27.582C232.97.08 243.938-1.182 257 0c3.712.843 6.716 2.1 10 4l2.09 1.098c9.835 5.569 16.27 13.775 20.16 24.277 1.367 6.61 2.341 12.996.75 19.625l1.95.48c6.65 1.718 12.939 3.94 19.3 6.532 2.734 1.157 2.734 1.157 5.75.988l.96-1.95c12.249-23.717 33.15-42.246 58.622-50.62 26.84-8.284 56.112-6.445 81.188 6.457 24.314 13.11 42.226 34.328 50.37 60.733 8.018 26.869 5.282 56.186-7.96 80.922-8.258 14.721-19.954 27.385-34.18 36.458l-2.324 1.55c-21.551 13.786-49.713 18.352-74.676 12.95a203 203 0 0 1-6-1.5l-.415 1.736c-2.468 9.684-6.008 18.962-9.46 28.327l-3.16 8.629-2.266 6.188a6356 6356 0 0 0-9.39 25.843l-.725 2.004q-3.225 8.92-6.446 17.843-2.003 5.547-4.01 11.094l-1.222 3.39-1.119 3.093-.977 2.707C343 315 343 315 342 317l2.676.809c13.692 4.907 25.13 16.317 34.324 27.191 5.182-2.495 10.009-5.173 14.75-8.437a2610 2610 0 0 1 5.986-4.048c5.09-3.407 10.245-6.718 15.386-10.048A967 967 0 0 0 428 314l-.473-2.133c-2.753-13.967-1.509-26.126 6.008-38.367 6.32-8.844 15.752-15.37 26.465-17.5 10.01-1.024 20.116-1.242 29 4l2.313 1.285C499.784 266.423 506.38 273.738 510 283l1.078 2.664c2.895 10.477 2.241 23.818-3.078 33.336-6.935 11.369-15.158 18.178-28 22-13.771 2.346-24.014-.093-36-7l-2.102-1.754c-1.79-1.478-1.79-1.478-3.79-.957-2.16.729-3.821 1.61-5.74 2.836l-2.158 1.368-2.335 1.507-2.447 1.562C413.893 345.949 402.448 353.478 391 361c1.418 4.277 2.838 8.552 4.316 12.809C404.83 401.51 403.75 429.367 391 456c-12.597 24.207-33.231 43.007-59.344 51.438-27.425 8.458-55.958 6.259-81.656-6.438-21.51-11.657-36.65-29.392-46.406-51.48-1.485-3.532-1.485-3.532-3.594-6.52l-3.073.734q-5.643 1.346-11.289 2.684-2.442.58-4.885 1.164-3.51.838-7.023 1.668l-2.206.53c-2.916.687-5.517 1.22-8.524 1.22l-.078 2.02c-.825 13.411-5.479 22.95-15.11 32.168-10.67 9.202-22.074 10.522-35.557 9.996-4.61-.376-8.294-1.892-12.255-4.184l-2.09-1.098c-9.83-5.566-16.211-13.75-20.16-24.214C74.808 451.223 76.308 439.714 84 427c6.698-9.813 16.31-15.369 27.871-17.566 13.089-1.814 24.198 1.326 34.996 8.87 3.648 2.87 6.22 6.08 8.844 9.903l1.876 2.722L159 433l3.058-.734q5.622-1.349 11.249-2.684 2.433-.579 4.865-1.164 3.499-.84 7-1.668l2.191-.53c3.344-.787 6.176-1.22 9.637-1.22l-.487-1.696c-5.136-23.075 2.733-48.428 14.46-68.167a103 103 0 0 1 7.582-10.27c1.45-1.874 2.46-3.717 3.445-5.867l-1.723-1.687c-4.254-4.205-8.358-8.459-12.25-13-3.204-3.655-6.53-7.198-9.852-10.746-2.56-2.75-5-5.5-7.175-8.567-4.011 1.437-7.267 3.401-10.812 5.75C158.537 324.507 131.897 327.67 107 323c-4.736-1.096-9.364-2.544-14-4-2.33-.68-4.664-1.34-7-2-2.18 3.91-4.342 7.829-6.5 11.75l-1.879 3.367-1.777 3.242-1.65 2.984c-1.467 2.78-1.467 2.78-1.194 6.657 1.384 1.937 1.384 1.937 3.25 3.75 7.257 7.931 10.264 17.216 9.93 27.945C85.272 388.332 80.818 400.023 72 408c-9.652 7.816-21.405 11.971-33.855 10.71C28.564 417.153 21.409 414.309 14 408l-1.883-1.594C5.027 399.9.153 390.318-.336 380.645c-.284-15.137 2.56-24.82 12.649-36.27C22.037 335.781 31.982 331.935 45 332c3.726.453 7.35 1.13 11 2l.648-2.352c1.838-4.961 4.389-9.418 6.977-14.023l1.563-2.809q1.9-3.411 3.812-6.816c-3.436-3.504-6.993-6.765-10.687-10-19.097-17.251-31.204-41.777-33.188-67.492-1.406-28.207 6.43-55.319 25.228-76.652C57.35 146.188 64.964 139.205 74 134c-.646-4.6-2.468-8.498-4.457-12.645l-1.043-2.207a2295 2295 0 0 0-3.312-6.96l-2.198-4.643c-3.003-6.338-6.013-12.66-9.25-18.882C53 87 53 87 53 85l-2.5.5c-13.433 1.919-25.908-1.58-36.812-9.75C3.406 65.23-.63 54.436-.473 39.923-.242 33.616.757 28.495 4 23l1.285-2.312C10.423 12.216 17.738 5.618 27 2L29.664.922C40.141-1.973 53.482-1.32 63 4M22 28c-4.614 6.4-4.72 13.314-4 21 .942 2.982 2.264 5.41 4 8l1.688 2.688c5.258 5.258 11.332 8.068 18.769 8.437 7.604-.374 13.382-2.898 18.852-8.18C66.357 54.14 68.298 47.675 68 40c-1.266-6.858-4.364-13.253-9.996-17.508C45.103 14.207 32.369 17.397 22 28m206-1c-4.275 5.13-5.704 10.418-6 17 .9 7.027 3.954 13.042 9 18 5.746 4.425 11.748 6.377 19 6 6.564-1.145 12.38-4.19 17-9 4.462-6.71 6.791-13.379 5.375-21.437-2.146-8.247-6.122-12.945-13.29-17.434C248.103 14.185 235.7 18.018 228 27m114.941 22.5c-14.868 19.147-20.506 41.936-17.664 65.828 2.19 14 8.25 30.736 18.723 40.672h2l.996-2.055c6.935-13.57 17.126-23.637 31.004-29.945l-1.309-2.16c-7.145-11.996-11.634-23.627-8.632-37.766 3.817-12.467 10.363-22.241 22.128-28.511 10.181-4.758 23.129-5.56 33.813-1.938 11.424 4.95 19.743 12.377 24.996 23.75 4.126 10.787 4.034 22.217-.246 32.938-2.207 4.844-4.78 9.274-7.75 13.687l2.598 1.32c14.187 7.39 23.795 16.742 30.402 31.68 11.686-10.734 19.219-29.65 20.137-45.344.997-26.37-4.96-47.356-22.594-67.457-15.53-16.439-36.274-25.94-58.913-26.601-27.877-.329-51.466 10.697-69.689 31.902m45.399 30.543c-4.116 6.011-4.194 12.89-3.34 19.957 2.419 7.71 6.812 13.21 13.91 17.027 6.778 2.924 13.196 2.858 20.152.535 6.525-2.896 11.053-7.632 14.133-14.054 2.487-7.19 2.249-13.655-.757-20.633-3.193-5.795-8.124-9.521-13.75-12.812-12.22-3.521-22.5.026-30.348 9.98M62 168c-14.182 18.807-21.298 41.369-18.54 64.938 2.144 13.852 7.584 32.635 18.782 41.921L64 276l.777-1.8C71.701 259.21 82.173 251.193 96 243l-1.68-2.816-2.195-3.746-1.105-1.846c-5.82-10-6.782-21.618-4.297-32.862 3.928-11.372 10.367-20.365 21.09-26.042 11.316-5.245 22.822-6.015 34.937-2.563 11.303 4.336 19.165 12.575 24.215 23.34 4.556 11.158 4.204 23.284.035 34.535a64 64 0 0 1-4.695 7.063c-1.348 2-1.874 3.58-2.305 5.937l1.766.707c12.771 5.683 23.554 16.586 29.172 29.418L192 277c13.355-12.374 20.205-33.247 21.16-50.973.59-22.748-7.101-43.905-22.16-61.027l-1.984-2.273c-15.197-16.283-36.422-25.278-58.563-26.13C103.732 136.184 79.27 147.67 62 168m306.824-16.348c-4.4 5.662-7.694 12.244-8.824 19.348 17.934 13.6 40.209 18.673 62.408 15.675 13.624-2.383 25.603-7.239 36.592-15.675-1.961-10.592-7.612-19.26-16-26-10.835-7.213-20.573-8.348-33.375-8.312l-3.5-.05c-14.77-.008-26.983 4.153-37.3 15.014M309.2 154.27l-2.449 1.055q-2.643 1.14-5.285 2.284c-4.734 2.05-9.472 4.09-14.211 6.13l-3.002 1.292c-12.342 5.309-24.726 10.518-37.112 15.724l-5.715 2.403-5.184 2.178-2.323.978-2.011.845c-2.004.884-3.956 1.846-5.907 2.841l.367 1.842C232.473 223.01 230.805 251.76 213 279a139 139 0 0 1-5.555 7.133c-1.45 1.874-2.46 3.717-3.445 5.867a1853 1853 0 0 0 15.896 17.519c3.745 4.077 7.447 8.192 11.131 12.325A164 164 0 0 0 237 328l1.59-1.25c12.48-9.303 26.224-14.74 41.41-17.75l2.727-.586c4.983-.63 9.942-.598 14.96-.601l3.108-.038c6.137-.011 11.836.515 17.841 1.794 2.62.55 2.62.55 6.364.431 5.66-14.24 10.863-28.627 16-43.062q2.507-7.03 5.02-14.06l1.263-3.533a2639 2639 0 0 1 8.291-22.818l1.07-2.906q2.483-6.738 4.987-13.469l1.756-4.754.811-2.16c1.065-2.896 1.802-5.125 1.802-8.238l-3.008-1.547c-18.277-9.669-32.075-22.527-42.617-40.469L319 151c-3.5 0-6.63 1.889-9.8 3.27m-198.136 40.167L109 197l-2.187 2.438c-4.225 5.972-4.74 12.443-3.813 19.562 2.74 8.525 7.64 13.436 15.188 17.875 7.297 2.153 14.19 2.26 21.187-.937 6.955-3.986 10.973-8.963 13.152-16.688 1.591-7.574.192-13.533-3.527-20.25-4.916-6.498-10.714-9.63-18.75-10.937-7.2-.54-13.67 1.796-19.187 6.375m-22.247 74.446C83.61 274.953 79.607 282.143 78 290c17.831 13.887 39.478 18.964 61.688 16.313C152.363 304.32 165.754 300.026 176 292c1.545-3.366 1.082-4.768-.152-8.27-6.462-12.824-14.128-21.151-28.078-25.914-19.09-5.627-44.178-2.814-58.954 11.067M455 278l-2.687 1.688c-5.259 5.258-8.069 11.332-8.438 18.769.374 7.604 2.898 13.382 8.18 18.852 5.806 5.048 12.27 6.989 19.945 6.691 6.858-1.266 13.253-4.364 17.508-9.996 4.484-6.983 5.06-12.762 4.492-21.004-2.002-7.064-6.778-12.677-12.687-16.937-8.61-3.956-18.5-3.303-26.313 1.937m-219.465 74.191C219.311 371.305 212.595 394.21 214 419c1.321 12.906 5.687 24.765 12.563 35.688l1.139 1.82c2.065 3.133 3.702 5.228 7.298 6.492l.996-2.055C242.97 447.3 253.171 437.621 267 431l-1.68-2.852-2.195-3.773-1.105-1.871c-5.724-9.885-7.299-20.497-4.872-31.711 3.642-11.944 10.22-21.466 21.192-27.54 11.887-5.602 24.216-5.84 36.586-1.573 10.958 4.706 18.027 12.392 22.949 23.132 3.823 9.942 4.564 21.006.371 30.982-2.41 5.26-5.034 10.388-8.246 15.206l1.984.926c12.506 6.27 21.2 14.886 28.016 27.074q1.493 2.504 3 5c12.538-11.668 19.656-30.73 20.336-47.629.41-26.634-6.43-48.077-25.211-67.621-17.97-17.287-40.12-24.391-64.633-24.02-22.029.777-42.953 11.5-57.957 27.461M24 358c-5.955 7.5-6.804 14.57-6 24 1.964 6.715 6.363 10.853 11.688 15.188 6.4 3.502 12.996 4.691 20.085 2.687 7.456-2.93 12.326-7.164 16.13-14.23 2.756-6.642 2.803-12.801.16-19.48C62.147 358.188 57.349 354.093 49 351c-9.418-2.478-17.86.676-25 7m253.594 28.684c-4.113 5.978-5.24 12.734-4.031 19.816 1.775 6.946 6.503 12.592 12.437 16.5 5.888 3.297 11.305 3.958 18 3 8.334-2.62 14.192-7.895 18.375-15.5 1.916-7.663 2.46-14.675-1.672-21.707-4.698-6.526-9.833-10.818-17.703-12.793-10.684-1.6-18.617 2.684-25.406 10.684M99 437c-3.873 5.597-5.495 11.528-4.746 18.293 1.651 8.883 6.63 14.43 13.746 19.707 6.298 3.219 14.023 2.858 20.688.938 7.178-4.199 12.534-8.954 15.312-16.938 1.679-6.594.852-12.378-2.227-18.398-3.978-6.404-8.216-10.268-15.273-12.914-11.117-2.184-20.014.844-27.5 9.312m159.598 21.02c-4.948 6.132-8.164 12.234-9.598 19.98 7.706 6.129 15.778 9.836 25 13l3.008 1.04C300.045 498.611 322.7 493.271 343 482a341 341 0 0 0 5-3c-1.89-11.724-7.75-20.569-17.21-27.656-20.276-13.385-55.37-11.34-72.192 6.676"/>
    </g>
</svg>
