<?xml version="1.0" encoding="UTF-8"?>
<svg data-bbox="0 74.2 512 363.311" viewBox="0 0 512 512" height="682.667" width="682.667" xmlns="http://www.w3.org/2000/svg" data-type="shape">
    <g>
        <path d="M242.5 75.1c-29.8 4.4-53.6 24.8-62.7 53.9-3.3 10.8-3.3 31.1 0 42 10.2 32.7 39.1 54 73.4 54.1 13.2 0 21.3-1.8 33.3-7.6 16-7.7 26.8-18.5 35-34.7 6.1-12.1 7.8-20.9 7.3-36.1-.4-9.8-1-13.8-3.2-20.2-3.9-11.4-9.8-20.9-18.5-29.6-12.3-12.3-26.8-19.4-44.4-21.8-8.8-1.2-11.6-1.2-20.2 0M272 94c18 6.1 32.3 20.4 38.1 38.2 3.1 9.5 3.4 25.4.5 33.8-7.3 21.6-22.1 35.6-43.4 41.1-19.3 4.9-39.7-.4-54.8-14.5-7.9-7.3-12.4-14.3-16.1-24.8-3.4-9.7-3.6-24.9-.4-34.8 6.3-19.8 25-36.9 44.6-40.9 8.1-1.6 24-.7 31.5 1.9"/>
        <path d="M398 127.5c-20.2 4.6-37.8 20.7-44.1 40.5-2.5 7.6-3 23.8-1 31 2.7 9.8 8.1 19 15.4 26.5 8.2 8.2 13.7 11.7 23.8 15.1 15.1 5.1 30.3 3.9 45.5-3.5 39.8-19.7 43.5-75.3 6.7-100.5-13.2-9-31.2-12.5-46.3-9.1m25.1 17.1c7.6 2.3 12.8 5.6 18.8 11.9 19.9 21 13.1 54.3-13.6 66.7-17.4 8.2-39.9 2.6-51.5-12.7-6.3-8.2-8.2-14.4-8.3-26 0-9.2.3-10.5 3.2-16.8 5.2-11 15.1-19.6 26.8-23.3 5.7-1.8 18.2-1.7 24.6.2"/>
        <path d="M89.1 131.6c-15 3.2-28.6 12.4-37 24.9-15.8 23.6-12.6 54.2 7.6 74.1 10.4 10.3 27.4 17.4 41.8 17.4 24.9 0 48.9-17.8 56.6-42 3.2-9.8 3-25-.4-34.8-3.6-10.3-8.1-17.4-15.9-24.7-14.2-13.5-33.8-19-52.7-14.9m29.9 19.1c12 5.7 19.4 14.2 23.2 26.7 6 19.6-3.8 40.9-22.9 49.9-12.9 6-30.2 4.7-41.7-3.3-6.1-4.1-12.5-11.4-15.1-17.3-10.4-22.8 1-49.2 25.1-57.7 4.7-1.6 7.8-2 15.4-1.7 8.2.2 10.4.7 16 3.4"/>
        <path d="M244 235.7c-30.6 3-59.9 15.7-81.3 35.3l-6.8 6.3-9.7-4.6c-11.8-5.6-19.9-8.1-31.7-9.7-46.9-6.6-93.8 22.4-109.2 67.5C1.2 342.5 0 352.6 0 374c0 19.7 0 19.8 2.8 25.1 2 3.9 4.1 6.2 7.7 8.4l4.8 3 50.7.3 50.8.3.6 4c.9 5.8 3.8 11 8.6 15.3 8.5 7.7-2.2 7.1 130 7.1s121.5.6 130-7.1c5.7-5.1 8.2-10.5 8.8-18.6l.5-6.7 50.1-.3c35.6-.2 50.9-.7 52.7-1.5 4.4-1.9 10.1-7.5 12-11.8 1.6-3.4 1.9-6.8 1.9-23.6 0-21.3-1.2-31.4-5.3-43.4-10.4-30.5-34.6-54.1-65.2-63.8-27.7-8.7-60-4.8-83.9 10l-4.9 3.1-6.2-5.3c-28.3-24-66.8-36.4-102.5-32.8m32.6 17.8c50 8.6 89.2 46.3 99.5 95.7 1.7 8.4 2.2 14.8 2.5 35.1.5 26.9 0 31.3-4.3 34.6-2.6 2.1-3.1 2.1-118.3 2.1-114.5 0-115.8 0-118.3-2-4.3-3.4-4.7-6.6-4.3-34 .3-21.4.7-27.2 2.5-35.8 10.3-49 49.2-86.8 98.6-95.6 10.8-1.9 31.2-2 42.1-.1m155.3 21.6c29.8 7.6 53.4 31.3 61.1 61.3 1.7 6.7 2 11.1 2 28.6 0 14.7-.3 20.9-1.2 21.8s-13.3 1.2-49.9 1.2h-48.6l-.6-17.3c-.9-25-4.7-40.3-15.3-60.8-2.6-5.1-7.1-12.5-10-16.5l-5.3-7.3 3.3-2.1c17.6-10.8 43.1-14.3 64.5-8.9m-309.7 6.3c8.5 2.1 21.8 7.8 21.8 9.2 0 .3-1.9 3.2-4.1 6.6-5.9 8.6-14.4 26.8-17.4 37.3-3.9 13.4-5.5 26.2-5.5 43.7V394H68.1c-41.7 0-49-.2-50.1-1.5-.9-1.1-1.1-7.3-.8-24.2.4-20.4.7-23.6 2.7-29.8 9.8-29.8 33.4-51.4 63.6-58 10.3-2.3 27.8-1.9 38.7.9"/>
    </g>
</svg>
