<?xml version="1.0" encoding="UTF-8"?>
<svg data-bbox="31.687 31.34 448.813 448.921" height="512" width="512" xmlns="http://www.w3.org/2000/svg" data-type="shape">
    <g>
        <path d="M151.29 40.975c10.52 7.861 19.615 17.712 28.888 26.963 2.507 2.498 5.025 4.984 7.543 7.47l4.853 4.838 2.248 2.211c12.545 12.598 19.726 26.852 20.553 44.73-.387 16.91-7.36 30.274-18.887 42.184-4.544 4.802-6.62 8.114-6.8 14.817l-.114 2.73c1.072 7.758 6.374 14.222 10.801 20.457l1.857 2.63c11.809 16.59 24.344 33.06 39.018 47.245 1.819 1.819 3.467 3.723 5.125 5.688 3.355 3.893 7.047 7.262 10.903 10.652a327 327 0 0 1 6.99 6.401c6.335 5.917 12.978 11.331 19.868 16.587q1.89 1.442 3.77 2.896c7.539 5.823 15.2 11.41 23.157 16.651l2.09 1.399c5.915 3.822 11.584 6.28 18.8 5.078 5.19-1.525 9.006-4.312 12.38-8.488 2.618-3.23 5.664-5.53 9.167-7.739l1.856-1.17c13.692-8.298 29.464-9.96 44.953-6.326 9.112 2.768 16.605 6.698 23.48 13.258l1.653 1.553A805 805 0 0 1 431 319l2.09 2.013c4.626 4.468 9.213 8.974 13.777 13.504a992 992 0 0 0 4.788 4.706C467.38 354.58 480.2 368.912 480.5 392c-.083 8.208-1.225 15.403-4.5 23l-1.11 2.707c-4.048 8.535-10.697 14.969-17.248 21.62a276 276 0 0 0-4.06 4.244c-20.035 20.975-47.956 35.713-77.25 36.668-34.62.59-59.408-10.488-87.332-30.239l-2.27-1.603a877 877 0 0 1-51.043-39.01 735 735 0 0 0-4.59-3.734c-10.885-8.808-21.427-18.006-31.67-27.552a265 265 0 0 0-8.552-7.663c-3.794-3.274-7.292-6.826-10.809-10.391-2.605-2.627-5.25-5.147-8.066-7.547-7.267-6.223-13.923-13.13-20.125-20.406-2.358-2.633-4.86-5.112-7.375-7.594-3.726-3.681-7.298-7.433-10.699-11.418-2.174-2.513-4.425-4.95-6.676-7.394-4.07-4.463-7.927-9.05-11.719-13.75-2.704-3.301-5.487-6.525-8.28-9.75-5.373-6.233-10.519-12.61-15.539-19.128a1564 1564 0 0 0-3.416-4.416c-8.477-10.927-16.616-21.998-24.339-33.472a263 263 0 0 0-7.144-10.047c-15.908-21.722-25.13-44.728-25-71.875l.017-3.731c.434-32.638 15.191-59.028 37.96-81.63 1.78-1.77 3.54-3.559 5.298-5.35 20.366-20.492 50.811-29.518 76.327-11.564M102 53l-2.312 1.38C75.027 70.581 57.322 95.655 50 124c-4.808 25.421.373 51.053 14.688 72.438q1.946 2.829 3.937 5.626a660 660 0 0 1 4.192 5.987c19.29 27.687 39.903 54.43 62.246 79.727a497 497 0 0 1 4.75 5.539c4.908 5.792 9.793 11.485 15.266 16.76 1.822 1.824 3.502 3.705 5.175 5.665 3.628 4.175 7.452 8.109 11.367 12.012l2.132 2.135a3794 3794 0 0 0 4.435 4.43q3.365 3.359 6.72 6.726l4.338 4.334 1.996 2.002a223 223 0 0 0 11.933 11.036c3.015 2.615 5.914 5.354 8.825 8.083 4.925 4.592 9.876 9.13 15 13.5l2.88 2.477c6.713 5.75 13.563 11.29 20.538 16.719a472 472 0 0 1 7.133 5.672c15.299 12.403 31.27 23.91 47.45 35.132l1.967 1.376c24.028 16.736 49.427 25.46 79.028 20.972 20.063-3.728 36.777-13.606 51.34-27.735a484 484 0 0 1 3.54-3.393c16.111-15.177 16.111-15.177 23.081-35.641.207-12.395-4.433-23.162-12.825-32.176a480 480 0 0 0-5.718-5.68 2048 2048 0 0 1-3.078-3.074q-3.202-3.193-6.43-6.36c-2.74-2.69-5.461-5.399-8.175-8.116q-3.169-3.164-6.353-6.313-1.508-1.494-3.011-2.994c-9.714-9.668-18.358-15.912-32.304-17.24-12.726.649-22.922 5.838-31.625 15-7.178 7.51-16.113 11.036-26.399 11.511-34.507-.794-73.293-44.378-96.414-67.387l-1.981-1.967c-4.417-4.431-8.566-9.04-12.644-13.783l-2.887-3.28c-10.821-12.384-20.398-25.478-29.613-39.095l-2.07-3.025c-7.294-10.916-12.009-21.452-9.742-34.787 2.355-9.711 7.535-15.622 14.312-22.813 7.452-8.088 11.622-17.697 11.246-28.843-1.641-14.383-9.51-24.056-19.472-33.985q-1.493-1.503-2.982-3.008a1444 1444 0 0 0-6.239-6.242 1002 1002 0 0 1-7.885-7.954 999 999 0 0 0-6.163-6.187q-1.457-1.459-2.9-2.933c-8.423-8.58-18.023-15.825-30.456-16.14-7.579-.066-13.625.03-20.149 4.292"/>
        <path d="M345.063 55.61c16.205 7.418 30.952 16.34 44.938 27.39.91.719 1.822 1.437 2.761 2.176 9.815 7.883 19.17 16.14 27.238 25.825l2.375 2.644c27.771 31.166 46.079 71.843 50.625 113.356l.333 2.84c.605 6.016.844 12.054.98 18.097l.09 2.189c.04 3.628-.294 5.697-2.207 8.815-3.025 2.837-5.093 3.059-9.196 3.059-2.947-1.346-4.542-2.086-6-5a129 129 0 0 1-.394-5.547c-3.352-58.045-25.49-108.722-69.207-147.778-34.943-29.4-76.59-45.78-122.234-47.933l-2.112-.102c-1.764-.071-3.53-.106-5.295-.136-3.454-.632-4.623-1.767-6.757-4.504-1.147-3.594-1.317-5.268.187-8.75C265.89 24 328.392 48.264 345.063 55.61"/>
        <path d="M287 106c29.546 6.38 53.564 20.078 76 40l1.98 1.758c24.436 23.1 41.497 58.976 43.13 92.498.058 2.332.076 4.66.077 6.994l.038 2.39c.018 7.212.018 7.212-2.225 10.36-2.635 2.05-4.114 1.998-7.5 1.938-4.362-1.169-5.191-2.09-7.5-5.938-.658-3.315-.781-6.629-.937-10-2.506-35.99-18.457-68.052-45.101-92.304-20.322-17.566-46.627-28.961-73.388-31.176l-2.856-.238a265 265 0 0 0-5.575-.373c-5.204-.375-8.438-.876-12.143-4.909-1.237-3.633-1.345-5.242.25-8.75 6.689-8.6 26.31-4.124 35.75-2.25"/>
        <path d="M284.864 173.264c23.03 7.938 40.287 24.495 50.949 46.111 5.005 11.87 7.867 24.733 6.187 37.625-1.373 2.554-2.177 3.67-4.867 4.75-3.906.487-5.574.583-9.07-1.5-3.11-3.392-3.213-6.44-3.607-10.898-.812-8.785-2.675-16.306-6.456-24.352l-1.12-2.414C309.09 207.333 295.976 196.781 280 191c-6.145-1.95-12-3.082-18.437-3.437-3.618-.251-5.468-.514-8.75-2.188-2.443-3.2-2.813-5.366-2.813-9.375 5.238-11.472 25.053-5.734 34.864-2.736"/>
    </g>
</svg>
