<?xml version="1.0" encoding="UTF-8"?>
<svg data-bbox="23.356 31.875 465.06 448.259" height="512" width="512" xmlns="http://www.w3.org/2000/svg" data-type="shape">
    <g>
        <path d="M269.172 39.117C273.059 43.121 277 48.291 277 54h84l3-9c3.64-6.02 10.306-10.496 17.063-12.375 9.21-1.462 17.661-.62 25.687 4.5C412.224 41.408 416.665 48.188 418 55c.954 10.24-.734 18.294-7.25 26.375-4.706 5.02-10.876 8.321-17.789 8.863-11.093.23-18.044-1.732-26.23-9.297C363.815 77.67 361 73.511 361 69h-34v53h12c13.483 2.89 20.2 10.575 27.484 21.808l1.322 2.03a277 277 0 0 1 2.554 4.02c2.803 4.364 5.335 7.13 10.47 8.703 2.485.503 4.778.57 7.314.58l3.107.022 3.346.013 7.056.072c3.698.035 7.395.064 11.092.078 3.576.015 7.151.056 10.727.1l3.303-.006c9.547.15 18.617 2.124 25.728 8.877 6.05 6.887 8.755 13.884 8.723 23.085l.001 2.16c-.001 2.338-.017 4.675-.033 7.012l-.008 4.885a3759 3759 0 0 1-.05 12.813c-.02 4.364-.03 8.728-.04 13.092-.02 8.552-.055 17.104-.097 25.656l2.081-.032 2.73-.026c.893-.01 1.786-.02 2.706-.032 5.851.211 10.825 3.474 14.92 7.465 3.53 5.93 5.022 10.625 4.962 17.535l.008 2.214q.003 2.3-.016 4.6c-.016 2.336 0 4.67.02 7.004l-.012 4.494.018 2.094c-.076 5.285-1.303 9.419-4.952 13.328-5.543 4.239-8.896 4.513-15.76 4.533l-2.923.02q-4.803.028-9.606.041l-3.311.012q-8.677.031-17.356.045c-5.974.011-11.948.045-17.922.085-4.594.026-9.188.035-13.782.038q-3.303.008-6.606.035c-3.086.025-6.17.024-9.256.017l-2.748.039c-5.908-.049-9.357-1.06-14.195-4.51-6.018-7.602-5.213-14.833-5.25-24.187l-.062-3.908c-.044-10.59.965-18.414 8.433-26.24 4.393-3.89 8.412-4.801 14.11-4.727l2.711.028L392 257c-.138-4.313-.287-8.625-.437-12.938l-.12-3.732-.126-3.545-.112-3.285c.071-2.44.071-2.44-1.205-3.5-2.921-.125-5.82-.186-8.742-.206l-2.779-.03q-4.57-.045-9.139-.08l-6.318-.064q-8.333-.081-16.665-.152-8.496-.077-16.992-.162-16.682-.16-33.365-.306l1.68 3.62 2.195 4.817 1.106 2.373c2.422 5.352 3.921 10.417 5.02 16.19l3.82.785c5.467 1.217 10.743 2.886 16.054 4.652l2.836.909 2.719.9 2.445.802c2.365 1.059 3.505 1.936 5.125 3.952.395 2.156.395 2.156.42 4.683l.048 2.872v3.097l.024 3.187q.016 3.337.01 6.675c-.002 3.407.04 6.812.084 10.218q.008 3.241.008 6.483l.05 3.09c-.07 7.022-.07 7.022-2.815 10.235-2.874 1.483-5.594 2.633-8.68 3.6l-3.329 1.055-3.445 1.055-3.469 1.101C309.443 328 309.443 328 306 328l-.562 3.5c-1.203 5.635-3.625 10.672-6.137 15.826-1.931 4.125-2.543 6.324-1.3 10.674a89 89 0 0 0 2.468 5.125l1.48 2.89L303.5 369q1.524 2.932 3.031 5.875l1.362 2.617c1.16 2.626 1.925 4.636 2.107 7.508-2.075 4.805-5.99 8.362-9.61 12.05-.644.66-1.29 1.318-1.954 1.997a1400 1400 0 0 1-4.095 4.147 772 772 0 0 0-6.208 6.386q-1.995 2.019-3.992 4.033l-1.85 1.941c-3.03 2.998-4.561 4.327-8.866 5.027-3.686-.626-6.13-1.64-9.366-3.495l-3.268-1.805a2058 2058 0 0 1-6.719-3.836l-3.263-1.797-2.944-1.682c-3.703-1.249-5.346-.515-8.865 1.034l-3.437 1.437L232 412c-6.67 2.925-6.67 2.925-10.052 3.69-3.182 1.054-3.182 1.054-4.468 4.135l-1.078 3.573-.61 1.913a343 343 0 0 0-1.854 6.064 456 456 0 0 1-1.865 6.042 377 377 0 0 0-1.682 5.498c-1.688 3.745-2.77 5.12-6.39 7.085-3.392.566-6.725.56-10.157.531l-2.97.012q-3.101.003-6.202-.022c-3.161-.021-6.32 0-9.48.026q-3.018-.004-6.036-.016l-2.857.025c-4.083-.059-6.674-.216-10.306-2.193-2.411-2.86-3.14-5.076-4.028-8.703l-1.018-3.72a345 345 0 0 1-1.937-7.743c-1.846-7.04-1.846-7.04-6.752-12.069-3.054-1.258-6.084-2.222-9.258-3.128a65 65 0 0 1-3.805-1.871l-3.07-1.567-3.117-1.62c-4.64-1.453-7.16.107-11.351 2.264a612 612 0 0 0-10.958 5.981C91.424 421.203 91.424 421.203 87 420c-2.971-2.019-5.438-4.493-8-7q-1.488-1.4-2.98-2.793a536 536 0 0 1-8.305-7.977 345 345 0 0 0-3.473-3.33 368 368 0 0 1-5.054-4.896l-1.581-1.466c-2.698-2.713-3.953-4.78-4.097-8.547.263-3.737 1.346-6.545 3.15-9.847l1.655-3.134c.576-1.056 1.153-2.11 1.748-3.198a582 582 0 0 0 3.41-6.355l1.54-2.813c1.705-4.565-.065-8.088-1.86-12.402l-1.085-2.645-2.273-5.468-1.08-2.637-.996-2.395C57 331 57 331 57 328l-1.82-.317c-6.425-1.19-12.464-2.94-18.617-5.12l-2.678-.909-2.568-.9-2.3-.803c-2.275-1.073-3.436-1.994-5.017-3.951-.394-2.156-.394-2.156-.42-4.684l-.048-2.872v-3.097l-.024-3.186q-.015-3.337-.009-6.676a757 757 0 0 0-.085-10.218q-.008-3.24-.008-6.482c-.016-1.02-.032-2.04-.05-3.09.07-7.023.07-7.023 2.816-10.235 2.873-1.483 5.594-2.633 8.68-3.6l3.328-1.055 3.445-1.055 3.469-1.102C53.557 256 53.557 256 57 256l.625-3.625c1.242-5.71 3.63-10.85 6.035-16.14 2.302-5.348 2.302-5.348 1.352-10.879l-1.54-2.813-1.65-3.123a4095 4095 0 0 0-3.507-6.43l-1.655-3.135-1.542-2.823C53.714 203.223 53.022 199.954 54 196c1.854-2.918 4.205-5.164 6.711-7.528l2.07-2.043a701 701 0 0 1 6.594-6.367q2.217-2.17 4.43-4.345a1106 1106 0 0 1 8.122-7.885l1.656-1.589c2.122-1.862 3.328-2.235 6.177-2.488 3.755.284 5.824 1.3 9.084 3.159l3.277 1.805q3.384 1.908 6.758 3.835l3.277 1.797 2.963 1.683c3.74 1.254 5.323.537 8.881-1.034l2.555-1.07 2.32-1.055 2.367-1.07L133 171l.013-2.535q.042-4.709.14-9.416c.034-2.012.043-4.025.052-6.037.148-6.549.341-11.866 4.046-17.399 7.39-6.817 15.145-6.219 24.683-6.18l4.688-.018q4.9-.014 9.801.008c4.171.018 8.34-.006 12.511-.041 3.225-.022 6.45-.02 9.675-.012q2.306 0 4.61-.021c15.828-.13 15.828-.13 21.781 5.65 4.277 5.148 4.523 9.92 4.25 16.438l-.055 2.506c-.046 2.02-.118 4.038-.195 6.057 4.334-.052 8.667-.148 13-.25l3.7-.043c8.379-.227 14.656-.864 20.585-7.117l1.778-2.653 2-2.922c1.875-2.918 3.689-5.869 5.5-8.828 5.755-9.12 13.034-13.586 23.437-16.187h13V69h-35l-1 5c-3.742 6.886-9.992 13.16-17.605 15.562-10.258 1.874-18.646.818-27.32-4.812-5.988-4.513-9.64-11.428-11.075-18.75-.793-7.837.317-15.21 4.922-21.715 11.65-13.68 29.633-16.993 44.25-5.168M239 51c-2.969 3.685-4.353 7.381-4.062 12.125.974 5.052 3.805 8.163 7.875 11.25 4.992 1.426 9.393 1.342 14-1 3.992-2.975 5.707-5.372 6.5-10.328.313-5.125-.958-8.04-4.313-12.047-2.835-2.936-5.777-3.768-9.844-4.117-4.013.218-7.043 1.609-10.156 4.117m140 0c-2.804 3.19-3.908 6.342-4.5 10.562.792 5.445 3.15 8.272 7.25 11.813 3.988 1.994 6.88 2.481 11.25 1.625 4.798-2.399 7.565-5.224 10-10 .873-6.003-.669-9.189-4-14-2.786-2.986-5.783-3.765-9.844-4.121-3.984.223-7.023 1.702-10.156 4.12m-89.5 94c-.564.778-1.13 1.557-1.71 2.36a508 508 0 0 0-7.798 11.843c-3.004 4.217-6.424 7.709-10.804 10.484l-1.832 1.2c-7.915 3.74-16.268 3.528-24.856 3.738L229 175v39l14.928.028c16.269.034 32.538.09 48.806.156 9.865.04 19.73.072 29.594.087q12.9.019 25.798.083c4.552.023 9.104.039 13.656.038q6.432 0 12.863.049 2.355.012 4.712.005c14.89-.047 14.89-.047 21.643 4.554 6.443 6.619 5.773 14.732 5.813 23.5L407 257h39c.117-12.27.117-12.27.195-24.541.024-5.008.052-10.016.107-15.024q.063-6.06.078-12.118.01-2.307.043-4.613c.367-11.075.367-11.075-4.423-20.704-4.24-3.93-7.337-5.117-13.047-5.158l-3.117-.031-3.371-.022-7.08-.086q-5.575-.063-11.151-.105c-3.59-.027-7.18-.073-10.769-.122l-3.328-.01c-10.51-.165-19.37-2.04-27.137-9.466-4.218-4.694-7.589-9.894-11-15.188-3.298-5.01-6.822-10.268-12.704-12.442-3.417-.551-6.828-.574-10.28-.608l-2.347-.025q-2.456-.02-4.912-.032a460 460 0 0 1-4.992-.062 535 535 0 0 0-7.25-.069l-2.222-.053c-7.147.03-13.548 2.517-17.793 8.479M149 146a246 246 0 0 0-.145 8.894l-.01 2.828q-.013 4.653-.013 9.305l-.01 6.439a9239 9239 0 0 0-.007 13.515c0 5.785-.014 11.57-.03 17.356q-.016 6.65-.014 13.303 0 3.2-.013 6.4c-.01 2.979-.007 5.957 0 8.936l-.018 2.694c-.198 4.646-.198 4.646 2.26 8.33 2.657.3 2.657.3 5.795.243l3.68.01 3.994-.023 4.08-.001q4.277-.003 8.554-.023 5.488-.023 10.976-.02 4.214-.001 8.426-.013 3.01-.007 6.02-.009l3.68-.019 3.252-.011c2.536.036 2.536.036 4.543-1.134q.035-18.945.052-37.89.007-8.796.024-17.592.015-8.481.019-16.962.003-3.243.01-6.486.011-4.527.009-9.052l.01-2.738c.392-3.956.392-3.956-1.124-7.28-1.958-.1-3.92-.128-5.88-.13l-3.813-.01-4.15.007q-2.114 0-4.227-.003-4.433-.002-8.867.005-5.695.007-11.39-.003-4.365-.005-8.73 0l-4.2-.002c-1.954-.003-3.908.002-5.862.006l-3.376.003c-2.445-.157-2.445-.157-3.505 1.127m-66.675 43.27q-1.446 1.413-2.91 2.808a362 362 0 0 0-4.173 4.059l-2.535 2.46c-1.97 2.256-1.97 2.256-1.613 4.932a46 46 0 0 0 3.156 6.87l1.344 2.452q1.401 2.515 2.812 5.024c2.56 4.688 4.705 8.654 4.594 14.125-1.067 3.17-2.56 6.05-4.125 9-3.69 7.234-6.346 14.099-8.219 21.996-2.492 4.52-5.92 5.379-10.656 7.004l-2.702.96a435 435 0 0 1-8.36 2.79L39 277v30l6.238 1.941q2.997.966 5.987 1.947 2.075.67 4.159 1.311a302 302 0 0 1 5.98 1.93l3.633 1.158c3.963 2.26 4.606 4.456 6.003 8.713l1.14 3.254 1.11 3.308c2.244 6.457 5.136 12.236 8.492 18.184 1.617 4.182 1.473 5.917.258 10.254-1.838 4.081-3.927 8.005-6.062 11.937l-1.721 3.229A1254 1254 0 0 1 70 382c4.208 4.985 8.522 9.816 13.063 14.5l1.814 1.953 1.783 1.828 1.583 1.658c1.763 1.297 1.763 1.297 4.18.871 2.574-.81 4.777-1.783 7.151-3.06l2.522-1.344 2.592-1.406 2.627-1.406q2.4-1.285 4.793-2.579c3.632-1.95 5.692-2.376 9.892-2.015 2.718.988 5.246 2.298 7.813 3.625 5.335 2.684 10.517 4.882 16.249 6.572 8.934 2.69 8.934 2.69 11.645 5.693 1.097 2.67 1.654 5.29 2.293 8.11a313 313 0 0 0 2.66 7.592c1.482 4.123 2.905 8.268 4.34 12.408h29c2.9-7.25 5.507-14.39 7.799-21.826l.736-2.295.637-2.045c.978-2.167 1.99-3.331 3.828-4.834a152 152 0 0 1 8.313-2.75c7.363-2.303 13.94-5.174 20.672-8.93 3.41-1.493 5.323-1.613 9.015-1.32 2.82 1.133 2.82 1.133 5.695 2.695l3.168 1.668a2936 2936 0 0 1 6.547 3.547l3.16 1.66 2.868 1.555c2.468 1.114 2.468 1.114 4.631.285 2.305-1.683 4.255-3.51 6.26-5.543l2.421-2.441 2.5-2.551 2.547-2.574A2086 2086 0 0 0 293 383l-.763-1.602q-1.744-3.666-3.487-7.336l-1.2-2.517a933 933 0 0 1-2.372-5.039 298 298 0 0 0-2.4-4.987l-1.133-2.37-1.028-2.1c-1.825-6.064 3.272-12.827 5.989-18.022 2.123-4.609 3.69-9.402 5.25-14.226 2.15-6.45 2.15-6.45 5.144-8.801 2.82-1.167 2.82-1.167 6.2-2.262l3.299-1.085 4.189-1.34L324 307v-30c-9.35-2.845-9.35-2.845-18.727-5.591-9.346-3.03-9.346-3.03-11.986-6.958-1.017-2.807-1.694-5.528-2.287-8.451a82 82 0 0 0-1.492-3.934q-1.38-3.498-2.75-7c-2.36-5.459-5.098-10.747-7.758-16.066h-31l6 8c14.486 21.116 20.636 45.468 16.856 70.918-4.563 23.656-17.594 45.045-37.537 58.736-20.796 13.699-45.793 18.68-70.319 14.158-23.45-5.492-44.334-18.57-57.45-38.975-13.002-21.025-17.317-45.706-12.42-70.084 3.824-15.94 11.243-29.681 22.058-41.94l1.369-1.558c2.486-2.665 4.712-4.534 8.037-6.06 5.551-2.605 5.551-2.605 9.406-7.195 1.661-8.852.788-18.084 0-27-3.107.98-5.715 1.81-8.437 3.625-3.367 1.806-5.87 2.071-9.563 1.375-4.271-1.724-8.307-3.847-12.375-6a6286 6286 0 0 0-6.523-3.375l-2.896-1.524c-5.019-2.506-8.415 3.762-11.881 7.17m44.04 50.05c-14.93 15.338-20.902 34.746-20.785 55.679.444 18.31 7.141 34.387 19.42 48l1.793 2.075c12.692 13.775 31.827 22.19 50.383 23.211 19.89.632 38.878-5.388 53.95-18.598C247.456 334.352 256.657 316.596 258 294c.2-22.664-8.808-41.661-24.437-57.625-1.958-2.323-1.958-2.323-4.563-3.375l-.078 2.851c-.572 12.557-.572 12.557-4.922 17.149-4.813 4.344-8.078 5.124-14.472 5.16l-1.977.016c-2.157.015-4.315.021-6.473.027l-4.51.017q-4.731.015-9.462.02c-4.03.006-8.059.03-12.088.058-3.107.019-6.215.024-9.322.025q-2.228.004-4.454.025a551 551 0 0 1-6.253.008l-3.586.011c-4.586-.495-8.614-1.79-12.145-4.902-3.648-4.919-4.43-7.462-4.82-13.59l-.254-3.883L134 233c-2.545 0-5.834 4.522-7.635 6.32m256.198 34.526c-2.56 3.527-2.69 6.394-2.696 10.626l-.004 3.225.012 3.365-.012 3.377.004 3.221.004 2.957c-.029 2.4-.029 2.4 1.13 4.383q17.77.034 35.542.052 8.251.007 16.502.023 7.956.016 15.912.02 3.042.003 6.085.01 4.245.01 8.491.008l2.568.011c3.754.358 3.754.358 6.9-1.124.338-4.409.324-8.83.374-13.25l.113-3.762.036-3.629.06-3.329c-.798-4.144-2.292-5.427-5.584-8.03-2.906-.49-5.224-.676-8.123-.631l-2.436-.022c-2.649-.017-5.296.003-7.945.024q-2.766 0-5.532-.007-5.791-.004-11.583.039c-4.949.034-9.897.028-14.846.01a1672 1672 0 0 0-11.419.013q-2.737.007-5.475-.002c-2.55-.005-5.097.015-7.647.042l-2.284-.02c-3.447.064-5.364.292-8.147 2.4"/>
        <path d="M431.985 330.58c3.04 2.144 4.22 5.175 5.749 8.46l1.039 2.155A957 957 0 0 1 442 348q1.02 2.136 2.045 4.269c2.087 4.36 4.148 8.732 6.205 13.106l1.104 2.348q2.781 5.913 5.555 11.828 2.42 5.154 4.862 10.298c1.354 2.86 2.697 5.725 4.041 8.589l1.433 3.003c7.373 15.815 10.994 30.674 5.012 47.595C466.7 462.136 457.961 471.04 445 477c-13.156 4.427-26.1 4.301-38.887-1.253-13.676-7-21.478-16.77-26.367-31.215-5.813-19.72 3.887-36.876 12.155-54.226q2.827-5.938 5.642-11.884l1.141-2.407c4.123-8.702 8.172-17.438 12.204-26.183 10.346-22.39 10.346-22.39 21.097-19.252M426 353c-3.55 7.63-3.55 7.63-7.09 15.263l-1.828 3.948-.963 2.08a3145 3145 0 0 1-6.688 14.312q-2.459 5.243-4.906 10.492-1.206 2.579-2.422 5.153a1442 1442 0 0 0-3.428 7.327l-1.037 2.175c-4.458 9.662-6.175 19.094-2.545 29.336 4.43 9.772 10.893 16.303 20.914 20.239 9.61 3.26 17.732 1.354 26.993-2.325 8.026-4.286 13.697-12.124 16.523-20.722 3.462-16.544-5.792-31.29-12.71-45.715a7422 7422 0 0 1-4.548-9.547l-1.12-2.353a799 799 0 0 1-10.277-22.58l-1.083-2.438-.91-2.083c-.79-1.753-.79-1.753-2.875-2.562"/>
    </g>
</svg>
