<?xml version="1.0" encoding="UTF-8"?>
<svg data-bbox="7.444 7.451 497.112 497.1" height="512" width="512" xmlns="http://www.w3.org/2000/svg" data-type="shape">
    <g>
        <path d="m259 7.482 2.11-.021a509 509 0 0 1 6.89.007q2.399-.003 4.797-.011 5.024-.008 10.047.021c4.29.023 8.58.01 12.872-.014 3.301-.015 6.602-.01 9.903 0q2.373.005 4.746-.01c2.212-.01 4.423.006 6.635.028l3.813.01C324 8 324 8 326.405 9.686c1.956 2.838 2.101 4.415 2.113 7.845l.038 3.357-.025 3.612.012 3.72q.004 3.894-.022 7.787c-.02 3.978 0 7.953.026 11.93q-.004 3.78-.016 7.563l.025 3.61c-.02 1.663-.02 1.663-.038 3.358l-.01 2.951c-.67 3.405-1.704 4.564-4.508 6.58-2.759.482-2.759.482-5.962.455l-3.64-.001-3.914-.063q-2.01-.01-4.018-.017a1278 1278 0 0 1-10.554-.099c-3.593-.04-7.186-.06-10.78-.08-7.044-.04-14.087-.118-21.132-.194v33l6 2c2.048 1.214 2.048 1.214 3.89 2.582l2.122 1.555 2.238 1.675 4.824 3.547 2.478 1.834a1306 1306 0 0 0 11.51 8.37c.745.537 1.489 1.075 2.255 1.63 5.733 4.138 11.505 8.22 17.289 12.287 5.924 4.172 11.796 8.413 17.664 12.664 5.05 3.656 10.13 7.27 15.23 10.856a1669 1669 0 0 1 19.75 14.13q6.765 4.9 13.604 9.695c23.433 16.445 23.433 16.445 25.584 27.05.96 7.483.23 13.089-4.063 19.375-3.985 4.893-9.09 8.601-15.375 9.75q-2.53.134-5.062.125l-2.598.007C379 244 379 244 376 243v21l4.68-.027q21.808-.122 43.616-.18c7.474-.021 14.949-.05 22.424-.095q9.771-.06 19.544-.075c3.45-.005 6.899-.017 10.349-.046 3.85-.033 7.7-.033 11.55-.032l3.47-.043c1.049.005 2.098.01 3.178.017l2.76-.012c3.196.648 4.397 2.002 6.429 4.493.508 1.972.508 1.972.518 4.062l.038 2.387-.025 2.55.012 2.645q.004 2.764-.022 5.527a507 507 0 0 0 .026 8.454q-.004 2.687-.016 5.375l.025 2.55c-.02 1.182-.02 1.182-.038 2.387l-.01 2.09C504 308 504 308 500 312h-12v176h12c4 4 4 4 4.531 6l-.031 2 .031 2c-.8 3.016-2.06 4.095-4.531 6a52 52 0 0 1-8.102.503l-2.507.018c-2.791.014-5.58 0-8.371-.013q-3.02.006-6.041.018c-5.547.017-11.094.009-16.642-.004-5.977-.009-11.953.005-17.93.016q-16.556.024-33.11.005-15.292-.015-30.586-.008h-2.047l-8.228.005c-25.74.012-51.48 0-77.22-.02q-34.319-.029-68.638.001a58631 58631 0 0 1-87.332.013q-15.285-.006-30.57.01-17.375.019-34.75-.012c-5.915-.01-11.83-.015-17.744-.002q-8.112.017-16.224-.016a817 817 0 0 0-5.887.008c-2.657.012-5.312 0-7.969-.02l-2.337.03c-3.52-.05-5.412-.26-8.238-2.439-1.655-2.27-2.07-3.318-2.027-6.093l-.031-2C8 492 8 492 12 488h12V312H12c-4.501-4.502-4.501-4.502-4.518-8.063l-.038-2.387.025-2.55-.012-2.645q-.004-2.764.022-5.527a507 507 0 0 0-.026-8.453q.004-2.688.016-5.375l-.025-2.551.038-2.387.01-2.09c.747-2.9 2.228-4.076 4.508-5.972 2.429-.493 2.429-.493 5.189-.481l3.178-.017 3.47.043 3.667-.001c3.314.002 6.627.022 9.94.05 3.465.025 6.93.027 10.395.032 6.559.013 13.118.045 19.677.086a6970 6970 0 0 0 22.403.086c15.36.042 30.72.113 46.081.202v-21l-3 1c-8.388.774-15.053-.47-21.75-5.688-5.33-4.94-7.794-10.813-8.277-18.023.094-7.86 2.389-13.772 8.027-19.29 4.772-3.968 9.91-7.458 15-11q2.063-1.454 4.125-2.913 3.16-2.237 6.325-4.464A1326 1326 0 0 0 152 171.5c6.5-4.71 13.039-9.363 19.605-13.98 5.16-3.635 10.284-7.317 15.395-11.02a1678 1678 0 0 1 19.597-13.974 1396 1396 0 0 0 15.653-11.214c10.87-7.86 10.87-7.86 16.125-11.562l3.023-2.141c2.354-1.456 3.955-2.034 6.602-2.61l-.027-3.503a8524 8524 0 0 1-.18-32.666q-.03-8.398-.095-16.795-.063-8.1-.078-16.203a901 901 0 0 0-.043-6.186c-.029-2.886-.033-5.77-.031-8.655l-.044-2.592c.026-3.66.111-5.784 2.089-8.929 3.27-1.996 5.584-1.978 9.409-1.988M264 24v32h48V24zm-18.25 101.687-2.092 1.49A845 845 0 0 0 237 132l-4.45 3.203q-4.529 3.262-9.046 6.543c-4.309 3.122-8.65 6.194-13.004 9.254a1510 1510 0 0 0-17.5 12.5 1694 1694 0 0 1-19.605 13.98c-5.918 4.168-11.785 8.402-17.645 12.65a1296 1296 0 0 1-15.812 11.245c-9.903 6.779-9.903 6.779-18.938 14.625-.584 3.415-.584 3.415 0 7 1.99 2.658 1.99 2.658 5 4 5.777-.168 9.29-2.935 13.75-6.25l2.234-1.62a991 991 0 0 0 4.666-3.406c3.024-2.219 6.065-4.413 9.107-6.606q2.256-1.628 4.51-3.26c5.746-4.16 11.535-8.258 17.338-12.339A1398 1398 0 0 0 193 182.499c6.5-4.71 13.036-9.362 19.603-13.978 4.419-3.11 8.809-6.256 13.181-9.43 2.992-2.171 5.991-4.33 8.992-6.488a982 982 0 0 0 4.475-3.246 774 774 0 0 1 6.499-4.67l1.95-1.438c2.677-1.884 4.993-3.18 8.198-3.902 4.745.998 8.088 3.593 11.977 6.403l2.54 1.785c5.93 4.196 11.746 8.54 17.524 12.942 5.075 3.847 10.285 7.458 15.561 11.023a418 418 0 0 1 19.441 13.98c5.076 3.844 10.284 7.455 15.559 11.02 6.014 4.064 11.91 8.23 17.688 12.625 5.42 4.106 10.876 8.148 16.437 12.062l1.973 1.424c3.75 2.608 6.7 4.206 11.402 4.389 3.01-1.342 3.01-1.342 5-4 1.085-3.369 1.085-3.369 0-7-4.959-6.537-13.68-11.102-20.367-15.758-4.583-3.195-9.112-6.46-13.633-9.742a1503 1503 0 0 0-17.5-12.5c-6.63-4.662-13.207-9.39-19.77-14.145a1534 1534 0 0 0-17.34-12.338 1037 1037 0 0 1-13.022-9.325 1896 1896 0 0 0-9.002-6.494q-2.458-1.765-4.912-3.537a973 973 0 0 0-7.704-5.474l-2.382-1.726c-3.185-2.22-5.636-3.808-9.462-4.61-4.017.896-6.901 2.936-10.156 5.336m1.188 38.5A342 342 0 0 1 228.5 177.5c-5.953 4.021-11.787 8.143-17.5 12.5s-11.547 8.477-17.5 12.5c-6.603 4.462-13.067 9.05-19.371 13.927-.572.44-1.145.878-1.734 1.33l-1.796 1.445c-2.163 1.496-4.104 2.541-6.464 3.65-5.38 2.742-10.809 5.67-13.056 11.562-1.479 7.36-1.082 14.87-.895 22.334q.006 3.786-.007 7.572-.005 8.126.131 16.253c.13 7.833.172 15.664.192 23.499.035 12.711.141 25.422.293 38.132.147 12.342.26 24.683.328 37.025l.013 2.308.06 11.466c.166 31.667.461 63.33.806 94.997h48l.113-23.52q.045-7.362.096-14.725c.054-7.795.105-15.59.137-23.387q.04-9.424.117-18.848.025-3.6.035-7.202c.01-3.355.037-6.71.07-10.064l-.005-3.027.038-2.767.014-2.405c.493-2.63 1.217-3.507 3.385-5.055 1.985-.378 1.985-.378 4.289-.381l2.65-.026c1.436.01 1.436.01 2.9.018l3.061-.016c3.346-.013 6.692-.004 10.037.006q3.48-.003 6.961-.009 7.298-.006 14.597.016c6.245.018 12.49.008 18.734-.01 4.792-.011 9.584-.008 14.376 0q3.454.003 6.91-.007c3.215-.008 6.43.004 9.645.02l2.9-.018 2.651.026 2.304.003c2.59.493 3.457 1.244 4.985 3.378.385 2.055.385 2.055.399 4.46l.038 2.767-.005 3.027.031 3.194c.03 3.49.04 6.98.049 10.47q.025 3.626.054 7.25c.048 6.368.077 12.735.104 19.102.035 7.637.092 15.274.145 22.91.079 11.607.13 23.213.185 34.82h48c.375-32.41.689-64.816.868-97.226l.08-13.8c.073-12.331.207-24.66.364-36.99q.237-18.99.288-37.983c.023-7.808.096-15.612.235-23.419.1-5.996.11-11.99.088-17.986q.006-3.68.103-7.358c.738-12.34.738-12.34-3.706-23.394-4.011-3.732-8.473-6.388-13.353-8.83-2.514-1.296-4.725-2.89-6.967-4.608l-2.03-1.473L334 213.5a1494 1494 0 0 0-17.5-12.5 1696 1696 0 0 1-19.763-14.14 1348 1348 0 0 0-17.525-12.455 372 372 0 0 1-10.47-7.6l-2.067-1.555a367 367 0 0 1-3.855-2.95c-6.742-5.083-9.893-2.879-15.882 1.887M24 280v16h112v-16zm352 0v16h112v-16zM40 312v176h96V312zm336 0v176h96V312zm-160 80v96h32v-96zm48 0v96h32v-96z"/>
        <path d="m275 295.482 2.11-.021a509 509 0 0 1 6.89.007q2.399-.003 4.797-.011 5.024-.008 10.047.021c4.29.023 8.58.01 12.872-.014 3.301-.015 6.602-.01 9.903 0q2.373.005 4.746-.01c2.212-.01 4.423.006 6.635.028l3.813.01c3.187.508 3.187.508 5.592 2.194 1.956 2.838 2.101 4.415 2.113 7.845l.038 3.357-.025 3.612.012 3.72q.004 3.894-.022 7.787c-.02 3.978 0 7.953.026 11.93q-.004 3.78-.016 7.563l.025 3.61-.038 3.358-.01 2.952c-.677 3.438-1.645 4.572-4.508 6.58-3.187.508-3.187.508-7 .517l-2.11.021a509 509 0 0 1-6.89-.007q-2.399.004-4.797.011-5.024.008-10.047-.02c-4.29-.024-8.58-.01-12.872.013-3.301.015-6.602.01-9.903 0q-2.373-.005-4.746.01c-2.212.01-4.423-.006-6.635-.028l-3.812-.01C268 360 268 360 265.595 358.314c-1.956-2.838-2.101-4.415-2.113-7.845l-.038-3.357.025-3.611-.012-3.721q-.004-3.894.022-7.787c.02-3.977 0-7.953-.026-11.93q.004-3.781.016-7.562l-.025-3.612.038-3.357.01-2.951c1.282-6.513 5.563-7.083 11.508-7.098M280 312v32h48v-32z"/>
        <path d="m179 295.482 2.11-.021a509 509 0 0 1 6.89.007q2.399-.003 4.797-.011 5.024-.008 10.047.021c4.29.023 8.58.01 12.872-.014 3.301-.015 6.602-.01 9.903 0q2.373.005 4.746-.01c2.212-.01 4.423.006 6.635.028l3.813.01c3.187.508 3.187.508 5.592 2.194 1.956 2.838 2.101 4.415 2.113 7.845l.038 3.357-.025 3.612.012 3.72q.004 3.894-.022 7.787c-.02 3.978 0 7.953.026 11.93q-.004 3.78-.016 7.563l.025 3.61-.038 3.358-.01 2.952c-.677 3.438-1.645 4.572-4.508 6.58-3.187.508-3.187.508-7 .517l-2.11.021a509 509 0 0 1-6.89-.007q-2.399.004-4.797.011-5.024.008-10.047-.02c-4.29-.024-8.58-.01-12.872.013-3.301.015-6.602.01-9.903 0q-2.373-.005-4.746.01c-2.212.01-4.423-.006-6.635-.028l-3.812-.01C172 360 172 360 169.595 358.314c-1.956-2.838-2.101-4.415-2.113-7.845l-.038-3.357.025-3.611-.012-3.721q-.004-3.894.022-7.787c.02-3.977 0-7.953-.026-11.93q.004-3.781.016-7.562l-.025-3.612.038-3.357.01-2.951c1.282-6.513 5.563-7.083 11.508-7.098M184 312v32h48v-32z"/>
        <path d="M278.418 197.508c8.803 6.34 15.419 14.726 17.582 25.492 1.338 12.417.275 23.39-7.187 33.75-6.813 8.085-15.118 14.313-25.884 15.473-12.911.896-23.68-.67-33.863-9.25-8.518-8.132-13.068-16.78-13.537-28.608-.155-12.514 2.663-22.138 11.471-31.365 13.78-13.155 35.105-15.665 51.418-5.492m-41.973 21.395C232.32 224.889 232.284 230.95 233 238c1.773 6.645 6.447 11.174 12 15 5.999 2.94 12.883 3.099 19.313 1.383 6.128-2.705 10.927-7.791 13.859-13.773 1.942-6.119 1.888-13.197-.86-19.047-3.306-5.584-8.044-10.496-14.312-12.563-11.838-1.497-18.912.962-26.555 9.903"/>
        <path d="m401.531 407.482 3.357-.038 3.612.024 3.72-.011q3.894-.004 7.788.021c3.977.021 7.952 0 11.93-.025q3.78.003 7.562.015l3.611-.024 3.358.038 2.95.01c3.392.667 4.556 1.73 6.58 4.508.509 2.58.509 2.58.518 5.53l.039 3.358-.025 3.612.012 3.72q.003 3.894-.022 7.787c-.021 3.978 0 7.953.026 11.93q-.004 3.78-.016 7.563l.025 3.61-.039 3.358-.01 2.952c-.667 3.39-1.73 4.555-4.507 6.58-2.58.508-2.58.508-5.531.517l-3.358.038-3.611-.024-3.721.011q-3.894.004-7.787-.02c-3.977-.022-7.953-.001-11.93.024q-3.78-.003-7.562-.015l-3.612.024-3.357-.038-2.951-.01c-3.391-.667-4.556-1.73-6.58-4.507-.508-2.58-.508-2.58-.518-5.532l-.038-3.357.024-3.611-.011-3.721q-.004-3.894.021-7.787c.022-3.977 0-7.953-.025-11.93q.004-3.781.016-7.562l-.025-3.612.038-3.357.01-2.951c1.122-5.7 4.642-7.08 10.039-7.098M408 424v32h32v-32z"/>
        <path d="m65.531 407.482 3.357-.038 3.612.024 3.72-.011q3.894-.004 7.788.021c3.977.021 7.952 0 11.93-.025q3.78.003 7.562.015l3.611-.024 3.358.038 2.95.01c3.392.667 4.556 1.73 6.58 4.508.509 2.58.509 2.58.518 5.53l.039 3.358-.025 3.612.012 3.72q.003 3.894-.022 7.787c-.021 3.978 0 7.953.026 11.93q-.004 3.78-.016 7.563l.025 3.61-.039 3.358-.01 2.952c-.667 3.39-1.73 4.555-4.507 6.58-2.58.508-2.58.508-5.531.517l-3.358.038-3.611-.024-3.721.011q-3.893.004-7.787-.02c-3.977-.022-7.953-.001-11.93.024q-3.78-.003-7.562-.015l-3.612.024-3.357-.038-2.951-.01c-3.391-.667-4.556-1.73-6.58-4.507-.508-2.58-.508-2.58-.518-5.532l-.038-3.357.025-3.611-.012-3.721q-.004-3.894.021-7.787c.022-3.977 0-7.953-.025-11.93q.004-3.781.016-7.562l-.025-3.612.038-3.357.01-2.951c1.122-5.7 4.642-7.08 10.039-7.098M72 424v32h32v-32z"/>
        <path d="m401.531 327.482 3.357-.038 3.612.024 3.72-.011q3.894-.005 7.788.021c3.977.021 7.952 0 11.93-.025q3.78.003 7.562.015l3.611-.024 3.358.038 2.95.01c3.392.667 4.556 1.73 6.58 4.508.509 2.58.509 2.58.518 5.53l.039 3.358-.025 3.612.012 3.72q.003 3.894-.022 7.787c-.021 3.978 0 7.953.026 11.93q-.004 3.78-.016 7.563l.025 3.61-.039 3.358-.01 2.952c-.667 3.39-1.73 4.555-4.507 6.58-2.58.508-2.58.508-5.531.517l-3.358.038-3.611-.024-3.721.011q-3.894.004-7.787-.02c-3.977-.022-7.953-.001-11.93.024q-3.78-.003-7.562-.015l-3.612.024-3.357-.038-2.951-.01c-3.391-.667-4.556-1.73-6.58-4.507-.508-2.58-.508-2.58-.518-5.532l-.038-3.357.024-3.611-.011-3.721q-.004-3.894.021-7.787c.022-3.977 0-7.953-.025-11.93q.004-3.781.016-7.562l-.025-3.612.038-3.357.01-2.951c1.122-5.7 4.642-7.08 10.039-7.098M408 344v32h32v-32z"/>
        <path d="m65.531 327.482 3.357-.038 3.612.024 3.72-.011q3.894-.005 7.788.021c3.977.021 7.952 0 11.93-.025q3.78.003 7.562.015l3.611-.024 3.358.038 2.95.01c3.392.667 4.556 1.73 6.58 4.508.509 2.58.509 2.58.518 5.53l.039 3.358-.025 3.612.012 3.72q.003 3.894-.022 7.787c-.021 3.978 0 7.953.026 11.93q-.004 3.78-.016 7.563l.025 3.61-.039 3.358-.01 2.952c-.667 3.39-1.73 4.555-4.507 6.58-2.58.508-2.58.508-5.531.517l-3.358.038-3.611-.024-3.721.011q-3.893.004-7.787-.02c-3.977-.022-7.953-.001-11.93.024q-3.78-.003-7.562-.015l-3.612.024-3.357-.038-2.951-.01c-3.391-.667-4.556-1.73-6.58-4.507-.508-2.58-.508-2.58-.518-5.532l-.038-3.357.025-3.611-.012-3.721q-.004-3.894.021-7.787c.022-3.977 0-7.953-.025-11.93q.004-3.781.016-7.562l-.025-3.612.038-3.357.01-2.951c1.122-5.7 4.642-7.08 10.039-7.098M72 344v32h32v-32z"/>
    </g>
</svg>
