<?xml version="1.0" encoding="UTF-8"?>
<svg data-bbox="5.568 34.687 500.866 442.746" height="512" width="512" xmlns="http://www.w3.org/2000/svg" data-type="shape">
    <g>
        <path d="m255.75 34.75 3.5-.062c9.375-.043 16.21 1.198 23.277 7.703 5.399 5.9 5.63 12.832 5.536 20.422l-.014 2.1q-.02 2.543-.049 5.087l1.877-.011q22.663-.134 45.325-.196 10.96-.028 21.92-.095 9.557-.06 19.115-.074c3.37-.006 6.741-.018 10.112-.047 3.772-.03 7.544-.033 11.317-.031l3.348-.044c12.906.069 21.945 5.217 30.895 14.246 3.234 3.482 5.968 7.257 8.716 11.127a596 596 0 0 0 16.229 21.458 168 168 0 0 1 3.15 4.13c1.984 2.62 1.984 2.62 4.49 5.064 10.049 10.862 8.884 23.488 8.667 37.53-.044 3.537-.029 7.073-.021 10.61a1816 1816 0 0 1-.083 18.335 3445 3445 0 0 0-.12 26.509c-.021 14.34-.088 28.68-.183 43.02q-.14 20.88-.205 41.764l-.008 2.605-.038 12.937C472.4 354.56 472.223 390.28 472 426l2.675-.037 3.524-.03 3.487-.037c7.66.24 13.09 2.883 18.584 8.178 5.883 6.547 6.382 12.635 6.105 21.363-.813 7.727-4.185 11.869-9.79 17.02-9.54 5.693-20.31 4.967-31.032 4.924q-2.823.005-5.647.014c-5.157.013-10.314.006-15.472-.003-5.568-.007-11.135.004-16.703.012-10.902.013-21.803.01-32.705.002q-13.29-.01-26.58-.005l-3.823.002-7.687.003q-35.01.01-70.018-.016-31.944-.021-63.889.001a67998 67998 0 0 1-79.475.01l-3.806-.001q-13.274-.003-26.547.009-16.178.013-32.355-.01-8.252-.013-16.505-.001-7.558.013-15.115-.012-2.73-.005-5.463.006c-23.32.086-23.32.086-32.068-8.466-5.812-6.603-6.348-12.616-6.07-21.363.721-6.852 3.164-10.653 8.063-15.375 6.355-5.118 12.023-6.341 20.113-6.254l3.524.029L40 426l-.034-3.238a5824 5824 0 0 1-.225-30.194 2678 2678 0 0 0-.118-15.523q-.08-7.489-.097-14.978-.015-2.86-.055-5.717a553 553 0 0 1-.039-8.001l-.054-2.394c.036-3.855.289-5.59 2.93-8.48 3.67-2.011 5.719-1.579 9.692-.475 1.69 1.044 1.69 1.044 3 3 .28 2.82.379 5.416.34 8.235l.002 2.543c-.002 2.776-.026 5.552-.049 8.327q-.009 2.886-.013 5.772c-.011 5.065-.04 10.13-.074 15.195-.036 6.077-.05 12.153-.067 18.23-.03 9.233-.087 18.465-.139 27.698h49V148H55l.048 14.808q.073 24.176.107 48.351c.016 9.775.037 19.55.071 29.325q.046 12.779.056 25.556.004 6.768.035 13.535.03 6.367.022 12.736.001 2.339.019 4.677c.015 2.127.011 4.254.003 6.38l.008 3.61c-.403 3.3-1.042 4.686-3.369 7.022-2.156.531-2.156.531-4.5.5l-2.344.031C43 314 43 314 41.394 312.4c-1.873-3.224-1.803-5.597-1.849-9.32l-.038-2.11a755 755 0 0 1-.07-7.002q-.033-2.512-.07-5.023c-.073-5.503-.114-11.007-.152-16.51l-.045-5.701c-.06-7.915-.112-15.83-.142-23.746a3306 3306 0 0 0-.292-33.918 2026 2026 0 0 1-.175-23.901c-.01-4.749-.042-9.495-.133-14.242-.642-35.323-.642-35.323 10.04-47.38a154 154 0 0 1 3.669-3.661c3.356-3.396 6.12-7.266 8.988-11.073q1.738-2.224 3.484-4.44c2.807-3.594 5.53-7.242 8.23-10.915C81.26 82.04 88.188 74.604 102 70a91 91 0 0 1 4.992-.12l3.124-.004 3.424.01h3.607q4.896.001 9.793.013c3.41.006 6.822.006 10.233.008q9.69.005 19.38.021 11.031.015 22.062.022 22.693.016 45.385.05l-.04-3.34-.03-4.375-.029-2.196c-.042-8.2 1.917-13.55 7.486-19.616 6.977-6.37 15.542-5.684 24.363-5.723M92.836 93.14l-1.946 2.39L89 98l-1.866 2.393a460 460 0 0 0-5.509 7.357q-1.95 2.63-3.902 5.258l-1.906 2.567c-3.312 4.42-6.732 8.756-10.157 13.09-1.853 2.13-1.853 2.13-1.66 4.335h384c-1.489-2.978-2.825-5.282-4.766-7.914l-1.678-2.281-1.806-2.43-1.867-2.518c-4.44-5.964-8.916-11.9-13.445-17.794l-1.73-2.274C417.742 91.38 413.055 87.096 405 85c-4.072-.423-8.117-.41-12.208-.388l-3.687-.016c-3.36-.012-6.72-.01-10.08-.003-3.631.005-7.262-.008-10.893-.018-7.106-.017-14.212-.018-21.319-.013q-8.666.006-17.333-.002l-2.494-.003-5.017-.004a29251 29251 0 0 0-47.021.003c-14.33.01-28.659-.003-42.988-.027a20947 20947 0 0 0-44.173-.027c-8.262.003-16.524 0-24.786-.017q-10.55-.022-21.1.002c-3.587.009-7.173.011-10.759-.004a1333 1333 0 0 0-11.68.016l-3.409-.03c-8.68.082-17.503 1.518-23.217 8.672M119 148v18h57v-18zm72 0v278h266V148zm-72 33v42h57v-42zm0 57v42h57v-42zm0 57v41h57v-41zm0 57v41h57v-41zm0 57v17h57v-17z"/>
        <path d="M257.834 234.333c7.44 2.292 12.981 13.448 17.04 19.667.6.913 1.2 1.826 1.82 2.766C285.137 269.706 292.96 282.322 298 297l.875 2.371c2.815 9.308.468 20.617-3.625 29.191-6.547 11.66-15.514 18.326-28.25 22.438-12.643 3.02-24.702.366-35.813-6.125-10.016-6.833-15.957-16.535-18.5-28.25C209.201 293.803 225.315 270.797 238 253l1.46-2.05c12.075-16.86 12.075-16.86 18.374-16.617"/>
    </g>
</svg>
