<?xml version="1.0" encoding="UTF-8"?>
<svg data-bbox="8.682 8.469 494.94 495.24" height="512" width="512" xmlns="http://www.w3.org/2000/svg" data-type="shape">
    <g>
        <path d="m17.58 8.612 3.518-.03 3.863.014q2.033-.009 4.066-.021c3.682-.018 7.363-.017 11.045-.011 3.072.003 6.143-.003 9.215-.01q10.867-.019 21.735 0c7.48.011 14.959-.003 22.438-.03q9.627-.032 19.254-.023 5.752.008 11.504-.016 5.407-.021 10.815.007c1.956.006 3.913-.008 5.87-.023l3.518.03h3.063C150 9 150 9 151.816 10.87c1.73 3.113 1.743 4.565 1.184 8.13-1.606 3.685-3.567 7.14-5.562 10.626l-1.656 2.962c-3.442 6.137-6.947 12.24-10.575 18.268C133.872 53.07 133.872 53.07 133 56l2.125.5c5.055 2.637 7.833 7.32 10.25 12.375C147.032 77.157 146.477 84.678 142 92c-4.329 4.902-7.503 7.7-14 9l1 122 8 4c5.444 4.491 8.396 10.453 9.317 17.379.367 7.572-1.333 14.241-6.41 19.992-4.129 3.86-6.203 5.488-11.907 6.629l1 137h119l1-37-5-1c-5.913-3.899-10.506-9.055-12.578-15.914-1.755-8.679.053-15.454 4.676-22.84 2.285-3.09 4.68-4.79 8.074-6.414l2.175-1.052L248 323l.011-2.689q.058-12.661.173-25.324c.04-4.338.072-8.675.087-13.013q.025-6.303.098-12.605.021-2.38.023-4.762c.031-28.72 9.736-51.963 29.608-72.607l1.77-1.996c15.808-17.33 41.565-24.837 64.23-26.004 7.754-.177 15.511-.117 23.266-.098l6.742.004q8.818.007 17.636.025 9.02.014 18.04.02 17.658.016 35.316.049l-.063-1.773a662 662 0 0 1-.187-7.977l-.101-2.79c-.098-6.77-.098-6.77 2.049-10.07 2.702-1.632 4.245-1.891 7.39-1.892l3.064-.028 3.29.034 3.391-.005a880 880 0 0 1 7.094.034c3.626.03 7.25.02 10.876.008q3.444.009 6.889.025l3.295-.009 3.055.039 2.688.016c2.834.484 3.546 1.11 5.27 3.388.378 2.516.378 2.516.381 5.58l.026 3.517c-.01 1.913-.01 1.913-.018 3.864q.006 2.033.016 4.065c.013 3.682.008 7.363-.002 11.045-.007 3.85 0 7.7.005 11.551q.006 9.7-.016 19.4c-.017 7.479-.012 14.958.005 22.437q.02 9.627.008 19.254-.01 5.753.004 11.504.012 5.407-.014 10.815c-.006 1.957.003 3.913.012 5.87l-.026 3.518-.003 3.064C503 281 503 281 501.618 282.824c-2.244 1.63-3.817 1.563-6.576 1.58l-3.055.038-3.295-.009-3.389.016q-3.549.01-7.099-.003c-3.624-.009-7.246.02-10.87.052q-3.446.001-6.892-.002l-3.29.034-3.063-.029h-2.692C449 284 449 284 445 280v-21l-101 1v64l5 1c6.132 3.836 10.3 8.951 12 16 .93 7.892.56 14.373-4 21l-1.812 2.75c-2.83 2.91-5.555 4.433-9.188 6.25h-2l.048 3.462c.055 4.337.09 8.674.117 13.011q.022 2.789.062 5.576c.222 16.114-.341 32.583-6.352 47.763l-.904 2.36c-3.057 7.616-7.125 14.233-11.97 20.828l-2.118 2.918C307.871 486.412 284.403 499.82 260 503c-9.99.698-20.03.572-30.04.537-3.908-.01-7.817 0-11.727.006-6.559.007-13.118-.003-19.677-.022-7.538-.022-15.075-.015-22.612.007q-9.783.028-19.564.01c-3.873-.005-7.746-.007-11.619.007-20.15.06-38.223-.593-56.76-9.545l-2.688-1.266c-21.503-10.877-37.667-29.674-46.25-52.047-.27-.684-.54-1.369-.82-2.074-6.504-18.264-5.656-37.927-5.547-57.012.02-3.9.02-7.802.024-11.703.01-7.355.034-14.71.064-22.066.034-8.387.05-16.774.065-25.161Q32.9 296.835 33 271l-2.84-.899C23.43 267.755 20.238 263.062 17 257c-2.173-6.52-2.01-14.46.5-20.875C20.684 229.95 25.9 226.05 32 223l1-122-6-2c-5.504-3.49-8.96-8.881-11-15-.856-8.72-.248-15.79 5-23 2.222-2.29 4.428-4.084 7-6-1.424-3.795-3.164-7.25-5.152-10.782l-1.853-3.3-1.932-3.418-1.92-3.418c-3.334-5.95-3.334-5.95-6.823-11.81C8.204 18.628 8.598 16.16 9 12c2.342-3.425 4.602-3.378 8.58-3.388M29 23l7 14 2.068 4.597c2.573 5.419 4.661 9.585 10.504 11.689 4.361.636 8.672.405 13.057.179a589 589 0 0 1 4.805-.065c4.19-.057 8.373-.204 12.56-.37 4.284-.155 8.567-.222 12.852-.298 8.389-.16 16.77-.416 25.154-.732a17943 17943 0 0 0 7.868-14.017q1.439-2.562 2.875-5.124l1.745-3.11a194 194 0 0 0 3.512-6.75zm3.188 48.75C30.455 75.034 30.55 77.34 31 81c1.796 2.753 3.053 4.526 6 6 2.75.119 5.475.178 8.226.193l2.578.024q4.233.036 8.466.056l2.917.016q7.644.04 15.287.06c5.266.017 10.532.062 15.798.113 4.047.034 8.093.045 12.14.051q2.911.01 5.824.046c2.717.031 5.433.032 8.15.024l2.43.05c4.031-.045 5.942-.445 9.16-2.951C130.514 81.32 131 79.197 131 75c-1.737-4.248-3.91-6.046-8-8a73 73 0 0 0-8.199-.389l-2.46-.015a921 921 0 0 0-8.028.005l-5.593-.008q-5.855-.006-11.71.016c-5.001.017-10.001.007-15.001-.011-3.849-.011-7.697-.008-11.546 0q-2.765.003-5.53-.007c-2.578-.008-5.155.004-7.733.02l-2.302-.018c-5.543.066-8.756 1.339-12.71 5.157M48 102v120h65V102zm412 53v114h29V155zm-176.187 52.25c-14.913 17.572-20.342 37.199-20.106 59.77q.009 2.392.013 4.786c.012 4.155.041 8.309.074 12.463.037 5.008.05 10.017.068 15.026.029 7.569.086 15.136.138 22.705h65l.079-14.227q.036-4.47.082-8.941c.048-4.727.092-9.454.11-14.181q.025-5.719.098-11.438.022-2.178.023-4.356c.003-2.04.03-4.078.063-6.118l.026-3.512c.843-5.24 3.355-8.31 7.457-11.54 5.718-3.15 11.433-2.853 17.81-2.893l2.958-.03q4.828-.045 9.658-.08l6.704-.064q8.816-.081 17.632-.153 10.581-.09 21.163-.19c10.712-.098 21.425-.187 32.137-.277v-65c-17.762-.059-17.762-.059-35.525-.098-7.255-.012-14.51-.026-21.764-.053q-8.783-.032-17.565-.04-3.334-.005-6.67-.02c-31.143-.147-57.408 4.822-79.663 28.46m-251.625 34.5c-1.733 3.284-1.637 5.59-1.188 9.25 1.796 2.753 3.053 4.526 6 6 2.75.119 5.475.178 8.226.193l2.578.024q4.233.036 8.466.056l2.917.016q7.644.04 15.287.06c5.266.017 10.532.062 15.798.113 4.047.034 8.093.045 12.14.051q2.911.01 5.824.046c2.717.031 5.433.032 8.15.024l2.43.05c4.031-.045 5.942-.445 9.16-2.951C130.514 251.32 131 249.197 131 245c-1.737-4.248-3.91-6.046-8-8a73 73 0 0 0-8.199-.389l-2.46-.015a921 921 0 0 0-8.028.005l-5.593-.008q-5.855-.006-11.71.016c-5.001.017-10.001.007-15.001-.011-3.849-.011-7.697-.008-11.546 0q-2.765.003-5.53-.007c-2.578-.008-5.155.004-7.733.02l-2.302-.018c-5.543.066-8.756 1.339-12.71 5.157M48 272c-.087 24.29-.087 24.29-.146 48.58-.018 9.917-.039 19.833-.08 29.75q-.046 10.838-.056 21.675a2407 2407 0 0 1-.035 11.455C47.52 412.93 49.703 438.836 70 462l1.797 2.086C86.735 480.236 108.574 487.657 130 489c3.945.128 7.886.147 11.833.145l3.38.01q5.478.013 10.955.013l7.696.01q8.047.009 16.096.007 9.234.001 18.469.026a6964 6964 0 0 0 17.92.017q3.776.002 7.553.014c30.047.084 55.655-2.256 79.098-23.242l1.922-1.637c14.782-13.46 22.475-34.92 24.078-54.363.117-3.066.118-6.124.098-9.192l-.003-2.236c-.005-2.712-.02-5.423-.032-8.135L329 372h-65c-.21 11.487-.21 11.487-.388 22.974q-.048 2.185-.1 4.37l-.019 2.23c-.182 6.656-1.576 12.173-5.993 17.363-3.558 2.936-6.171 3.19-10.635 3.21l-3.22.022-3.532.008-3.721.02q-6.11.028-12.22.041l-4.21.012q-9.894.03-19.788.042-11.409.015-22.818.076-8.826.044-17.652.049c-3.512.002-7.023.011-10.535.036-3.921.028-7.842.024-11.763.017l-3.508.038c-6.521-.042-10.622-.56-15.898-4.508-3.537-4.717-4.12-8.9-4.158-14.682l-.03-3.51-.017-3.839-.03-4.05q-.04-5.494-.068-10.99-.035-5.742-.076-11.486-.074-10.875-.138-21.749-.09-14.696-.19-29.391c-.104-15.435-.198-30.869-.293-46.303zm198.563 70.812c-.876 3.406-.454 5.8.437 9.188 2.802 3.715 4.26 4.88 8.909 5.628q2.328.038 4.658.003l2.579.021a618 618 0 0 0 8.417-.023q2.931 0 5.861.007 6.139.003 12.277-.04c5.242-.033 10.484-.027 15.726-.009 4.034.01 8.068.002 12.102-.013q2.899-.008 5.798.001c2.703.006 5.404-.015 8.107-.042l2.415.02c5.004-.086 7.653-.944 11.151-4.553 1.575-3.15 1.348-5.52 1-9-2.003-3.48-4.12-5.707-8-7-2.66-.112-5.295-.168-7.956-.177l-2.455-.02q-4.023-.028-8.046-.042l-2.777-.012q-7.275-.03-14.551-.044a2627 2627 0 0 1-15.02-.086c-3.853-.026-7.706-.034-11.559-.038a747 747 0 0 1-5.536-.035 647 647 0 0 0-7.755-.016l-2.3-.04c-5.8.058-9.838 1.727-13.482 6.322"/>
        <path d="M407 401c4.698 3.873 7.055 8.394 9.688 13.746l1.287 2.568q1.344 2.689 2.672 5.384a1142 1142 0 0 0 4.048 8.097c16.514 33.056 16.514 33.056 12.657 50.064-3.307 9.101-9.644 15.942-18.352 20.141-8.543 3.488-21.359 3.7-30.02.098-8.731-4.84-14.528-11.19-18.355-20.41-3.237-19.101 5.372-34.61 13.766-51.142a1528 1528 0 0 0 5.01-9.991q1.596-3.177 3.197-6.352l1.506-3.017 1.416-2.775 1.235-2.442c2.638-4.171 5.64-4.614 10.245-3.969m-3 25c-14.066 23.244-14.066 23.244-19 49 2.065 5.851 5.61 8.928 10.828 12.117 4.929 2.004 11.301 1.795 16.336.195 4.753-2.512 8.44-6.522 10.836-11.312 1.879-13.233-6.19-25.85-11.812-37.312l-1.811-3.725A3172 3172 0 0 0 405 426z"/>
        <path d="M470.438 306.813c3.809 1.27 4.1 1.477 5.99 4.692l1.292 2.193a301 301 0 0 1 6.003 11.412l1.295 2.57q1.345 2.676 2.685 5.355c1.351 2.698 2.716 5.39 4.08 8.083C503.81 365 503.81 365 503.564 377.125l-.027 2.331c-.285 7.981-2.817 13.419-8.036 19.42L493 401l-2.25 2.062c-8.337 5.874-17.128 7.696-27.3 6.684-8.618-1.652-16.836-5.819-22.082-12.973-6.118-9.546-7.162-17.646-5.368-28.774 2.67-10.709 7.95-20.361 12.938-30.125l2.42-4.785q2.301-4.552 4.622-9.094c2.04-4.006 3.98-8.057 5.855-12.143 2.292-3.642 4.335-4.807 8.603-5.04M469.001 332q-3.36 6.494-6.672 13.012a812 812 0 0 1-2.266 4.41c-8.853 16.012-8.853 16.012-8.906 33.613 2.364 5.505 5.272 7.973 10.594 10.402 5.916 2.09 10.693 2.154 16.449-.422 4.495-2.56 7.693-5.185 9.8-10.016 2.221-14.041-5.636-26.728-11.812-38.812q-.907-1.79-1.81-3.58A2509 2509 0 0 0 470 332z"/>
    </g>
</svg>
