<?xml version="1.0" encoding="UTF-8"?>
<svg data-bbox="-0.342 0.318 512.672 511.234" height="512" width="512" xmlns="http://www.w3.org/2000/svg" data-type="shape">
    <g>
        <path d="m232.271.467 3.772-.048 4.05.015q2.09-.007 4.18-.019 4.373-.014 8.746.009c3.73.017 7.457-.006 11.186-.041a819 819 0 0 1 8.627-.013q2.063.001 4.124-.02c12.076-.11 12.076-.11 15.392 2.917 1.636 2.708 2.26 3.985 2.175 7.097l-.035 2.44-.113 2.509-.043 2.475c-.123 5.127-.62 10.135-1.332 15.212l2.519.274c4.139.864 7.433 2.421 11.168 4.351l2.138 1.095c27.403 14.224 48.22 36.862 57.886 66.459 1.27 4.235 2.337 8.503 3.289 12.821l.593 2.618c.418 2.45.506 4.713.469 7.195l-.027 2.394L371 132l3.187-.25c4.381.288 5.761 1.199 8.813 4.25 1.67 3.341 1.184 7.096 1.203 10.77l.017 2.646q.014 2.775.02 5.55c.01 2.825.04 5.65.072 8.474q.01 2.696.016 5.392l.037 2.555c-.017 4.641-.174 7.96-3.365 11.613-3.533 1.961-6.524 2.24-10.52 2.196l-3.096-.02-3.197-.05-3.256-.028q-3.966-.035-7.931-.098c.015.922.03 1.843.047 2.792q.077 5.241.117 10.484.022 2.247.062 4.494c.42 24.487-6.185 44.438-23.039 62.48-4.839 4.672-10.51 8.193-16.187 11.75q.967 4.376 1.937 8.75l.553 2.5.537 2.422.492 2.222a261 261 0 0 0 1.48 6.106l2.792.045q5.243.094 10.484.218 2.247.049 4.494.084c18.773.296 35.726 3.26 51.23 14.653 3.146-7.694 5.15-15.682 7.254-23.707l1.253-4.734q1.337-5.053 2.668-10.107a9164 9164 0 0 1 4.204-15.887c4-15.078 7.992-30.159 11.957-45.247q2.476-9.416 4.975-18.825 1.74-6.561 3.452-13.13c.872-3.335 1.761-6.665 2.648-9.995l.928-3.603.888-3.3.75-2.851c1.22-3.114 2.73-5.188 5.024-7.614 7.48-2.235 14.356.238 21.695 2.227l3.958 1.045q4.131 1.093 8.255 2.214a1098 1098 0 0 0 10.544 2.794c2.723.712 5.441 1.44 8.159 2.172a865 865 0 0 0 5.766 1.517C503.873 170.13 503.873 170.13 508 175c2.177 5.561-.072 10.862-1.711 16.329q-.89 3.125-1.774 6.253l-.94 3.3c-4.991 17.686-9.06 34.36-8.528 52.807.202 7.096-.244 13.43-1.685 20.367l-.537 2.623c-2.196 10.458-4.98 20.756-7.77 31.068l-1.728 6.441q-2.26 8.427-4.535 16.849c-1.509 5.594-3.01 11.19-4.511 16.786A39662 39662 0 0 1 454 423l3.105.114q2.04.098 4.082.199l2.041.068c4.371.235 7.277.954 10.772 3.62 1.435 2.87 1.111 5.335 1.097 8.539l-.01 3.945-.025 4.14-.014 4.165A3988 3988 0 0 1 475 458l2.766-.063q5.102-.1 10.203-.156 2.205-.03 4.409-.082c2.117-.05 4.234-.072 6.352-.09l3.856-.063c3.99.531 5.593 1.644 8.414 4.454 1.596 3.193 1.514 6.535 1 10-1.87 2.432-3.282 3.641-6 5-2.69.1-5.354.136-8.044.13l-2.562.004q-4.295.006-8.59 0l-6.184.007q-8.533.008-17.065.005-9.19.001-18.377.01-18.015.011-36.03.012a104742 104742 0 0 0-39.804.009 175067 175067 0 0 1-72.38.009h-6.78q-35.185 0-70.37.02a127800 127800 0 0 1-87.422.023h-2.094q-16.704 0-33.41.015-16.779.014-33.558.003-9.097-.006-18.193.005-8.317.012-16.636-.002-3.018-.003-6.036.006c-2.723.007-5.447.002-8.17-.007l-2.397.015C5.04 477.22 5.04 477.22 2 475c-2.457-3.685-2.701-6.72-2-11 1.793-2.81 3.018-4.509 6-6a160 160 0 0 1 6.757-.097l2.01.004q3.178.01 6.358.03l4.308.015q5.283.016 10.567.048l-.048-2.291a1475 1475 0 0 1-.14-10.334l-.076-3.605c-.094-11.183-.094-11.183 3.264-15.77 3.386-2.257 4.516-2.244 8.48-2.227h3.397l3.665.032 3.754.009q4.935.015 9.869.05c3.358.02 6.716.029 10.075.039q9.88.034 19.76.097l-.014-1.904q-.066-9.93-.096-19.86-.015-3.693-.041-7.384c-.025-3.565-.036-7.13-.045-10.695l-.031-3.263c-.001-8.754 1-17.243 2.227-25.894l-3.39-.024q-15.804-.116-31.607-.263-8.124-.076-16.25-.134-7.839-.056-15.678-.137-2.992-.027-5.985-.045c-2.792-.017-5.583-.046-8.375-.078l-2.506-.006c-7.54-.11-7.54-.11-10.21-2.313-3.857-5.705-3.42-11.368-3.38-17.994l-.015-3.69c-.01-3.373-.006-6.745.003-10.118.007-3.64-.003-7.28-.012-10.92a6928 6928 0 0 1-.001-21.384q.009-8.69.004-17.38l-.001-2.498-.003-5.025c-.009-15.706.001-31.412.017-47.119q.02-20.214-.003-40.43a29080 29080 0 0 1-.01-51.956l.001-2.488q.003-8.679-.008-17.358-.014-10.578.01-21.154c.007-3.598.01-7.195 0-10.793-.01-3.9.003-7.799.018-11.698l-.02-3.448c.074-9.969.074-9.969 3.4-14.547 3.542-2.906 8.163-2.288 12.53-2.278l2.634-.018a1702 1702 0 0 1 8.752-.022l6.267-.03c5.678-.028 11.355-.043 17.032-.056 5.931-.016 11.862-.043 17.793-.068q16.851-.069 33.702-.117c12.788-.038 25.576-.088 38.364-.138Q182.537 39.119 222 39l-.2-2.152c-.297-3.26-.58-6.523-.863-9.785l-.314-3.385C219.456 9.958 219.456 9.958 221 5c3.39-3.95 6.188-4.504 11.27-4.533M240 20c1.592 24.673 3.199 49.342 5 74h25q.98-13.586 1.955-27.173l.908-12.618q.44-6.087.876-12.176.165-2.323.335-4.646.235-3.253.467-6.507l.269-3.741c.143-2.376.19-4.758.19-7.139zm52 32c-.958 2.874-1.223 5.033-1.402 8.035l-.193 3.105-.202 3.353q-.233 3.506-.47 7.011c-.245 3.689-.484 7.377-.702 11.067-.213 3.56-.456 7.115-.703 10.672l-.178 3.34c-.342 4.614-.667 7.648-3.156 11.608-4.143 2.503-7.47 2.539-12.233 2.516l-2.669.046a675 675 0 0 1-8.405.06q-2.857.034-5.713.076c-4.659.067-9.314.088-13.974.111v19h110c0-22.917-12.655-43.667-28.188-59.687C314.642 63.183 303.978 56.865 292 52M22 59v276h201V59zm220 92v15h123v-15zm226 31c1.717 4.176 4.632 7.264 7.562 10.625 5.318 6.136 5.318 6.136 6.438 8.375h2q.755-2.904 1.5-5.812l.843-3.27c.766-2.907.766-2.907.657-5.918q-3.623-1.007-7.25-2l-2.067-.578c-3.39-.921-6.141-1.422-9.683-1.422m-226 3v51c10.68.17 10.68.17 21.36.298q2.015.044 4.03.093l2.097.003c3.343.1 5.23.398 7.953 2.398 1.879 2.66 2.08 4.889 2.188 8.11-1.012 3.376-2.939 4.882-5.628 7.098-3.506.66-3.506.66-7.489.707l-2.13.046c-2.232.043-4.462.052-6.694.06q-2.279.034-4.557.076A879 879 0 0 1 242 255v12q8.883.112 17.767.165 3.015.023 6.031.062c15.387.415 15.387.415 30.202-3.227l3.312-1.289c14.308-7.112 24.812-17.136 31.125-31.898 5.2-16.014 3.563-27.47 3.563-45.813zm201 0-.9 3.398q-4.296 16.225-8.597 32.448-2.636 9.942-5.267 19.885l-1.708 6.442a3918 3918 0 0 0-4.272 16.214c-2.604 9.937-5.277 19.832-8.286 29.654a1393 1393 0 0 0-3.896 13.04 294 294 0 0 1-1.913 6.1c-4.361 12.847-4.361 12.847-1.795 25.716 1.46 2.796 3.026 5.519 4.626 8.237 4.842 8.97 4.471 20.023 4.52 29.917q.024 2.091.054 4.182c.047 3.621.077 7.243.103 10.864.03 3.715.077 7.43.122 11.144.085 7.253.151 14.506.209 21.76h18l2.164-8.08 12.658-47.243c10.966-40.939 10.966-40.939 15.428-57.383l1.533-5.653q2.182-8.055 4.381-16.103c3.57-13.11 6.216-25.173 6.148-38.851l-.017-3.61c-.278-20.155-6.476-33.58-19.801-48.38-3.03-3.443-5.826-7.078-8.655-10.686-1.764-2.257-1.764-2.257-4.84-3.012m-152.474 99.48c-4.657.687-9.254.754-13.956.837l-3.001.063q-4.722.096-9.444.183l-6.422.13q-7.852.162-15.703.307a434 434 0 0 0-.77 15.314q-.104 2.601-.287 5.2c-.933 9.58-.933 9.58 2.38 18.226 3.748 3.488 7.795 5.772 12.677 7.26 3.975-.792 7.01-2.423 10.363-4.652l2.415-1.588 2.534-1.697q2.66-1.763 5.32-3.523l2.7-1.792c2.554-1.673 5.13-3.3 7.722-4.912l2.37-1.484a424 424 0 0 1 4.458-2.748c3.614-2.116 3.614-2.116 5.874-5.48.281-2.454-.06-4.084-.753-6.452l-.693-2.422-.748-2.5-.736-2.546c-.6-2.07-1.212-4.137-1.826-6.204-2.093-.063-2.093-.063-4.474.48m7.515 43.813c-4.1 3.43-8.754 6.09-13.291 8.895a2437 2437 0 0 0-5.622 3.547l-2.667 1.685a249 249 0 0 0-6.434 4.284c-8.668 5.871-8.668 5.871-13.84 5.609-4.015-.895-7.188-2.913-10.46-5.352l-1.727-.96-3 1-.938 1.937c-1.346 2.613-2.36 2.987-5.062 4.062-2.273.262-2.273.262-4.81.279l-2.923.034-3.186.006-3.372.03c-3.679.032-7.358.049-11.038.066q-3.825.027-7.65.058-9.042.068-18.083.117c-6.864.038-13.727.088-20.59.138q-21.174.153-42.348.272c-3.922 9.934-4.147 18.832-4.098 29.473l.004 3.526q.01 5.532.031 11.064l.014 7.537c.01 6.134.03 12.267.049 18.4h35c.21-10.634.21-10.634.387-21.27l.1-4.023.02-2.081c.13-4.345.837-7.158 3.493-10.626 2.624-1.141 5.159-1.204 8-1 2.997 1.34 4.527 2.056 6 5l1 34h173l1-34c3-4 3-4 6.875-4.937 3.87-.306 6.099.37 9.125 2.937 1.18 3.54 1.229 6.823 1.316 10.512l.056 1.957c.069 2.406.129 4.813.19 7.219L363 424h34c.084-7.722.164-15.443.207-23.165.02-3.598.048-7.195.094-10.792q.065-5.212.078-10.426c.01-1.948.042-3.896.074-5.843.004-15.408-5.02-28.557-15.493-39.899-16.011-15.31-36.247-15.828-57.11-15.643-11.315.255-18.324 2.407-26.81 10.06M55 443v15h401v-15z"/>
        <path d="m79.176 491.746 3.866-.018 4.256.012q2.257-.004 4.514-.012c4.14-.01 8.282-.008 12.423-.004 4.463.003 8.927-.006 13.39-.014q13.122-.016 26.242-.012 10.663.003 21.326-.004l3.062-.002 6.16-.004a65591 65591 0 0 1 57.798-.002q26.45.005 52.9-.025 27.144-.03 54.288-.024c10.164.002 20.327 0 30.49-.015q12.98-.018 25.958-.001c4.416.006 8.832.007 13.248-.005q6.062-.015 12.124.006 2.194.004 4.39-.008c1.987-.01 3.974 0 5.962.012h3.346c3.589.436 5.995 1.518 9.081 3.374 1.972 3.087 2.004 4.886 1.875 8.563-.987 3.877-1.759 5.015-4.875 7.437-2.864.502-2.864.502-6.26.504l-3.922.031q-2.16-.012-4.319-.027-2.29.007-4.58.02c-4.202.016-8.403.008-12.605-.005-4.53-.009-9.058.005-13.587.016-8.875.018-17.75.014-26.625.003q-10.816-.014-21.633-.006l-3.106.002q-3.124 0-6.248.003c-19.54.012-39.08-.001-58.62-.023q-25.167-.025-50.332.004a33760 33760 0 0 1-64.632.014l-3.094-.002q-10.806-.004-21.614.012-13.164.017-26.33-.013c-4.48-.011-8.96-.015-13.44-.002q-6.149.017-12.295-.016a468 468 0 0 0-4.458.008c-2.013.012-4.027-.003-6.04-.02l-3.395-.001c-3.544-.62-4.702-1.674-6.865-4.502-1.137-4.094-1.252-6.296.188-10.312 3.211-4.762 6.451-4.938 11.988-4.942"/>
        <path d="m71.865 74.353 3.677-.027c3.325-.018 6.648-.014 9.973.002 3.48.013 6.96.001 10.44-.007 5.844-.009 11.688.003 17.533.027 6.755.027 13.51.019 20.265-.009q8.702-.033 17.404-.013c3.464.008 6.928.009 10.393-.008 3.862-.017 7.723.007 11.585.035l3.479-.03c7.741.103 7.741.103 11.094 3.089 1.22 2.443 1.835 3.888 1.792 6.588l.031 1.937c-.872 3.384-1.88 4.702-4.531 7.063-3.941.783-7.86.682-11.865.647l-3.677.026c-3.325.019-6.648.014-9.973-.001-3.48-.013-6.96-.001-10.44.007-5.845.009-11.689-.003-17.533-.027a2501 2501 0 0 0-20.265.009q-8.703.034-17.404.013c-3.465-.008-6.929-.01-10.393.007-3.862.018-7.723-.006-11.585-.034l-3.48.03c-7.74-.103-7.74-.103-11.094-3.089C56.072 88.145 55.456 86.7 55.5 84l-.031-1.938c2.24-8.699 8.881-7.775 16.396-7.709"/>
        <path d="m122.777 257.791 2.755-.03q4.525-.043 9.05-.07l3.119-.02q8.168-.048 16.337-.076 6.766-.027 13.534-.103c5.442-.06 10.884-.09 16.327-.1a623 623 0 0 0 6.225-.057 542 542 0 0 1 8.712-.032l2.6-.06c5.682.068 5.682.068 8.227 2.053 1.987 2.285 3.25 4.136 3.712 7.153l-.375 2.238-.312 2.262c-.81 2.418-1.702 3.471-3.688 5.05-3.856 1.286-7.504 1.156-11.523 1.162l-2.637.015c-2.881.015-5.763.021-8.644.027l-6.005.017q-6.297.014-12.594.02c-5.38.005-10.759.03-16.138.058-4.135.019-8.27.024-12.405.025q-2.975.005-5.949.024a981 981 0 0 1-8.323.01l-2.481.027c-4.589-.034-7.583-.402-11.3-3.384-2.484-3.726-2.381-5.587-2-10 3.233-6.762 6.859-6.162 13.776-6.209"/>
        <path d="m122.777 188.791 2.755-.03q4.525-.043 9.05-.07l3.119-.02q8.168-.048 16.337-.076 6.766-.028 13.534-.103c5.442-.06 10.884-.09 16.327-.1a623 623 0 0 0 6.225-.057 542 542 0 0 1 8.712-.032l2.6-.06c5.682.068 5.682.068 8.227 2.053 1.987 2.285 3.25 4.136 3.712 7.153l-.375 2.238-.312 2.262c-.81 2.418-1.702 3.471-3.688 5.05-3.856 1.286-7.504 1.156-11.523 1.162l-2.637.015c-2.881.015-5.763.021-8.644.027l-6.005.017q-6.297.014-12.594.02c-5.38.005-10.759.03-16.138.058-4.135.019-8.27.024-12.405.025q-2.975.004-5.949.024a981 981 0 0 1-8.323.01l-2.481.027c-4.589-.034-7.583-.402-11.3-3.384-2.484-3.726-2.381-5.587-2-10 3.233-6.762 6.859-6.162 13.776-6.209"/>
        <path d="m123.133 119.369 2.761-.022c3.006-.017 6.01.003 9.016.024q3.136 0 6.272-.007 6.57-.003 13.137.04c5.614.033 11.228.027 16.843.009 4.316-.011 8.632-.002 12.948.013q3.105.008 6.211-.002a764 764 0 0 1 8.675.043l2.596-.02c5.806.093 5.806.093 8.908 2.461 2.545 3.55 2.843 5.713 2.5 10.092-2.265 4.632-2.265 4.632-5 6-2.933.12-5.843.179-8.777.193l-2.755.025q-4.524.035-9.05.056l-3.118.016q-8.17.039-16.337.06c-5.63.017-11.259.062-16.888.113-4.324.033-8.649.045-12.973.05q-3.114.01-6.226.046c-2.904.032-5.807.032-8.711.025l-2.6.05c-4.384-.047-6.044-.22-9.596-3.041-1.904-2.507-2.656-3.514-2.594-6.593l-.04-1.937c2.4-7.45 8.126-7.785 14.798-7.694"/>
        <path d="M90 252c2.753 1.796 4.526 3.053 6 6 .575 3.219.785 4.901 0 8-1.58 2.17-1.58 2.17-3.738 4.469l-2.477 2.646Q88.395 274.56 87 276l-1.485 1.536a892 892 0 0 1-9.655 9.79 1474 1474 0 0 0-5.061 5.1l-3.256 3.262-1.509 1.53c-3.643 3.62-6.235 5.47-11.284 6.344-5.495-.824-7.914-3.732-11.75-7.562l-2.695-2.41c-7.82-7.207-7.82-7.207-8.617-11.902.33-3.898.787-5.728 3.312-8.688 2.25-1.63 4.023-2.005 6.75-2.562 4.37.756 6.33 2.962 9.418 6.03 1.818 1.853 1.818 1.853 4.832 1.532a93 93 0 0 0 5.691-5.434l1.655-1.674c1.746-1.77 3.482-3.549 5.217-5.33a2749 2749 0 0 1 5.227-5.318q1.63-1.655 3.249-3.32c4.425-4.512 6.536-5.468 12.961-4.924"/>
        <path d="M91 114c3.46 2.955 4.764 4.938 5.75 9.375-1.946 9.408-13.653 17.851-20.284 24.564a605 605 0 0 0-3.932 4.035 666 666 0 0 1-5.753 5.866l-1.746 1.83c-3.808 3.79-6.442 5.248-12.035 5.33-5.143-1.804-8.475-5.045-12.187-8.875l-1.577-1.566c-3.695-3.747-6.89-7.185-7.673-12.559.543-3.724 1.842-5.329 4.437-8 3.3-1.65 6.464-1.789 10-1 2.993 2.03 5.501 4.395 8 7 3.89-1.578 6.477-4.236 9.352-7.191l1.515-1.532q2.384-2.413 4.758-4.84 2.386-2.428 4.78-4.85a752 752 0 0 0 2.964-3.018c4.186-4.247 7.576-5.773 13.631-4.569"/>
        <path d="M90 183c2.753 1.796 4.526 3.053 6 6 .517 3.228.818 5.777-1.073 8.603A486 486 0 0 1 89 204l-1.512 1.601a810 810 0 0 1-10.967 11.338 526 526 0 0 0-3.912 4.035 570 570 0 0 1-5.73 5.866l-1.73 1.83C60.911 232.886 58.01 233.972 52 234c-4.832-2.428-8.486-6.179-12.25-10l-1.602-1.578C33.19 217.438 33.19 217.438 32 214c.078-4.276.605-6.454 3.125-9.937C38 202 38 202 41.313 201.25c4.637.943 6.58 2.96 9.792 6.316 1.735 1.63 1.735 1.63 3.665 1.356 3.268-1.35 5.389-3.733 7.8-6.234l1.583-1.603A1069 1069 0 0 0 69.125 196a2504 2504 0 0 1 4.993-5.085 718 718 0 0 0 3.099-3.168c4.333-4.423 6.491-5.28 12.783-4.747"/>
        <path d="m120.947 283.855 3.783-.02 4.106-.003 4.2-.01q4.406-.009 8.812-.007c3.762 0 7.523-.014 11.285-.03q4.339-.016 8.678-.013 2.08-.002 4.16-.014c1.941-.01 3.882-.005 5.824 0l3.346-.005c2.878.249 4.48.642 6.86 2.247 2.014 3.022 2.336 3.918 2.437 7.375l.12 2.274c-.848 3.573-2.775 5.029-5.558 7.351-3.004.615-3.004.615-6.379.6l-3.842.018q-2.064-.029-4.126-.06a1601 1601 0 0 0-4.255-.006 895 895 0 0 1-8.899-.065c-3.799-.045-7.597-.06-11.396-.063q-4.389-.009-8.778-.04-2.101-.012-4.202-.02c-1.958-.009-3.915-.033-5.873-.057l-3.373-.033c-2.843-.27-4.495-.74-6.877-2.274-2.546-3.437-2.437-6.85-2-11 3.532-5.415 5.683-6.123 11.947-6.145"/>
        <path d="m121.25 145.694 3.833-.048q2.066-.01 4.132-.017l4.252-.027q4.452-.024 8.904-.027c3.798-.006 7.595-.043 11.392-.089 2.926-.03 5.853-.037 8.779-.038q2.1-.006 4.2-.037c1.96-.027 3.92-.02 5.88-.01l3.374-.015c3.968.812 5.472 2.53 8.004 5.614.838 3.087.648 5.876 0 9-1.876 2.502-3.239 3.62-6 5-1.974.112-3.953.16-5.93.177l-3.773.04-4.098.022-2.081.012q-5.456.03-10.91.045c-3.753.01-7.506.045-11.258.085-2.889.026-5.777.034-8.666.038a419 419 0 0 0-4.149.035 390 390 0 0 1-5.816.016c-1.653.01-1.653.01-3.34.018-3.673-.601-5.33-1.926-7.979-4.488-1.79-3.58-1.466-7.562-.25-11.312 2.948-3.98 6.845-3.95 11.5-3.994"/>
        <path d="m121.25 214.694 3.833-.048q2.066-.01 4.132-.017l4.252-.027q4.452-.024 8.904-.027c3.798-.006 7.595-.043 11.392-.089 2.926-.03 5.853-.037 8.779-.038q2.1-.006 4.2-.037c1.96-.027 3.92-.02 5.88-.01l3.374-.015c3.968.812 5.472 2.53 8.004 5.614.838 3.087.648 5.876 0 9-1.876 2.502-3.239 3.62-6 5-1.944.107-3.892.15-5.839.162l-3.712.029-4.03.013-4.126.017q-4.329.015-8.658.02c-3.692.005-7.384.03-11.076.058-2.843.018-5.685.023-8.527.025q-2.04.004-4.082.024a502 502 0 0 1-5.722.009l-3.286.01c-3.382-.422-5.222-1.34-7.942-3.367-2.467-3.7-2.307-5.622-2-10 .839-2.586 1.407-3.618 3.688-5.086 2.957-1.168 5.382-1.19 8.562-1.22"/>
    </g>
</svg>
